<svg width="24" height="24" viewBox="0 0 24 24" fill="none" xmlns="http://www.w3.org/2000/svg">
<g opacity="0.8">
<path d="M14.0849 21.7208C18.7989 20.7562 22.3449 16.5853 22.3449 11.5862C22.3449 5.87287 17.7134 1.24133 12.0001 1.24133C6.28681 1.24133 1.65527 5.87287 1.65527 11.5862C1.65527 16.5346 5.12977 20.6716 9.77228 21.6905V14.2154H7.44838V11.1394H9.77228V8.51213C9.77228 6.4476 11.145 4.55168 14.3081 4.55168C15.5888 4.55168 16.5358 4.67102 16.5358 4.67102L16.4612 7.54345C16.4612 7.54345 15.4954 7.53431 14.4414 7.53431C13.3008 7.53431 13.118 8.04529 13.118 8.89339V11.1394H16.5518L16.4024 14.2154H13.118V21.8713C13.4452 21.8361 13.7677 21.7857 14.0849 21.7208Z" fill="white"/>
</g>
</svg>
