<svg width="24" height="24" viewBox="0 0 24 24" fill="none" xmlns="http://www.w3.org/2000/svg">
<g opacity="0.8">
<path fill-rule="evenodd" clip-rule="evenodd" d="M22.3449 11.5862C22.3449 17.2991 17.713 21.931 12.0001 21.931C6.28717 21.931 1.65527 17.2991 1.65527 11.5862C1.65527 5.87323 6.28717 1.24133 12.0001 1.24133C17.713 1.24133 22.3449 5.87323 22.3449 11.5862ZM12.3708 8.8784C11.3648 9.29651 9.35355 10.1629 6.33803 11.4767C5.84838 11.6715 5.59148 11.862 5.5682 12.0482C5.52855 12.3637 5.92338 12.4879 6.45958 12.656C6.53286 12.6793 6.60872 12.7025 6.68631 12.7284C7.21476 12.9 7.9251 13.1008 8.29407 13.1086C8.62941 13.1155 9.00355 12.9775 9.41648 12.6948C12.2337 10.7922 13.688 9.83099 13.7794 9.8103C13.8441 9.79564 13.9337 9.77668 13.9941 9.83099C14.0544 9.88444 14.0484 9.98616 14.0423 10.0137C14.0027 10.1801 12.4561 11.6189 11.6544 12.3637C11.4044 12.5956 11.2277 12.7603 11.1915 12.7982C11.1104 12.8819 11.0277 12.962 10.9484 13.0387C10.457 13.5112 10.0898 13.8663 10.9691 14.4456C11.3915 14.7241 11.7294 14.9543 12.0665 15.1836C12.4346 15.4344 12.8018 15.6844 13.2777 15.9965C13.3984 16.0758 13.5139 16.1577 13.6268 16.2379C14.0553 16.5439 14.4406 16.8181 14.9165 16.775C15.1923 16.7491 15.4785 16.4896 15.6234 15.7146C15.9656 13.8818 16.6398 9.91288 16.7958 8.27668C16.8053 8.14083 16.7995 8.00434 16.7785 7.86978C16.766 7.7611 16.7131 7.6611 16.6303 7.58961C16.507 7.48875 16.3156 7.4672 16.2294 7.46892C15.8406 7.47582 15.2441 7.68357 12.3708 8.8784Z" fill="white"/>
</g>
</svg>
