<svg width="41" height="41" viewBox="0 0 41 41" fill="none" xmlns="http://www.w3.org/2000/svg">
<g id="tickets">
<g id="Group 815">
<path id="Vector" d="M16.1699 0.547998C16.3945 0.297802 16.6901 0.122142 17.0173 0.0445492C17.3445 -0.0330435 17.6876 -0.00886342 18.0007 0.113851C18.3138 0.236565 18.5818 0.451953 18.769 0.73116C18.9561 1.01037 19.0535 1.34006 19.0479 1.67608C19.0479 3.78347 19.0479 6.38673 18.9734 7.87431C18.9734 8.20308 19.1041 8.51839 19.3368 8.75087C19.5694 8.98335 19.8849 9.11395 20.2139 9.11395L23.8237 9.17593C24.1244 9.15564 24.425 9.21619 24.6943 9.3513C24.9637 9.4864 25.1918 9.69113 25.3552 9.9442C25.5185 10.1973 25.611 10.4894 25.6231 10.7903C25.6352 11.0912 25.5665 11.3899 25.424 11.6552C18.8866 23.3203 18.254 24.8203 14.4953 31.4896C14.3054 31.81 14.0147 32.0587 13.6686 32.1966C13.3224 32.3346 12.9403 32.3541 12.5818 32.2522C12.2234 32.1502 11.9088 31.9326 11.6872 31.6331C11.4656 31.3337 11.3494 30.9694 11.3569 30.597C11.3569 28.1177 11.27 25.4773 11.208 24.3988C11.2084 24.233 11.165 24.0701 11.0823 23.9264C10.9995 23.7828 10.8803 23.6635 10.7366 23.5806C10.3901 23.3821 10.0053 23.2596 9.60778 23.2211C8.6526 23.1467 7.41212 23.3327 6.27087 23.2211C4.86913 23.2211 4.32331 21.6468 5.12963 20.3204C5.58861 19.465 13.3168 5.03552 16.1699 0.547998Z" fill="url(#paint0_linear_1_25224)"/>
<path id="Vector_2" d="M16.1699 0.547998C16.3945 0.297802 16.6901 0.122142 17.0173 0.0445492C17.3445 -0.0330435 17.6876 -0.00886342 18.0007 0.113851C18.3138 0.236565 18.5818 0.451953 18.769 0.73116C18.9561 1.01037 19.0535 1.34006 19.0479 1.67608C19.0479 3.78347 19.0479 6.38673 18.9734 7.87431C18.9734 8.20308 19.1041 8.51839 19.3368 8.75087C19.5694 8.98335 19.8849 9.11395 20.2139 9.11395L23.8237 9.17593C24.1244 9.15564 24.425 9.21619 24.6943 9.3513C24.9637 9.4864 25.1918 9.69113 25.3552 9.9442C25.5185 10.1973 25.611 10.4894 25.6231 10.7903C25.6352 11.0912 25.5665 11.3899 25.424 11.6552C18.8866 23.3203 18.254 24.8203 14.4953 31.4896C14.3054 31.81 14.0147 32.0587 13.6686 32.1966C13.3224 32.3346 12.9403 32.3541 12.5818 32.2522C12.2234 32.1502 11.9088 31.9326 11.6872 31.6331C11.4656 31.3337 11.3494 30.9694 11.3569 30.597C11.3569 28.1177 11.27 25.4773 11.208 24.3988C11.2084 24.233 11.165 24.0701 11.0823 23.9264C10.9995 23.7828 10.8803 23.6635 10.7366 23.5806C10.3901 23.3821 10.0053 23.2596 9.60778 23.2211C8.6526 23.1467 7.41212 23.3327 6.27087 23.2211C4.86913 23.2211 4.32331 21.6468 5.12963 20.3204C5.58861 19.465 13.3168 5.03552 16.1699 0.547998Z" fill="url(#paint1_linear_1_25224)"/>
<path id="Vector_3" fill-rule="evenodd" clip-rule="evenodd" d="M25.3981 11.6682C25.5406 11.4029 25.6094 11.1042 25.5973 10.8033C25.5852 10.5024 25.4926 10.2103 25.3293 9.9572C25.166 9.70413 24.9378 9.4994 24.6685 9.3643C24.3991 9.22919 24.0985 9.16864 23.7979 9.18893L20.1881 9.12695C19.8591 9.12695 19.5435 8.99634 19.3109 8.76387C19.0783 8.53139 18.9476 8.21608 18.9476 7.8873C18.9476 6.37494 19.022 3.77168 19.022 1.68908C19.0276 1.35306 18.9303 1.02337 18.7431 0.744161C18.556 0.464953 18.2879 0.249566 17.9748 0.126852C17.6618 0.00413747 17.3187 -0.0200432 16.9915 0.0575495C16.6643 0.135142 16.3686 0.310802 16.1441 0.560998C14.0229 3.89565 9.18495 12.7591 6.64196 17.4202C5.77362 19.0193 5.17819 20.1226 5.04174 20.3457C4.23542 21.6722 4.78124 23.1845 6.18298 23.2465C6.75733 23.2774 7.33292 23.2774 7.90726 23.2465C8.44418 23.2099 8.98296 23.2099 9.51988 23.2465C9.91742 23.285 10.3022 23.4075 10.6487 23.606C10.7924 23.6889 10.9116 23.8082 10.9944 23.9518C11.0771 24.0955 11.1205 24.2584 11.1201 24.4242C11.1201 25.5399 11.3062 28.2299 11.269 30.6224C11.2309 31.0121 11.3297 31.4029 11.5485 31.7277C11.7672 32.0525 12.0923 32.2911 12.4679 32.4025C12.8435 32.514 13.2462 32.4913 13.6069 32.3384C13.9676 32.1855 14.2638 31.9119 14.4446 31.5645C16.02 28.7629 17.0372 26.8663 18.1661 24.7589C19.7911 21.7961 21.5898 18.4491 25.3981 11.6682ZM23.8227 10.9492L20.2005 10.8872C19.8127 10.8808 19.4301 10.7981 19.0744 10.6438C18.7186 10.4895 18.3968 10.2667 18.1272 9.98816C17.8577 9.70958 17.6457 9.38066 17.5034 9.02019C17.361 8.65972 17.2912 8.27477 17.2977 7.8873C17.2977 6.46171 17.3598 4.0444 17.3598 2.01138C15.9208 4.36671 13.5143 8.65588 11.331 12.6228L8.34143 18.0896C7.42347 19.7755 6.77842 20.978 6.62956 21.2135C6.56573 21.3109 6.52343 21.4208 6.5055 21.5358C6.92727 21.5358 7.38626 21.5358 7.91967 21.5358C8.51451 21.4983 9.11112 21.4983 9.70596 21.5358C10.3511 21.5957 10.9765 21.7899 11.5419 22.106C11.9428 22.3285 12.2793 22.651 12.5184 23.042C12.7575 23.4331 12.8912 23.8794 12.9064 24.3374C12.9684 25.4531 13.0801 28.1555 13.0429 30.6224C14.5563 27.92 15.5238 26.0605 16.6775 24.0027L17.3598 22.7631C18.7987 19.9862 20.5726 16.7632 23.8227 10.9492Z" fill="url(#paint2_linear_1_25224)"/>
<path id="Vector_4" d="M34.5646 22.9639C35.3833 22.6044 36.4129 23.7696 35.8051 24.7366C35.1972 25.7035 34.1801 27.0299 33.5722 27.9225C33.3916 28.1888 33.3217 28.5149 33.3772 28.8318C33.4328 29.1487 33.6095 29.4316 33.8699 29.6208L35.6066 30.8604C35.7844 30.9625 35.9321 31.1097 36.0348 31.2871C36.1376 31.4645 36.1916 31.6658 36.1916 31.8707C36.1916 32.0757 36.1376 32.277 36.0348 32.4544C35.9321 32.6318 35.7844 32.7789 35.6066 32.881C27.4194 36.9719 26.489 37.5917 21.8 39.947C21.5636 40.02 21.3107 40.0207 21.0738 39.949C20.837 39.8772 20.627 39.7363 20.471 39.5444C20.3149 39.3524 20.2199 39.1182 20.1981 38.8719C20.1763 38.6255 20.2287 38.3783 20.3486 38.1619C21.2294 36.9223 22.1225 35.4223 22.5567 34.6909C22.645 34.5519 22.6918 34.3907 22.6918 34.2261C22.6918 34.0614 22.645 33.9002 22.5567 33.7612C22.4492 33.5669 22.3061 33.3945 22.1349 33.2529C21.6139 32.8439 20.8945 32.4596 20.2122 32.0133C19.5299 31.567 19.7036 30.3522 20.6712 29.9059C21.279 29.5712 31.2029 24.3523 34.5646 22.9639Z" fill="url(#paint3_linear_1_25224)"/>
<path id="Vector_5" d="M34.5646 22.9639C35.3833 22.6044 36.4129 23.7696 35.8051 24.7366C35.1972 25.7035 34.1801 27.0299 33.5722 27.9225C33.3916 28.1888 33.3217 28.5149 33.3772 28.8318C33.4328 29.1487 33.6095 29.4316 33.8699 29.6208L35.6066 30.8604C35.7844 30.9625 35.9321 31.1097 36.0348 31.2871C36.1376 31.4645 36.1916 31.6658 36.1916 31.8707C36.1916 32.0757 36.1376 32.277 36.0348 32.4544C35.9321 32.6318 35.7844 32.7789 35.6066 32.881C27.4194 36.9719 26.489 37.5917 21.8 39.947C21.5636 40.02 21.3107 40.0207 21.0738 39.949C20.837 39.8772 20.627 39.7363 20.471 39.5444C20.3149 39.3524 20.2199 39.1182 20.1981 38.8719C20.1763 38.6255 20.2287 38.3783 20.3486 38.1619C21.2294 36.9223 22.1225 35.4223 22.5567 34.6909C22.645 34.5519 22.6918 34.3907 22.6918 34.2261C22.6918 34.0614 22.645 33.9002 22.5567 33.7612C22.4492 33.5669 22.3061 33.3945 22.1349 33.2529C21.6139 32.8439 20.8945 32.4596 20.2122 32.0133C19.5299 31.567 19.7036 30.3522 20.6712 29.9059C21.279 29.5712 31.2029 24.3523 34.5646 22.9639Z" fill="url(#paint4_linear_1_25224)"/>
<path id="Vector_6" fill-rule="evenodd" clip-rule="evenodd" d="M35.5816 32.8777C35.7594 32.7756 35.9072 32.6284 36.0099 32.451C36.1126 32.2736 36.1667 32.0723 36.1667 31.8674C36.1667 31.6624 36.1126 31.4611 36.0099 31.2837C35.9072 31.1063 35.7594 30.9592 35.5816 30.8571L33.845 29.6174C33.5884 29.4246 33.4167 29.14 33.3658 28.8233C33.3149 28.5066 33.3888 28.1825 33.5721 27.9191C34.1799 27.0513 35.0606 25.7745 35.7677 24.7084C36.4748 23.6423 35.3832 22.5762 34.5272 22.9357C32.0463 24.0142 25.9182 27.1753 22.693 28.8364L20.6586 29.8777C19.691 30.324 19.4181 31.4025 20.1996 31.9851C20.5097 32.2207 20.8571 32.4314 21.192 32.6422C21.513 32.8274 21.8236 33.0302 22.1224 33.2496C22.2936 33.3911 22.4366 33.5635 22.5441 33.7578C22.6324 33.8968 22.6792 34.0581 22.6792 34.2227C22.6792 34.3873 22.6324 34.5486 22.5441 34.6876C22.11 35.419 21.2168 36.8817 20.3361 38.1586C20.2161 38.3749 20.1637 38.6221 20.1855 38.8685C20.2073 39.1149 20.3023 39.3491 20.4584 39.541C20.6145 39.7329 20.8244 39.8738 21.0612 39.9456C21.2981 40.0174 21.551 40.0167 21.7874 39.9437C23.7474 38.9519 25.0499 38.2701 26.5137 37.4644C28.5109 36.4355 30.8182 35.233 35.5816 32.8777ZM26.6625 35.7289C28.4364 34.7991 30.6073 33.6835 34.3908 31.7868L33.0014 30.7951C32.4276 30.3837 32.0376 29.7644 31.9148 29.0694C31.7919 28.3745 31.946 27.6591 32.344 27.0761L33.8326 24.9068C32.0835 25.7373 29.6149 26.977 27.3076 28.1546L23.5861 30.0885L21.6014 31.105L22.0479 31.3777C22.4112 31.589 22.7593 31.8251 23.0899 32.0843C23.4025 32.332 23.6673 32.6344 23.8714 32.9769C24.1021 33.3493 24.2243 33.7785 24.2243 34.2165C24.2243 34.6545 24.1021 35.0838 23.8714 35.4561C23.5365 36.014 22.9163 37.0305 22.234 38.0718L25.8438 36.1999L26.6625 35.7289Z" fill="url(#paint5_linear_1_25224)"/>
</g>
</g>
<defs>
<linearGradient id="paint0_linear_1_25224" x1="22.5212" y1="3.91984" x2="10.2031" y2="24.654" gradientUnits="userSpaceOnUse">
<stop stop-color="#FFFD54"/>
<stop offset="1" stop-color="#FFBC00"/>
</linearGradient>
<linearGradient id="paint1_linear_1_25224" x1="2.92157" y1="11.4569" x2="17.8667" y2="17.2901" gradientUnits="userSpaceOnUse">
<stop stop-color="white"/>
<stop offset="1" stop-color="white" stop-opacity="0"/>
</linearGradient>
<linearGradient id="paint2_linear_1_25224" x1="9.24698" y1="23.2713" x2="19.039" y2="11.6121" gradientUnits="userSpaceOnUse">
<stop stop-color="#F5BE41" stop-opacity="0.8"/>
<stop offset="0.56" stop-color="#F8D147" stop-opacity="0.56"/>
<stop offset="1" stop-color="#FFFD54" stop-opacity="0"/>
</linearGradient>
<linearGradient id="paint3_linear_1_25224" x1="1521.08" y1="1194.43" x2="1320.94" y2="1104.35" gradientUnits="userSpaceOnUse">
<stop stop-color="#FFFD54"/>
<stop offset="1" stop-color="#FFBC00"/>
</linearGradient>
<linearGradient id="paint4_linear_1_25224" x1="1331.27" y1="1251.22" x2="1425.12" y2="1115.32" gradientUnits="userSpaceOnUse">
<stop stop-color="white"/>
<stop offset="1" stop-color="white" stop-opacity="0"/>
</linearGradient>
<linearGradient id="paint5_linear_1_25224" x1="21.4029" y1="33.2124" x2="28.8203" y2="31.2513" gradientUnits="userSpaceOnUse">
<stop stop-color="#F5BE41" stop-opacity="0.8"/>
<stop offset="1" stop-color="#FFFD54" stop-opacity="0"/>
</linearGradient>
</defs>
</svg>
