<?xml version="1.0" standalone="no"?>
<!DOCTYPE svg PUBLIC "-//W3C//DTD SVG 20010904//EN"
 "http://www.w3.org/TR/2001/REC-SVG-20010904/DTD/svg10.dtd">
<svg version="1.0" xmlns="http://www.w3.org/2000/svg"
 width="97.000000pt" height="97.000000pt" viewBox="0 0 97.000000 97.000000"
 preserveAspectRatio="xMidYMid meet">
<metadata>
Created by potrace 1.14, written by Peter Selinger 2001-2017
</metadata>
<g transform="translate(0.000000,97.000000) scale(0.100000,-0.100000)"
fill="#000000" stroke="none">
<path d="M720 841 c-35 -65 -36 -66 -145 -76 -33 -3 -76 -8 -95 -10 -19 -3
-57 -7 -85 -10 -27 -3 -68 -8 -90 -11 -22 -3 -56 -8 -75 -9 -46 -5 -131 -15
-151 -18 -32 -5 -67 -37 -73 -65 -4 -15 3 -93 14 -172 11 -80 23 -167 26 -195
15 -120 42 -148 159 -159 33 -3 71 -8 85 -10 14 -3 50 -7 80 -11 30 -3 66 -7
80 -9 14 -3 50 -7 80 -10 30 -4 78 -10 106 -15 28 -4 62 -6 75 -4 30 4 79 56
80 86 0 12 2 31 5 42 2 11 5 34 8 50 10 73 35 243 41 275 12 78 16 85 45 99
29 12 41 31 20 31 -14 0 -12 33 3 49 10 11 7 13 -15 9 -21 -4 -28 -1 -32 18
-3 12 -14 30 -23 39 -9 10 -17 27 -18 38 -1 14 -10 24 -26 27 -18 5 -24 13
-24 33 -1 56 -21 52 -55 -12z"/>
</g>
</svg>
