<svg width="130" height="22" viewBox="0 0 130 22" fill="none" xmlns="http://www.w3.org/2000/svg">
<g clip-path="url(#clip0_1_20814)">
<path d="M7.21462 7.04688C9.30667 7.04688 11.0508 8.10989 11.863 9.25867V7.33383H15.0583V21.6944H12.8882C12.322 21.6944 11.863 21.2413 11.863 20.681V19.7715C11.0508 20.9193 9.30667 21.9815 7.21462 21.9815C3.23593 21.9815 0.213623 18.6219 0.213623 14.5146C0.213623 10.4073 3.23593 7.04688 7.21462 7.04688ZM7.79592 9.91947C5.20995 9.91947 3.46668 11.9294 3.46668 14.5146C3.46668 17.099 5.20995 19.1102 7.79592 19.1102C10.3811 19.1102 12.1252 17.099 12.1252 14.5146C12.1252 11.9294 10.3812 9.91947 7.79592 9.91947Z" fill="#77C159"/>
<path d="M18.6863 7.33383H21.8824V9.28673C22.7532 7.85115 24.4099 7.04688 26.2982 7.04688C29.6676 7.04688 31.847 9.40199 31.847 13.0498V21.6939H29.6761C29.1101 21.6939 28.6509 21.2401 28.6509 20.6805V13.5668C28.6509 11.2981 27.4883 9.91947 25.6304 9.91947C23.5094 9.91947 21.8826 11.5566 21.8826 14.6291V21.6939H19.7107C19.1455 21.6939 18.6863 21.2401 18.6863 20.6805V7.33383Z" fill="#77C159"/>
<path d="M41.3754 7.04879C43.4667 7.04879 45.2108 8.1118 46.0238 9.26058V0.15625H49.2183V21.6963H47.0482C46.483 21.6963 46.0238 21.2433 46.0238 20.6829V19.7734C45.2108 20.9212 43.4667 21.9834 41.3754 21.9834C37.395 21.9834 34.3738 18.6238 34.3738 14.5165C34.3738 10.4092 37.3951 7.04879 41.3754 7.04879ZM41.9569 9.92138C39.3717 9.92138 37.6285 11.9314 37.6285 14.5165C37.6285 17.1009 39.3717 19.1121 41.9569 19.1121C44.5411 19.1121 46.2844 17.1009 46.2844 14.5165C46.2844 11.9314 44.5411 9.92138 41.9569 9.92138Z" fill="#77C159"/>
<path d="M52.8503 7.33879H56.0457V9.89494C56.5973 8.25785 58.2243 7.19531 59.8808 7.19531C60.2865 7.19531 60.6947 7.22433 61.1302 7.31025V10.5554C60.5768 10.3829 60.1135 10.297 59.533 10.297C57.7023 10.297 56.0458 11.8199 56.0458 14.6919V21.6989H53.8749C53.3097 21.6989 52.8505 21.245 52.8505 20.6855V7.33879H52.8503Z" fill="#77C159"/>
<path d="M69.7465 21.9815C65.4479 21.9815 62.1355 18.678 62.1355 14.5154C62.1355 10.3507 65.4479 7.04688 69.7465 7.04688C74.0469 7.04688 77.3577 10.3499 77.3577 14.5154C77.3577 18.678 74.0469 21.9815 69.7465 21.9815ZM69.7465 19.0531C72.303 19.0531 74.1046 17.0704 74.1046 14.5154C74.1046 11.9597 72.3028 9.97702 69.7465 9.97702C67.1615 9.97702 65.3605 11.9597 65.3605 14.5154C65.3605 17.0704 67.1615 19.0531 69.7465 19.0531Z" fill="#77C159"/>
<path d="M81.5431 4.20646C80.3813 4.20646 79.3933 3.25966 79.3933 2.08075C79.3933 0.931969 80.3813 -0.015625 81.5431 -0.015625C82.7338 -0.015625 83.6638 0.932129 83.6638 2.08075C83.6638 3.25966 82.7338 4.20646 81.5431 4.20646ZM79.9466 7.3362H83.1411V21.6968H80.971C80.4048 21.6968 79.9466 21.242 79.9466 20.6833V7.3362Z" fill="#77C159"/>
<path d="M92.7683 7.04879C94.8604 7.04879 96.6036 8.1118 97.4175 9.26058V0.15625H100.613V21.6963H98.4427C97.8756 21.6963 97.4175 21.2433 97.4175 20.6829V19.7734C96.6036 20.9212 94.8604 21.9834 92.7683 21.9834C88.7896 21.9834 85.7683 18.6238 85.7683 14.5165C85.7683 10.4092 88.7896 7.04879 92.7683 7.04879ZM93.3498 9.92138C90.7656 9.92138 89.0223 11.9314 89.0223 14.5165C89.0223 17.1009 90.7656 19.1121 93.3498 19.1121C95.9357 19.1121 97.679 17.1009 97.679 14.5165C97.6789 11.9314 95.9357 9.92138 93.3498 9.92138Z" fill="#77C159"/>
<path d="M106.168 9.16306H103.042V7.25751H106.168V3.24219H108.213V7.25751H112.478V9.16306H108.213V17.5105C108.213 19.2717 109.002 19.9647 110.638 19.9647C111.221 19.9647 112.011 19.849 112.478 19.6477V21.4668C111.805 21.727 111.105 21.8426 110.316 21.8426C107.833 21.8426 106.168 20.4263 106.168 17.6825V9.16306Z" fill="white" fill-opacity="0.8"/>
<path d="M129.101 7.25781L122.266 21.6991H120.659L113.823 7.25781H116.102L121.448 18.7238L126.794 7.25781H129.101Z" fill="white" fill-opacity="0.8"/>
</g>
<defs>
<clipPath id="clip0_1_20814">
<rect width="129" height="22" fill="white" transform="translate(0.166748)"/>
</clipPath>
</defs>
</svg>
