<svg width="146" height="25" viewBox="0 0 146 25" fill="none" xmlns="http://www.w3.org/2000/svg">
<g clip-path="url(#clip0_1_25266)">
<path d="M8.17308 7.87979C10.5337 7.87979 12.5016 9.06295 13.4181 10.3416V8.19918H17.0236V24.1828H14.5749C13.9361 24.1828 13.4181 23.6785 13.4181 23.0549V22.0426C12.5016 23.3201 10.5337 24.5024 8.17308 24.5024C3.68369 24.5024 0.273438 20.7631 0.273438 16.1915C0.273438 11.62 3.68369 7.87979 8.17308 7.87979ZM8.82901 11.0771C5.9111 11.0771 3.94406 13.3142 3.94406 16.1915C3.94406 19.068 5.9111 21.3066 8.82901 21.3066C11.746 21.3066 13.714 19.068 13.714 16.1915C13.714 13.3142 11.7462 11.0771 8.82901 11.0771Z" fill="#77C159"/>
<path d="M21.1191 8.19918H24.7255V10.3728C25.7081 8.77497 27.5774 7.87979 29.7082 7.87979C33.51 7.87979 35.9692 10.5011 35.9692 14.5612V24.1823H33.5196C32.881 24.1823 32.3628 23.6771 32.3628 23.0543V15.1367C32.3628 12.6115 31.051 11.0771 28.9546 11.0771C26.5614 11.0771 24.7257 12.8992 24.7257 16.3189V24.1823H22.2751C21.6373 24.1823 21.1191 23.6771 21.1191 23.0543V8.19918Z" fill="#77C159"/>
<path d="M46.7207 7.87165C49.0804 7.87165 51.0483 9.05481 51.9657 10.3334V0.200104H55.5703V24.1747H53.1216C52.4839 24.1747 51.9657 23.6704 51.9657 23.0467V22.0344C51.0483 23.312 49.0804 24.4942 46.7207 24.4942C42.2293 24.4942 38.8203 20.7549 38.8203 16.1834C38.8203 11.6119 42.2295 7.87165 46.7207 7.87165ZM47.3768 11.0689C44.4598 11.0689 42.4928 13.3061 42.4928 16.1834C42.4928 19.0598 44.4598 21.2984 47.3768 21.2984C50.2927 21.2984 52.2598 19.0598 52.2598 16.1834C52.2598 13.3061 50.2927 11.0689 47.3768 11.0689Z" fill="#77C159"/>
<path d="M59.666 8.19574H63.2715V11.0408C63.8939 9.21867 65.7298 8.03604 67.5989 8.03604C68.0567 8.03604 68.5172 8.06834 69.0087 8.16397V11.7759C68.3842 11.5839 67.8615 11.4883 67.2065 11.4883C65.1408 11.4883 63.2717 13.1833 63.2717 16.3799V24.1788H60.8221C60.1844 24.1788 59.6662 23.6737 59.6662 23.0509V8.19574H59.666Z" fill="#77C159"/>
<path d="M78.7305 24.5024C73.8802 24.5024 70.1426 20.8255 70.1426 16.1924C70.1426 11.557 73.8802 7.87979 78.7305 7.87979C83.5829 7.87979 87.3187 11.5561 87.3187 16.1924C87.3187 20.8255 83.5829 24.5024 78.7305 24.5024ZM78.7305 21.243C81.6151 21.243 83.6481 19.0362 83.6481 16.1924C83.6481 13.3479 81.615 11.1411 78.7305 11.1411C75.8137 11.1411 73.7815 13.3479 73.7815 16.1924C73.7815 19.0362 75.8137 21.243 78.7305 21.243Z" fill="#77C159"/>
<path d="M92.0449 4.71188C90.7339 4.71188 89.6191 3.65807 89.6191 2.34592C89.6191 1.0673 90.7339 0.0126038 92.0449 0.0126038C93.3884 0.0126038 94.4378 1.06747 94.4378 2.34592C94.4378 3.65807 93.3884 4.71188 92.0449 4.71188ZM90.2434 8.19535H93.848V24.179H91.3993C90.7605 24.179 90.2434 23.6728 90.2434 23.051V8.19535Z" fill="#77C159"/>
<path d="M104.709 7.87165C107.07 7.87165 109.037 9.05481 109.955 10.3334V0.200104H113.56V24.1747H111.112C110.472 24.1747 109.955 23.6704 109.955 23.0467V22.0344C109.037 23.312 107.07 24.4942 104.709 24.4942C100.22 24.4942 96.8105 20.7549 96.8105 16.1834C96.8105 11.6119 100.22 7.87165 104.709 7.87165ZM105.365 11.0689C102.449 11.0689 100.482 13.3061 100.482 16.1834C100.482 19.0598 102.449 21.2984 105.365 21.2984C108.283 21.2984 110.25 19.0598 110.25 16.1834C110.25 13.3061 108.283 11.0689 105.365 11.0689Z" fill="#77C159"/>
<path d="M119.829 10.2277H116.301V8.10674H119.829V3.6376H122.136V8.10674H126.949V10.2277H122.136V19.5185C122.136 21.4788 123.026 22.2502 124.872 22.2502C125.53 22.2502 126.421 22.1214 126.949 21.8972V23.922C126.189 24.2116 125.399 24.3402 124.509 24.3402C121.708 24.3402 119.829 22.7639 119.829 19.71V10.2277Z" fill="white" fill-opacity="0.8"/>
<path d="M145.706 8.11417L137.994 24.1876H136.181L128.467 8.11417H131.038L137.07 20.8761L143.103 8.11417H145.706Z" fill="white" fill-opacity="0.8"/>
</g>
<defs>
<clipPath id="clip0_1_25266">
<rect width="145.559" height="24.4865" fill="white" transform="translate(0.220703 0.0360413)"/>
</clipPath>
</defs>
</svg>
