<svg width="175" height="31" viewBox="0 0 175 31" fill="none" xmlns="http://www.w3.org/2000/svg">
<g clip-path="url(#clip0_1_16266)">
<path d="M9.56192 10.1094C12.4 10.1094 14.766 11.5589 15.8678 13.1255V10.5007H20.2026V30.0833H17.2586C16.4906 30.0833 15.8678 29.4655 15.8678 28.7013V27.4611C14.766 29.0263 12.4 30.4748 9.56192 30.4748C4.16448 30.4748 0.0644531 25.8935 0.0644531 20.2926C0.0644531 14.6918 4.16448 10.1094 9.56192 10.1094ZM10.3505 14.0265C6.84242 14.0265 4.47752 16.7674 4.47752 20.2926C4.47752 23.8168 6.84242 26.5594 10.3505 26.5594C13.8575 26.5594 16.2235 23.8168 16.2235 20.2926C16.2235 16.7674 13.8577 14.0265 10.3505 14.0265Z" fill="#77C159"/>
<path d="M25.125 10.5007H29.4608V13.1637C30.6421 11.2061 32.8895 10.1094 35.4513 10.1094C40.0221 10.1094 42.9787 13.3209 42.9787 18.2952V30.0826H40.0337C39.2659 30.0826 38.6429 29.4637 38.6429 28.7007V19.0002C38.6429 15.9065 37.0657 14.0265 34.5453 14.0265C31.668 14.0265 29.4611 16.2589 29.4611 20.4487V30.0826H26.5147C25.748 30.0826 25.125 29.4637 25.125 28.7007V10.5007Z" fill="#77C159"/>
<path d="M55.9066 10.1099C58.7435 10.1099 61.1095 11.5594 62.2125 13.1259V0.710938H66.5461V30.0838H63.6022C62.8355 30.0838 62.2125 29.4659 62.2125 28.7018V27.4616C61.1095 29.0268 58.7435 30.4753 55.9066 30.4753C50.5067 30.4753 46.4082 25.894 46.4082 20.2931C46.4082 14.6922 50.5069 10.1099 55.9066 10.1099ZM56.6954 14.027C53.1884 14.027 50.8235 16.7679 50.8235 20.2931C50.8235 23.8172 53.1884 26.5599 56.6954 26.5599C60.2011 26.5599 62.566 23.8172 62.566 20.2931C62.566 16.7679 60.2011 14.027 56.6954 14.027Z" fill="#77C159"/>
<path d="M71.4707 10.5003H75.8055V13.986C76.5538 11.7536 78.761 10.3047 81.0082 10.3047C81.5586 10.3047 82.1122 10.3443 82.7031 10.4614V14.8866C81.9523 14.6514 81.3239 14.5343 80.5364 14.5343C78.0529 14.5343 75.8057 16.611 75.8057 20.5273V30.0823H72.8606C72.0939 30.0823 71.4709 29.4634 71.4709 28.7003V10.5003H71.4707Z" fill="#77C159"/>
<path d="M94.3914 30.4748C88.56 30.4748 84.0664 25.97 84.0664 20.2937C84.0664 14.6146 88.56 10.1094 94.3914 10.1094C100.225 10.1094 104.717 14.6135 104.717 20.2937C104.717 25.97 100.225 30.4748 94.3914 30.4748ZM94.3914 26.4816C97.8595 26.4816 100.304 23.7779 100.304 20.2937C100.304 16.8087 97.8593 14.105 94.3914 14.105C90.8846 14.105 88.4414 16.8087 88.4414 20.2937C88.4414 23.7779 90.8846 26.4816 94.3914 26.4816Z" fill="#77C159"/>
<path d="M110.397 6.23395C108.821 6.23395 107.48 4.94287 107.48 3.33526C107.48 1.76874 108.821 0.476562 110.397 0.476562C112.012 0.476562 113.274 1.76895 113.274 3.33526C113.274 4.94287 112.012 6.23395 110.397 6.23395ZM108.231 10.5018H112.565V30.0844H109.621C108.853 30.0844 108.231 29.4642 108.231 28.7024V10.5018Z" fill="#77C159"/>
<path d="M125.625 10.1099C128.463 10.1099 130.828 11.5594 131.932 13.1259V0.710938H136.267V30.0838H133.323C132.554 30.0838 131.932 29.4659 131.932 28.7018V27.4616C130.828 29.0268 128.463 30.4753 125.625 30.4753C120.228 30.4753 116.129 25.894 116.129 20.2931C116.129 14.6922 120.228 10.1099 125.625 10.1099ZM126.414 14.027C122.908 14.027 120.543 16.7679 120.543 20.2931C120.543 23.8172 122.908 26.5599 126.414 26.5599C129.922 26.5599 132.287 23.8172 132.287 20.2931C132.287 16.7679 129.922 14.027 126.414 14.027Z" fill="#77C159"/>
<path d="M143.804 12.9958H139.562V10.3973H143.804V4.92188H146.578V10.3973H152.364V12.9958H146.578V24.3786C146.578 26.7804 147.649 27.7254 149.867 27.7254C150.659 27.7254 151.73 27.5675 152.364 27.293V29.7736C151.451 30.1284 150.501 30.286 149.431 30.286C146.063 30.286 143.804 28.3547 143.804 24.6132V12.9958Z" fill="white" fill-opacity="0.8"/>
<path d="M174.914 10.3906L165.641 30.0832H163.462L154.188 10.3906H157.279L164.531 26.0261L171.784 10.3906H174.914Z" fill="white" fill-opacity="0.8"/>
</g>
<defs>
<clipPath id="clip0_1_16266">
<rect width="175" height="30" fill="white" transform="translate(0 0.5)"/>
</clipPath>
</defs>
</svg>
