<svg width="129" height="24" viewBox="0 0 129 24" fill="none" xmlns="http://www.w3.org/2000/svg">
<g clip-path="url(#clip0_1_29701)">
<path d="M7.64046 7.38281C9.7189 7.38281 11.4516 8.49608 12.2585 9.69917V7.68333H15.4331V22.7228H13.2771C12.7146 22.7228 12.2585 22.2483 12.2585 21.6614V20.7089C11.4516 21.911 9.7189 23.0235 7.64046 23.0235C3.68769 23.0235 0.685059 19.505 0.685059 15.2036C0.685059 10.9021 3.68769 7.38281 7.64046 7.38281ZM8.21798 10.3912C5.64886 10.3912 3.91693 12.4962 3.91693 15.2036C3.91693 17.9101 5.64886 20.0164 8.21798 20.0164C10.7863 20.0164 12.519 17.9101 12.519 15.2036C12.519 12.4962 10.7865 10.3912 8.21798 10.3912Z" fill="#77C159"/>
<path d="M19.0386 7.68333H22.2139V9.72855C23.079 8.22511 24.7249 7.38281 26.601 7.38281C29.9484 7.38281 32.1136 9.84926 32.1136 13.6696V22.7223H29.9569C29.3945 22.7223 28.9383 22.247 28.9383 21.6609V14.211C28.9383 11.835 27.7833 10.3912 25.9374 10.3912C23.8303 10.3912 22.2141 12.1057 22.2141 15.3234V22.7223H20.0563C19.4948 22.7223 19.0386 22.247 19.0386 21.6609V7.68333Z" fill="#77C159"/>
<path d="M41.5786 7.37462C43.6562 7.37462 45.389 8.48788 46.1967 9.69097V0.15625H49.3704V22.7146H47.2145C46.653 22.7146 46.1967 22.2401 46.1967 21.6532V20.7008C45.389 21.9028 43.6562 23.0153 41.5786 23.0153C37.6241 23.0153 34.6226 19.4968 34.6226 15.1954C34.6226 10.8939 37.6242 7.37462 41.5786 7.37462ZM42.1563 10.383C39.588 10.383 37.856 12.488 37.856 15.1954C37.856 17.9019 39.588 20.0082 42.1563 20.0082C44.7237 20.0082 46.4556 17.9019 46.4556 15.1954C46.4556 12.488 44.7237 10.383 42.1563 10.383Z" fill="#77C159"/>
<path d="M52.978 7.6737H56.1525V10.3507C56.7006 8.6362 58.317 7.52344 59.9627 7.52344C60.3658 7.52344 60.7713 7.55382 61.204 7.64381V11.0424C60.6542 10.8617 60.1939 10.7717 59.6172 10.7717C57.7984 10.7717 56.1527 12.3667 56.1527 15.3744V22.7126H53.9959C53.4344 22.7126 52.9782 22.2373 52.9782 21.6513V7.6737H52.978Z" fill="#77C159"/>
<path d="M69.766 23.0235C65.4954 23.0235 62.2046 19.5638 62.2046 15.2044C62.2046 10.8428 65.4954 7.38281 69.766 7.38281C74.0384 7.38281 77.3276 10.842 77.3276 15.2044C77.3276 19.5638 74.0384 23.0235 69.766 23.0235ZM69.766 19.9566C72.3058 19.9566 74.0958 17.8802 74.0958 15.2044C74.0958 12.5279 72.3057 10.4515 69.766 10.4515C67.1979 10.4515 65.4086 12.5279 65.4086 15.2044C65.4086 17.8802 67.1979 19.9566 69.766 19.9566Z" fill="#77C159"/>
<path d="M81.4869 4.39824C80.3326 4.39824 79.3511 3.40668 79.3511 2.17204C79.3511 0.968952 80.3326 -0.0234375 81.4869 -0.0234375C82.6698 -0.0234375 83.5938 0.969119 83.5938 2.17204C83.5938 3.40668 82.6698 4.39824 81.4869 4.39824ZM79.9007 7.67593H83.0744V22.7154H80.9185C80.356 22.7154 79.9007 22.239 79.9007 21.654V7.67593Z" fill="#77C159"/>
<path d="M92.6356 7.37462C94.714 7.37462 96.4459 8.48788 97.2545 9.69097V0.15625H100.429V22.7146H98.273C97.7096 22.7146 97.2545 22.2401 97.2545 21.6532V20.7008C96.4459 21.9028 94.714 23.0153 92.6356 23.0153C88.6828 23.0153 85.6812 19.4968 85.6812 15.1954C85.6812 10.8939 88.6828 7.37462 92.6356 7.37462ZM93.2133 10.383C90.6459 10.383 88.914 12.488 88.914 15.1954C88.914 17.9019 90.6459 20.0082 93.2133 20.0082C95.7824 20.0082 97.5143 17.9019 97.5143 15.1954C97.5141 12.488 95.7824 10.383 93.2133 10.383Z" fill="#77C159"/>
<path d="M105.951 9.59139H102.845V7.59576H105.951V3.39062H107.983V7.59576H112.22V9.59139H107.983V18.3334C107.983 20.1779 108.767 20.9037 110.392 20.9037C110.972 20.9037 111.756 20.7825 112.22 20.5716V22.4768C111.552 22.7492 110.856 22.8703 110.072 22.8703C107.606 22.8703 105.951 21.387 105.951 18.5135V9.59139Z" fill="white" fill-opacity="0.8"/>
<path d="M128.735 7.58594L121.944 22.7099H120.348L113.556 7.58594H115.82L121.131 19.594L126.442 7.58594H128.735Z" fill="white" fill-opacity="0.8"/>
</g>
<defs>
<clipPath id="clip0_1_29701">
<rect width="128.16" height="23.04" fill="white" transform="translate(0.638184)"/>
</clipPath>
</defs>
</svg>
