<svg width="78" height="30" viewBox="0 0 78 30" fill="none" xmlns="http://www.w3.org/2000/svg">
<g opacity="0.8" clip-path="url(#clip0_1_11721)">
<path d="M36.6006 28.9695H34.3105V15.229H36.6006V28.9695ZM35.4555 12.9389C34.654 12.9389 33.967 12.2519 33.967 11.4504C33.967 10.6489 34.654 9.96183 35.4555 9.96183C36.257 9.96183 36.9441 10.6489 36.9441 11.4504C36.9441 12.2519 36.257 12.9389 35.4555 12.9389ZM49.3105 29.313C43.2418 29.313 39.3487 24.9618 39.3487 18.0916C39.3487 11.2214 43.2418 6.87023 49.3105 6.87023C55.3792 6.87023 59.2723 11.2214 59.2723 18.0916C59.2723 24.9618 55.3792 29.313 49.3105 29.313ZM57.0967 18.0916C57.0967 12.3664 54.1196 8.70229 49.3105 8.70229C44.5013 8.70229 41.5242 12.3664 41.5242 18.0916C41.5242 23.8168 44.5013 27.3664 49.3105 27.3664C54.1196 27.3664 57.0967 23.8168 57.0967 18.0916ZM69.3486 29.313C64.7685 29.313 61.5624 26.7939 61.3334 23.0153H63.3944C63.6235 25.6489 66.028 27.3664 69.4632 27.3664C72.7838 27.3664 75.0738 25.5344 75.0738 23.1298C75.0738 21.0687 73.6998 19.9237 70.3792 19.1221L67.6311 18.4351C63.6235 17.4046 61.7914 15.687 61.7914 12.8244C61.7914 9.27481 64.9975 6.75572 69.2341 6.75572C73.4708 6.75572 76.5624 9.27481 76.6769 12.7099H74.8448C74.7303 10.3053 72.5547 8.70229 69.4632 8.70229C66.4861 8.70229 64.196 10.4198 64.196 12.8244C64.196 14.6565 65.57 15.8015 68.7761 16.6031L71.1807 17.1756C75.5319 18.3206 77.3639 19.9237 77.3639 23.0153C77.2494 26.7939 74.2723 29.313 69.3486 29.313ZM25.1502 23.3588C24.6922 24.3893 24.1196 25.4198 23.5471 26.2214C22.7456 27.4809 22.0586 28.2824 21.4861 28.7405C20.6845 29.542 19.7685 29.8855 18.8525 29.8855C18.1654 29.8855 17.3639 29.6565 16.3334 29.313C15.4174 28.9695 14.5013 28.7405 13.6998 28.7405C12.8983 28.7405 11.9822 28.9695 10.9517 29.313C10.0357 29.6565 9.23415 29.8855 8.54713 29.8855C7.6311 29.8855 6.71507 29.542 5.79904 28.626C5.22652 28.1679 4.53949 27.2519 3.62346 25.9924C2.70743 24.7328 1.90591 23.1298 1.33339 21.4122C0.76087 19.6947 0.417358 17.8626 0.417358 16.145C0.417358 14.084 0.875374 12.3664 1.6769 10.9924C2.36392 9.84733 3.27995 8.9313 4.42499 8.24427C5.57003 7.55725 6.82957 7.21374 8.08911 7.21374C8.77614 7.21374 9.80667 7.44275 10.9517 7.90076C12.0967 8.35878 12.8983 8.58779 13.2418 8.58779C13.4708 8.58779 14.2723 8.35878 15.7609 7.78626C17.1349 7.32824 18.28 7.09924 19.196 7.21374C21.7151 7.44275 23.6616 8.35878 24.9212 10.1908C22.6311 11.5649 21.6006 13.5114 21.6006 15.916C21.6006 17.8626 22.2876 19.4656 23.6616 20.7252C24.2341 21.2977 24.9212 21.7557 25.7227 22.0992C25.4937 22.4427 25.2647 22.9008 25.1502 23.3588ZM19.3105 0.572519C19.3105 2.06107 18.738 3.43511 17.7074 4.80916C16.4479 6.29771 14.8448 7.21374 13.1273 7.09924C13.1273 6.87023 13.1273 6.75572 13.1273 6.52672C13.1273 5.03817 13.6998 3.54962 14.8448 2.29008C15.4174 1.60305 16.1044 1.14504 16.9059 0.687023C17.7074 0.229008 18.509 0 19.3105 0C19.3105 0.229008 19.3105 0.343511 19.3105 0.572519Z" fill="white"/>
</g>
<defs>
<clipPath id="clip0_1_11721">
<rect width="76.8321" height="30" fill="white" transform="translate(0.417358)"/>
</clipPath>
</defs>
</svg>
