<svg width="49" height="20" viewBox="0 0 49 20" fill="none" xmlns="http://www.w3.org/2000/svg">
<g clip-path="url(#clip0_1_29697)">
<path d="M23.5062 18.5405H22.0755V9.74656H23.5062V18.5405ZM22.7908 8.28092C22.2901 8.28092 21.8609 7.84122 21.8609 7.32824C21.8609 6.81527 22.2901 6.37557 22.7908 6.37557C23.2916 6.37557 23.7208 6.81527 23.7208 7.32824C23.7208 7.84122 23.2916 8.28092 22.7908 8.28092ZM31.4466 18.7603C27.6552 18.7603 25.223 15.9756 25.223 11.5786C25.223 7.18168 27.6552 4.39695 31.4466 4.39695C35.2379 4.39695 37.6701 7.18168 37.6701 11.5786C37.6701 15.9756 35.2379 18.7603 31.4466 18.7603ZM36.311 11.5786C36.311 7.9145 34.451 5.56946 31.4466 5.56946C28.4421 5.56946 26.5822 7.9145 26.5822 11.5786C26.5822 15.2427 28.4421 17.5145 31.4466 17.5145C34.451 17.5145 36.311 15.2427 36.311 11.5786ZM43.9652 18.7603C41.1038 18.7603 39.1008 17.1481 38.9578 14.7298H40.2454C40.3885 16.4153 41.8907 17.5145 44.0367 17.5145C46.1113 17.5145 47.542 16.342 47.542 14.8031C47.542 13.484 46.6835 12.7511 44.609 12.2382L42.8922 11.7985C40.3885 11.1389 39.2439 10.0397 39.2439 8.20763C39.2439 5.93588 41.2469 4.32366 43.8937 4.32366C46.5405 4.32366 48.4719 5.93588 48.5434 8.13435H47.3989C47.3273 6.59542 45.9682 5.56946 44.0367 5.56946C42.1768 5.56946 40.7461 6.6687 40.7461 8.20763C40.7461 9.38015 41.6045 10.113 43.6075 10.626L45.1098 10.9924C47.8281 11.7252 48.9727 12.7511 48.9727 14.7298C48.9011 17.1481 47.0412 18.7603 43.9652 18.7603ZM16.3527 14.9496C16.0665 15.6092 15.7089 16.2687 15.3512 16.7817C14.8505 17.5878 14.4212 18.1008 14.0636 18.3939C13.5628 18.9069 12.9905 19.1267 12.4183 19.1267C11.9891 19.1267 11.4883 18.9802 10.8445 18.7603C10.2722 18.5405 9.69993 18.3939 9.19919 18.3939C8.69844 18.3939 8.12616 18.5405 7.48234 18.7603C6.91006 18.9802 6.40932 19.1267 5.98011 19.1267C5.40783 19.1267 4.83555 18.9069 4.26327 18.3206C3.90559 18.0275 3.47638 17.4412 2.9041 16.6351C2.33182 15.829 1.83108 14.8031 1.4734 13.7038C1.11573 12.6046 0.901123 11.4321 0.901123 10.3328C0.901123 9.01374 1.18726 7.9145 1.68801 7.03511C2.11722 6.30229 2.6895 5.71603 3.40485 5.27634C4.1202 4.83664 4.90708 4.61679 5.69397 4.61679C6.12318 4.61679 6.76699 4.76336 7.48234 5.05649C8.19769 5.34962 8.69844 5.49618 8.91304 5.49618C9.05611 5.49618 9.55686 5.34962 10.4868 4.98321C11.3452 4.69008 12.0606 4.54351 12.6329 4.61679C14.2066 4.76336 15.4227 5.34962 16.2096 6.52214C14.7789 7.40153 14.1351 8.64733 14.1351 10.1863C14.1351 11.4321 14.5643 12.458 15.4227 13.2641C15.7804 13.6305 16.2096 13.9237 16.7104 14.1435C16.5673 14.3634 16.4242 14.6565 16.3527 14.9496ZM12.7044 0.366412C12.7044 1.31908 12.3467 2.19847 11.7029 3.07786C10.916 4.03053 9.91454 4.61679 8.84151 4.54351C8.84151 4.39695 8.84151 4.32366 8.84151 4.1771C8.84151 3.22443 9.19919 2.27176 9.91454 1.46565C10.2722 1.02595 10.7014 0.732824 11.2022 0.439695C11.7029 0.146565 12.2037 0 12.7044 0C12.7044 0.146565 12.7044 0.219847 12.7044 0.366412Z" fill="white" fill-opacity="0.8"/>
</g>
<defs>
<clipPath id="clip0_1_29697">
<rect width="48" height="19.2" fill="white" transform="translate(0.901123)"/>
</clipPath>
</defs>
</svg>
