<svg width="66" height="25" viewBox="0 0 66 25" fill="none" xmlns="http://www.w3.org/2000/svg">
<g clip-path="url(#clip0_1_25262)">
<path d="M31.3506 23.6897H29.4025V12.4638H31.3506V23.6897ZM30.3766 10.5928C29.6947 10.5928 29.1103 10.0315 29.1103 9.37663C29.1103 8.72178 29.6947 8.16048 30.3766 8.16048C31.0584 8.16048 31.6429 8.72178 31.6429 9.37663C31.6429 10.0315 31.0584 10.5928 30.3766 10.5928ZM42.1628 23.9704C37.0002 23.9704 33.6884 20.4155 33.6884 14.8025C33.6884 9.18953 37.0002 5.63464 42.1628 5.63464C47.3254 5.63464 50.6372 9.18953 50.6372 14.8025C50.6372 20.4155 47.3254 23.9704 42.1628 23.9704ZM48.7865 14.8025C48.7865 10.125 46.2539 7.13144 42.1628 7.13144C38.0717 7.13144 35.5391 10.125 35.5391 14.8025C35.5391 19.48 38.0717 22.38 42.1628 22.38C46.2539 22.38 48.7865 19.48 48.7865 14.8025ZM59.209 23.9704C55.3127 23.9704 52.5853 21.9123 52.3905 18.8251H54.1438C54.3387 20.9768 56.3842 22.38 59.3064 22.38C62.1312 22.38 64.0793 20.8832 64.0793 18.9187C64.0793 17.2348 62.9105 16.2993 60.0857 15.6445L57.7479 15.0832C54.3387 14.2412 52.7801 12.838 52.7801 10.4992C52.7801 7.59919 55.5075 5.54109 59.1116 5.54109C62.7156 5.54109 65.3456 7.59919 65.443 10.4057H63.8845C63.7871 8.44113 61.9364 7.13144 59.3064 7.13144C56.7738 7.13144 54.8257 8.53468 54.8257 10.4992C54.8257 11.996 55.9946 12.9315 58.722 13.5864L60.7675 14.0541C64.469 14.9896 66.0275 16.2993 66.0275 18.8251C65.9301 21.9123 63.3975 23.9704 59.209 23.9704ZM21.61 19.1058C21.2203 19.9477 20.7333 20.7897 20.2463 21.4445C19.5644 22.4736 18.98 23.1284 18.4929 23.5026C17.8111 24.1575 17.0318 24.4381 16.2526 24.4381C15.6681 24.4381 14.9863 24.251 14.1096 23.9704C13.3304 23.6897 12.5511 23.5026 11.8693 23.5026C11.1874 23.5026 10.4082 23.6897 9.5315 23.9704C8.75224 24.251 8.0704 24.4381 7.48596 24.4381C6.7067 24.4381 5.92745 24.1575 5.14819 23.4091C4.66116 23.0349 4.07672 22.2865 3.29746 21.2574C2.51821 20.2284 1.83636 18.9187 1.34932 17.5154C0.862289 16.1122 0.570068 14.6154 0.570068 13.2122C0.570068 11.5283 0.959696 10.125 1.64154 9.00243C2.22599 8.06693 3.00524 7.31854 3.97931 6.75724C4.95338 6.19594 6.02485 5.91529 7.09633 5.91529C7.68077 5.91529 8.55743 6.10239 9.5315 6.47659C10.5056 6.85079 11.1874 7.03789 11.4796 7.03789C11.6744 7.03789 12.3563 6.85079 13.6226 6.38304C14.7915 6.00884 15.7655 5.82174 16.5448 5.91529C18.6877 6.10239 20.3437 6.85079 21.4151 8.34758C19.467 9.47018 18.5903 11.0605 18.5903 13.0251C18.5903 14.6154 19.1748 15.9251 20.3437 16.9541C20.8307 17.4219 21.4151 17.7961 22.097 18.0767C21.9022 18.3574 21.7074 18.7316 21.61 19.1058ZM16.6422 0.489416C16.6422 1.70556 16.1552 2.82816 15.2785 3.95075C14.207 5.1669 12.8433 5.91529 11.3822 5.82174C11.3822 5.63464 11.3822 5.54109 11.3822 5.35399C11.3822 4.13785 11.8693 2.92171 12.8433 1.89266C13.3304 1.33136 13.9148 0.957164 14.5967 0.582965C15.2785 0.208767 15.9604 0.0216675 16.6422 0.0216675C16.6422 0.208767 16.6422 0.302316 16.6422 0.489416Z" fill="white" fill-opacity="0.8"/>
</g>
<defs>
<clipPath id="clip0_1_25262">
<rect width="65.36" height="24.51" fill="white" transform="translate(0.570068 0.0216675)"/>
</clipPath>
</defs>
</svg>
