<svg width="77" height="31" viewBox="0 0 77 31" fill="none" xmlns="http://www.w3.org/2000/svg">
<g clip-path="url(#clip0_1_16263)">
<path d="M36.2672 29.4695H33.9771V15.729H36.2672V29.4695ZM35.1221 13.4389C34.3206 13.4389 33.6336 12.7519 33.6336 11.9504C33.6336 11.1489 34.3206 10.4618 35.1221 10.4618C35.9237 10.4618 36.6107 11.1489 36.6107 11.9504C36.6107 12.7519 35.9237 13.4389 35.1221 13.4389ZM48.9771 29.813C42.9084 29.813 39.0153 25.4618 39.0153 18.5916C39.0153 11.7214 42.9084 7.37023 48.9771 7.37023C55.0458 7.37023 58.9389 11.7214 58.9389 18.5916C58.9389 25.4618 55.0458 29.813 48.9771 29.813ZM56.7634 18.5916C56.7634 12.8664 53.7863 9.20229 48.9771 9.20229C44.1679 9.20229 41.1908 12.8664 41.1908 18.5916C41.1908 24.3168 44.1679 27.8664 48.9771 27.8664C53.7863 27.8664 56.7634 24.3168 56.7634 18.5916ZM69.0153 29.813C64.4351 29.813 61.229 27.2939 61 23.5153H63.0611C63.2901 26.1489 65.6947 27.8664 69.1298 27.8664C72.4504 27.8664 74.7405 26.0344 74.7405 23.6298C74.7405 21.5687 73.3664 20.4237 70.0458 19.6221L67.2977 18.9351C63.2901 17.9046 61.458 16.187 61.458 13.3244C61.458 9.77481 64.6641 7.25572 68.9008 7.25572C73.1374 7.25572 76.229 9.77481 76.3435 13.2099H74.5115C74.3969 10.8053 72.2214 9.20229 69.1298 9.20229C66.1527 9.20229 63.8626 10.9198 63.8626 13.3244C63.8626 15.1565 65.2366 16.3015 68.4428 17.1031L70.8473 17.6756C75.1985 18.8206 77.0305 20.4237 77.0305 23.5153C76.916 27.2939 73.9389 29.813 69.0153 29.813ZM24.8168 23.8588C24.3588 24.8893 23.7863 25.9198 23.2138 26.7214C22.4122 27.9809 21.7252 28.7824 21.1527 29.2405C20.3512 30.042 19.4351 30.3855 18.5191 30.3855C17.8321 30.3855 17.0305 30.1565 16 29.813C15.084 29.4695 14.168 29.2405 13.3664 29.2405C12.5649 29.2405 11.6489 29.4695 10.6183 29.813C9.7023 30.1565 8.90078 30.3855 8.21375 30.3855C7.29772 30.3855 6.38169 30.042 5.46566 29.126C4.89314 28.6679 4.20612 27.7519 3.29009 26.4924C2.37406 25.2328 1.57253 23.6298 1.00001 21.9122C0.427496 20.1947 0.0839844 18.3626 0.0839844 16.645C0.0839844 14.584 0.542 12.8664 1.34353 11.4924C2.03055 10.3473 2.94658 9.4313 4.09162 8.74427C5.23666 8.05725 6.4962 7.71374 7.75574 7.71374C8.44276 7.71374 9.4733 7.94275 10.6183 8.40076C11.7634 8.85878 12.5649 9.08779 12.9084 9.08779C13.1374 9.08779 13.9389 8.85878 15.4275 8.28626C16.8015 7.82824 17.9466 7.59924 18.8626 7.71374C21.3817 7.94275 23.3283 8.85878 24.5878 10.6908C22.2977 12.0649 21.2672 14.0114 21.2672 16.416C21.2672 18.3626 21.9542 19.9656 23.3283 21.2252C23.9008 21.7977 24.5878 22.2557 25.3893 22.5992C25.1603 22.9427 24.9313 23.4008 24.8168 23.8588ZM18.9771 1.07252C18.9771 2.56107 18.4046 3.93511 17.3741 5.30916C16.1145 6.79771 14.5115 7.71374 12.7939 7.59924C12.7939 7.37023 12.7939 7.25572 12.7939 7.02672C12.7939 5.53817 13.3664 4.04962 14.5115 2.79008C15.084 2.10305 15.771 1.64504 16.5725 1.18702C17.3741 0.729008 18.1756 0.5 18.9771 0.5C18.9771 0.729008 18.9771 0.843511 18.9771 1.07252Z" fill="white" fill-opacity="0.8"/>
</g>
<defs>
<clipPath id="clip0_1_16263">
<rect width="76.8321" height="30" fill="white" transform="translate(0.0839844 0.5)"/>
</clipPath>
</defs>
</svg>
