<svg width="59" height="22" viewBox="0 0 59 22" fill="none" xmlns="http://www.w3.org/2000/svg">
<g clip-path="url(#clip0_1_20811)">
<path d="M27.6477 21.2443H25.9189V11.1679H27.6477V21.2443ZM26.7833 9.48855C26.1783 9.48855 25.6596 8.98473 25.6596 8.39695C25.6596 7.80916 26.1783 7.30534 26.7833 7.30534C27.3884 7.30534 27.907 7.80916 27.907 8.39695C27.907 8.98473 27.3884 9.48855 26.7833 9.48855ZM37.2423 21.4962C32.6611 21.4962 29.7222 18.3053 29.7222 13.2672C29.7222 8.22901 32.6611 5.03817 37.2423 5.03817C41.8236 5.03817 44.7625 8.22901 44.7625 13.2672C44.7625 18.3053 41.8236 21.4962 37.2423 21.4962ZM43.1201 13.2672C43.1201 9.0687 40.8727 6.38168 37.2423 6.38168C33.6119 6.38168 31.3645 9.0687 31.3645 13.2672C31.3645 17.4656 33.6119 20.0687 37.2423 20.0687C40.8727 20.0687 43.1201 17.4656 43.1201 13.2672ZM52.369 21.4962C48.9115 21.4962 46.4912 19.6489 46.3183 16.8779H47.8742C48.0471 18.8092 49.8623 20.0687 52.4555 20.0687C54.9622 20.0687 56.6909 18.7252 56.6909 16.9618C56.6909 15.4504 55.6537 14.6107 53.147 14.0229L51.0724 13.5191C48.0471 12.7634 46.6641 11.5038 46.6641 9.40458C46.6641 6.80153 49.0844 4.9542 52.2826 4.9542C55.4808 4.9542 57.8146 6.80153 57.9011 9.32061H56.518C56.4316 7.55725 54.7893 6.38168 52.4555 6.38168C50.2081 6.38168 48.4793 7.64122 48.4793 9.40458C48.4793 10.7481 49.5166 11.5878 51.9368 12.1756L53.752 12.5954C57.0367 13.4351 58.4197 14.6107 58.4197 16.8779C58.3332 19.6489 56.0859 21.4962 52.369 21.4962ZM19.0039 17.1298C18.6581 17.8855 18.226 18.6412 17.7938 19.229C17.1887 20.1527 16.6701 20.7405 16.2379 21.0763C15.6328 21.6641 14.9413 21.916 14.2498 21.916C13.7312 21.916 13.1261 21.7481 12.3482 21.4962C11.6566 21.2443 10.9651 21.0763 10.3601 21.0763C9.75501 21.0763 9.06351 21.2443 8.28556 21.4962C7.59406 21.7481 6.98899 21.916 6.47036 21.916C5.77886 21.916 5.08735 21.6641 4.39584 20.9924C3.96365 20.6565 3.44503 19.9847 2.75352 19.0611C2.06201 18.1374 1.45695 16.9618 1.02476 15.7023C0.592566 14.4427 0.333252 13.0992 0.333252 11.8397C0.333252 10.3282 0.679005 9.0687 1.28407 8.06107C1.8027 7.22137 2.49421 6.54962 3.35859 6.0458C4.22297 5.54198 5.17379 5.29008 6.12461 5.29008C6.64324 5.29008 7.42118 5.45802 8.28556 5.79389C9.14994 6.12977 9.75501 6.29771 10.0143 6.29771C10.1872 6.29771 10.7923 6.12977 11.916 5.70992C12.9532 5.37405 13.8176 5.20611 14.5091 5.29008C16.4107 5.45802 17.8802 6.12977 18.831 7.47328C17.1023 8.48092 16.3243 9.9084 16.3243 11.6718C16.3243 13.0992 16.8429 14.2748 17.8802 15.1985C18.3124 15.6183 18.831 15.9542 19.4361 16.2061C19.2632 16.458 19.0903 16.7939 19.0039 17.1298ZM14.5955 0.419847C14.5955 1.51145 14.1634 2.51908 13.3854 3.52672C12.4346 4.61832 11.2245 5.29008 9.92789 5.20611C9.92789 5.03817 9.92789 4.9542 9.92789 4.78626C9.92789 3.69466 10.3601 2.60305 11.2245 1.67939C11.6566 1.17557 12.1753 0.839695 12.7803 0.503817C13.3854 0.167939 13.9905 0 14.5955 0C14.5955 0.167939 14.5955 0.251908 14.5955 0.419847Z" fill="white" fill-opacity="0.8"/>
</g>
<defs>
<clipPath id="clip0_1_20811">
<rect width="58" height="22" fill="white" transform="translate(0.333252)"/>
</clipPath>
</defs>
</svg>
