<svg width="149" height="19" viewBox="0 0 149 19" fill="none" xmlns="http://www.w3.org/2000/svg">
<path d="M89.9668 11.1894L93.9297 18.2304H96.5208L92.5579 11.0513L89.9668 11.1894Z" fill="white" fill-opacity="0.8"/>
<path d="M97.7441 3.88249H103.536V18.2407H105.975V3.88249H111.767V2.36383H97.7441V3.88249Z" fill="white" fill-opacity="0.8"/>
<path d="M42.7196 18.5065C46.3777 18.5065 48.6639 16.9878 48.8163 14.6408C48.9688 12.2938 47.597 11.0512 43.7865 9.67063C40.5858 8.56615 39.5188 7.59973 39.5188 6.21913C39.5188 4.70047 41.043 3.73405 43.3293 3.73405C45.1583 3.73405 46.6825 4.01017 47.597 4.42435L48.3591 3.04375C46.9873 2.49151 45.1583 2.21539 42.872 2.21539C39.214 2.21539 37.0802 4.01017 37.0802 6.35719C37.0802 8.70421 38.6043 9.94675 42.1099 11.1893C45.3107 12.2938 46.2252 12.9841 46.2252 14.5027C46.2252 16.0214 44.7011 17.1259 41.9575 16.9878C40.5858 16.9878 38.7568 16.4356 37.6898 15.8833L36.9277 17.2639C37.8422 17.6781 39.6713 18.5065 42.7196 18.5065Z" fill="white" fill-opacity="0.8"/>
<path d="M68.6315 2.49664H64.8211L59.9437 16.7168L55.0663 2.49664H51.2559V18.2355H53.0849V3.73918L58.1147 18.2355H61.3155L66.1929 3.73918V18.2355H66.4977L68.6315 12.8511V2.49664Z" fill="white" fill-opacity="0.8"/>
<path d="M94.8451 3.4605C93.7782 2.7702 92.254 2.35602 90.2726 2.35602H84.0234V12.0202L86.4621 17.9568V3.87468H90.1202C93.0161 3.87468 93.9306 5.11722 93.9306 6.912C93.9306 8.84484 93.0161 10.2254 89.6629 10.2254H87.2242V11.606H91.1871C94.3879 11.606 96.2169 9.39708 96.2169 7.05006C96.3693 5.39334 95.7596 4.1508 94.8451 3.4605Z" fill="white" fill-opacity="0.8"/>
<path d="M148.5 2.49664H145.909L140.727 15.8885L135.392 2.49664H132.648L138.898 18.2355H142.251L148.5 2.49664Z" fill="white" fill-opacity="0.8"/>
<path d="M116.34 3.73918H122.284V18.2355H125.485V3.73918H131.429V2.49664H116.34V3.73918Z" fill="white" fill-opacity="0.8"/>
<path d="M21.8362 12.1557H25.1894V14.9169C24.5797 15.193 23.3604 15.4692 22.141 15.4692C18.483 15.4692 17.2637 13.8124 17.2637 10.3609C17.2637 7.04749 18.483 5.25271 22.141 5.25271C24.1225 5.25271 25.3418 5.80495 26.2563 6.90943L28.695 4.83853C27.1708 2.90569 24.4273 2.21539 21.9886 2.21539C16.3491 2.21539 13.3008 4.97659 13.3008 10.3609C13.3008 15.7453 16.0443 18.5065 21.9886 18.5065C24.7322 18.5065 27.3233 17.8162 28.8474 16.9878V9.25645H21.8362V12.1557Z" fill="white" fill-opacity="0.8"/>
<path d="M4.46287 2.34821H0.5V18.2251H12.8459V15.1878H4.46287V2.34821Z" fill="white" fill-opacity="0.8"/>
<path d="M78.538 8.01707L80.8243 6.77453L78.2332 0.285706L76.709 3.46109L78.538 8.01707Z" fill="#1999D6"/>
<path d="M80.8234 6.77789L78.5371 8.02043L79.604 10.3675L82.9573 12.1622L80.8234 6.77789Z" fill="#30BEC2"/>
<path d="M76.8594 12.2935L78.2311 13.2599L76.8594 14.0883L83.1085 18.6443L82.0416 16.0211L76.8594 12.2935Z" fill="#97C742"/>
<path d="M76.8569 12.2935L71.065 16.1592L69.998 18.6443L76.8569 14.0883L75.4851 13.2599L76.8569 12.2935Z" fill="#F68524"/>
<path d="M76.8581 12.2935L75.4863 13.2599L76.8581 14.0883L78.2299 13.2599L76.8581 12.2935Z" fill="#9D7230"/>
<path d="M82.9548 12.1586L79.6016 10.3638L82.0403 16.0243L85.5459 18.6474L82.9548 12.1586Z" fill="#71C596"/>
<path d="M82.0449 16.0279L83.1119 18.651H85.5506L82.0449 16.0279Z" fill="#38B24B"/>
<path d="M73.5069 10.9185L69.8488 12.9894L67.4102 18.6499L71.0682 16.1648L73.5069 10.9185Z" fill="#F15C2A"/>
<path d="M67.4102 18.6458H70.0013L71.0682 16.1607L67.4102 18.6458Z" fill="#EF3B25"/>
<path d="M76.707 3.46109L75.3352 0.285706L72.7441 6.4984L74.878 7.60289L76.707 3.46109Z" fill="#6E449B"/>
<path d="M72.7456 6.49664L69.8496 12.9855L73.5077 10.9146L74.8794 7.60112L72.7456 6.49664Z" fill="#ED174F"/>
<path d="M78.2319 0.285706H75.3359L76.7077 3.46109L78.2319 0.285706Z" fill="#3C2E46"/>
</svg>
