<svg width="108" height="16" viewBox="0 0 108 16" fill="none" xmlns="http://www.w3.org/2000/svg">
<path d="M65.3623 9.29026L68.222 14.7709H70.0918L67.2321 9.1828L65.3623 9.29026Z" fill="white" fill-opacity="0.8"/>
<path d="M70.9736 3.59927H75.1532V14.7754H76.913V3.59927H81.0925V2.41718H70.9736V3.59927Z" fill="white" fill-opacity="0.8"/>
<path d="M31.2665 14.9884C33.9062 14.9884 35.556 13.8063 35.666 11.9795C35.776 10.1526 34.7861 9.18543 32.0364 8.1108C29.7266 7.25109 28.9567 6.49885 28.9567 5.42423C28.9567 4.24213 30.0566 3.48989 31.7064 3.48989C33.0263 3.48989 34.1262 3.70482 34.7861 4.02721L35.336 2.95258C34.3461 2.52273 33.0263 2.3078 31.3765 2.3078C28.7367 2.3078 27.1969 3.70482 27.1969 5.53169C27.1969 7.35856 28.2968 8.32572 30.8265 9.29289C33.1363 10.1526 33.7962 10.6899 33.7962 11.872C33.7962 13.0541 32.6963 13.9138 30.7165 13.8063C29.7266 13.8063 28.4068 13.3765 27.6369 12.9466L27.0869 14.0213C27.7468 14.3436 29.0667 14.9884 31.2665 14.9884Z" fill="white" fill-opacity="0.8"/>
<path d="M49.9674 2.52655H47.2177L43.698 13.5952L40.1784 2.52655H37.4287V14.7773H38.7486V3.49372L42.3782 14.7773H44.6879L48.2076 3.49372V14.7773H48.4275L49.9674 10.5863V2.52655Z" fill="white" fill-opacity="0.8"/>
<path d="M68.8844 3.27688C68.1145 2.73956 67.0146 2.41718 65.5847 2.41718H61.0752V9.93958L62.835 14.5605V3.59927H65.4747C67.5645 3.59927 68.2244 4.56643 68.2244 5.96345C68.2244 7.46793 67.5645 8.54256 65.1448 8.54256H63.385V9.61719H66.2447C68.5544 9.61719 69.8743 7.89778 69.8743 6.07091C69.9843 4.78136 69.5443 3.81419 68.8844 3.27688Z" fill="white" fill-opacity="0.8"/>
<path d="M107.602 2.51874H105.732L101.992 12.9426L98.1429 2.51874H96.1631L100.673 14.7695H103.092L107.602 2.51874Z" fill="white" fill-opacity="0.8"/>
<path d="M84.3936 3.4859H88.6831V14.7695H90.9928V3.4859H95.2824V2.51874H84.3936V3.4859Z" fill="white" fill-opacity="0.8"/>
<path d="M16.1994 10.0529H18.6191V12.2022C18.1792 12.4171 17.2993 12.6321 16.4194 12.6321C13.7796 12.6321 12.8997 11.3425 12.8997 8.65593C12.8997 6.07681 13.7796 4.6798 16.4194 4.6798C17.8492 4.6798 18.7291 5.10965 19.389 5.96935L21.1489 4.35741C20.049 2.85293 18.0692 2.31561 16.3094 2.31561C12.2398 2.31561 10.04 4.46487 10.04 8.65593C10.04 12.847 12.0198 14.9962 16.3094 14.9962C18.2892 14.9962 20.159 14.4589 21.2588 13.8141V7.79622H16.1994V10.0529Z" fill="white" fill-opacity="0.8"/>
<path d="M3.66145 2.41718H0.801758V14.7754H9.71081V12.4112H3.66145V2.41718Z" fill="white" fill-opacity="0.8"/>
<path d="M57.1118 6.82572L58.7617 5.85856L56.8919 0.8078L55.792 3.27945L57.1118 6.82572Z" fill="#1999D6"/>
<path d="M58.7621 5.85468L57.1123 6.82184L57.8822 8.64871L60.302 10.0457L58.7621 5.85468Z" fill="#30BEC2"/>
<path d="M55.9033 10.1594L56.8932 10.9116L55.9033 11.5564L60.4129 15.1027L59.6429 13.0609L55.9033 10.1594Z" fill="#97C742"/>
<path d="M55.9016 10.1594L51.7221 13.1683L50.9521 15.1027L55.9016 11.5564L54.9117 10.9116L55.9016 10.1594Z" fill="#F68524"/>
<path d="M55.901 10.1594L54.9111 10.9116L55.901 11.5564L56.8909 10.9116L55.901 10.1594Z" fill="#9D7230"/>
<path d="M60.3016 10.0564L57.8818 8.65936L59.6416 13.0653L62.1714 15.1071L60.3016 10.0564Z" fill="#71C596"/>
<path d="M59.6436 13.0578L60.4135 15.0996H62.1733L59.6436 13.0578Z" fill="#38B24B"/>
<path d="M53.4825 9.08124L50.8428 10.6932L49.083 15.0992L51.7227 13.1648L53.4825 9.08124Z" fill="#F15C2A"/>
<path d="M49.083 15.1015H50.9528L51.7227 13.1672L49.083 15.1015Z" fill="#EF3B25"/>
<path d="M55.7904 3.27945L54.8005 0.8078L52.9307 5.64363L54.4705 6.50333L55.7904 3.27945Z" fill="#6E449B"/>
<path d="M52.9326 5.64374L50.8428 10.6945L53.4825 9.08255L54.4724 6.50344L52.9326 5.64374Z" fill="#ED174F"/>
<path d="M56.8915 0.8078H54.8018L55.7917 3.27945L56.8915 0.8078Z" fill="#3C2E46"/>
</svg>
