<svg width="144" height="18" viewBox="0 0 144 18" fill="none" xmlns="http://www.w3.org/2000/svg">
<path d="M86.9453 10.6109L90.7743 17.4616H93.2779L89.4489 10.4766L86.9453 10.6109Z" fill="white" fill-opacity="0.8"/>
<path d="M94.4609 3.49324H100.057V17.4634H102.413V3.49324H108.01V2.01562H94.4609V3.49324Z" fill="white" fill-opacity="0.8"/>
<path d="M41.2915 17.7336C44.826 17.7336 47.035 16.256 47.1823 13.9724C47.3296 11.6888 46.0041 10.4798 42.3224 9.13656C39.2298 8.06193 38.1989 7.12163 38.1989 5.77834C38.1989 4.30073 39.6716 3.36043 41.8806 3.36043C43.6478 3.36043 45.1205 3.62908 46.0041 4.03207L46.7405 2.68878C45.4151 2.15147 43.6478 1.88281 41.4388 1.88281C37.9043 1.88281 35.8426 3.62908 35.8426 5.91267C35.8426 8.19626 37.3153 9.40522 40.7025 10.6142C43.7951 11.6888 44.6787 12.3604 44.6787 13.8381C44.6787 15.3157 43.206 16.3903 40.5552 16.256C39.2298 16.256 37.4625 15.7187 36.4317 15.1813L35.6953 16.5246C36.5789 16.9276 38.3462 17.7336 41.2915 17.7336Z" fill="white" fill-opacity="0.8"/>
<path d="M66.3316 2.14844H62.6499L57.9373 15.9843L53.2247 2.14844H49.543V17.4619H51.3102V3.3574L56.1701 17.4619H59.2627L63.9753 3.3574V17.4619H64.2699L66.3316 12.2231V2.14844Z" fill="white" fill-opacity="0.8"/>
<path d="M91.6592 3.09025C90.6283 2.41861 89.1557 2.01562 87.2412 2.01562H81.2031V11.4186L83.5594 17.1948V3.49324H87.0939C89.892 3.49324 90.7756 4.7022 90.7756 6.44847C90.7756 8.32907 89.892 9.67236 86.6521 9.67236H84.2958V11.0156H88.1248C91.2174 11.0156 92.9846 8.86638 92.9846 6.5828C93.1319 4.97085 92.5428 3.7619 91.6592 3.09025Z" fill="white" fill-opacity="0.8"/>
<path d="M143.5 2.14844H140.996L135.989 15.1783L130.834 2.14844H128.184L134.222 17.4619H137.462L143.5 2.14844Z" fill="white" fill-opacity="0.8"/>
<path d="M112.426 3.3574H118.169V17.4619H121.262V3.3574H127.005V2.14844H112.426V3.3574Z" fill="white" fill-opacity="0.8"/>
<path d="M21.1162 11.5545H24.3561V14.241C23.767 14.5097 22.5889 14.7784 21.4107 14.7784C17.8763 14.7784 16.6981 13.1664 16.6981 9.8082C16.6981 6.58431 17.8763 4.83804 21.4107 4.83804C23.3252 4.83804 24.5034 5.37536 25.387 6.44999L27.7433 4.43506C26.2706 2.55446 23.6198 1.88281 21.2635 1.88281C15.8145 1.88281 12.8691 4.56939 12.8691 9.8082C12.8691 15.047 15.52 17.7336 21.2635 17.7336C23.9143 17.7336 26.4179 17.0619 27.8906 16.256V8.73357H21.1162V11.5545Z" fill="white" fill-opacity="0.8"/>
<path d="M4.32899 2.01562H0.5V17.4634H12.4288V14.5082H4.32899V2.01562Z" fill="white" fill-opacity="0.8"/>
<path d="M75.9039 7.5224L78.113 6.31345L75.6094 0L74.1367 3.08956L75.9039 7.5224Z" fill="#1999D6"/>
<path d="M78.1094 6.3125L75.9004 7.52146L76.9313 9.80505L80.1712 11.5513L78.1094 6.3125Z" fill="#30BEC2"/>
<path d="M74.2812 11.6875L75.6067 12.6278L74.2812 13.4338L80.3193 17.8666L79.2884 15.3144L74.2812 11.6875Z" fill="#97C742"/>
<path d="M74.2794 11.6875L68.6832 15.4487L67.6523 17.8666L74.2794 13.4338L72.954 12.6278L74.2794 11.6875Z" fill="#F68524"/>
<path d="M74.2805 11.6875L72.9551 12.6278L74.2805 13.4338L75.6059 12.6278L74.2805 11.6875Z" fill="#9D7230"/>
<path d="M80.1716 11.551L76.9316 9.80469L79.2879 15.3122L82.6751 17.8644L80.1716 11.551Z" fill="#71C596"/>
<path d="M79.291 15.3125L80.3219 17.8647H82.6782L79.291 15.3125Z" fill="#38B24B"/>
<path d="M71.0412 10.3438L67.5067 12.3587L65.1504 17.8662L68.6848 15.4482L71.0412 10.3438Z" fill="#F15C2A"/>
<path d="M65.1504 17.8632H67.654L68.6848 15.4453L65.1504 17.8632Z" fill="#EF3B25"/>
<path d="M74.1337 3.08956L72.8082 0L70.3047 6.04479L72.3664 7.11942L74.1337 3.08956Z" fill="#6E449B"/>
<path d="M70.3059 6.04688L67.5078 12.3603L71.0423 10.3454L72.3677 7.1215L70.3059 6.04688Z" fill="#ED174F"/>
<path d="M75.6048 0H72.8066L74.1321 3.08956L75.6048 0Z" fill="#3C2E46"/>
</svg>
