<svg width="198" height="27" viewBox="0 0 198 27" fill="none" xmlns="http://www.w3.org/2000/svg">
<path d="M119.59 15.8268L124.865 25.7224H128.314L123.039 15.6328L119.59 15.8268Z" fill="white" fill-opacity="0.8"/>
<path d="M129.941 5.5484H137.651V25.7275H140.897V5.5484H148.606V3.41406H129.941V5.5484Z" fill="white" fill-opacity="0.8"/>
<path d="M56.6939 26.1143C61.563 26.1143 64.6062 23.98 64.8091 20.6815C65.012 17.383 63.186 15.6367 58.114 13.6964C53.8535 12.1441 52.4334 10.7859 52.4334 8.84563C52.4334 6.71129 54.4622 5.35308 57.5054 5.35308C59.9399 5.35308 61.9688 5.74114 63.186 6.32323L64.2004 4.38293C62.3745 3.60681 59.9399 3.21875 56.8967 3.21875C52.0276 3.21875 49.1873 5.74114 49.1873 9.03966C49.1873 12.3382 51.2161 14.0844 55.8823 15.8307C60.1428 17.383 61.3601 18.3531 61.3601 20.4874C61.3601 22.6218 59.3313 24.174 55.6794 23.98C53.8535 23.98 51.4189 23.2039 49.9988 22.4277L48.9844 24.368C50.2017 24.9501 52.6362 26.1143 56.6939 26.1143Z" fill="white" fill-opacity="0.8"/>
<path d="M91.1909 3.60156H86.1189L79.6267 23.5867L73.1345 3.60156H68.0625V25.721H70.4971V5.34783L77.1921 25.721H81.4527L87.9448 5.34783V25.721H88.3506L91.1909 18.1538V3.60156Z" fill="white" fill-opacity="0.8"/>
<path d="M126.082 4.9663C124.662 3.99615 122.633 3.41406 119.996 3.41406H111.678V16.9962L114.924 25.3395V5.5484H119.793C123.648 5.5484 124.865 7.29467 124.865 9.81706C124.865 12.5335 123.648 14.4738 119.184 14.4738H115.938V16.4141H121.213C125.474 16.4141 127.908 13.3096 127.908 10.0111C128.111 7.68273 127.3 5.93646 126.082 4.9663Z" fill="white" fill-opacity="0.8"/>
<path d="M197.5 3.60156H194.051L187.153 22.4225L180.052 3.60156H176.4L184.719 25.721H189.182L197.5 3.60156Z" fill="white" fill-opacity="0.8"/>
<path d="M154.691 5.34783H162.604V25.721H166.864V5.34783H174.777V3.60156H154.691V5.34783Z" fill="white" fill-opacity="0.8"/>
<path d="M28.9024 17.1889H33.3657V21.0695C32.5542 21.4576 30.9312 21.8457 29.3081 21.8457C24.439 21.8457 22.8159 19.5173 22.8159 14.6665C22.8159 10.0098 24.439 7.48741 29.3081 7.48741C31.9456 7.48741 33.5686 8.26354 34.7859 9.81578L38.032 6.90532C36.0032 4.1889 32.3513 3.21875 29.1052 3.21875C21.5986 3.21875 17.541 7.09935 17.541 14.6665C17.541 22.2337 21.1929 26.1143 29.1052 26.1143C32.7571 26.1143 36.2061 25.1442 38.2349 23.98V13.1143H28.9024V17.1889Z" fill="white" fill-opacity="0.8"/>
<path d="M5.77491 3.41406H0.5V25.7275H16.9334V21.4589H5.77491V3.41406Z" fill="white" fill-opacity="0.8"/>
<path d="M104.376 11.3657L107.419 9.61942L103.97 0.5L101.941 4.9627L104.376 11.3657Z" fill="#1999D6"/>
<path d="M107.416 9.61719L104.373 11.3635L105.793 14.662L110.257 17.1844L107.416 9.61719Z" fill="#30BEC2"/>
<path d="M102.141 17.3828L103.967 18.741L102.141 19.9052L110.459 26.3082L109.039 22.6216L102.141 17.3828Z" fill="#97C742"/>
<path d="M102.139 17.3828L94.4299 22.8157L93.0098 26.3082L102.139 19.9052L100.313 18.741L102.139 17.3828Z" fill="#F68524"/>
<path d="M102.138 17.3828L100.312 18.741L102.138 19.9052L103.964 18.741L102.138 17.3828Z" fill="#9D7230"/>
<path d="M110.254 17.1865L105.791 14.6641L109.037 22.6193L113.703 26.3059L110.254 17.1865Z" fill="#71C596"/>
<path d="M109.043 22.6172L110.463 26.3038H113.709L109.043 22.6172Z" fill="#38B24B"/>
<path d="M97.6777 15.4375L92.8086 18.348L89.5625 26.3032L94.4316 22.8107L97.6777 15.4375Z" fill="#F15C2A"/>
<path d="M89.5625 26.305H93.0115L94.4316 22.8125L89.5625 26.305Z" fill="#EF3B25"/>
<path d="M101.939 4.9627L100.113 0.5L96.6641 9.23136L99.5044 10.7836L101.939 4.9627Z" fill="#6E449B"/>
<path d="M96.6653 9.23438L92.8105 18.3538L97.6797 15.4433L99.5056 10.7866L96.6653 9.23438Z" fill="#ED174F"/>
<path d="M103.964 0.5H100.109L101.935 4.9627L103.964 0.5Z" fill="#3C2E46"/>
</svg>
