<svg width="189" height="31" viewBox="0 0 189 31" fill="none" xmlns="http://www.w3.org/2000/svg">
<g clip-path="url(#clip0_1_16278)">
<path d="M97.7369 10.6328V21.1685L88.9668 15.2757L97.7369 10.6328Z" fill="#244A9A"/>
<path d="M80.291 10.6328V21.1685L88.9668 15.2757L80.291 10.6328Z" fill="#95A948"/>
<path d="M88.9666 0.101562L77.6504 6.08371H88.9666V0.101562Z" fill="#FFDE14"/>
<path d="M88.9668 0.101562L100.283 6.08371H88.9668V0.101562Z" fill="#F0C3C0"/>
<path d="M88.968 15.2812L77.7461 22.7812H88.968V15.2812Z" fill="#D3D80E"/>
<path d="M88.9668 15.2812L100.283 22.7812H88.9668V15.2812Z" fill="#2DAFE6"/>
<path d="M77.7461 22.7812H88.968V30.1027L77.7461 22.7812Z" fill="#FBEF82"/>
<path d="M100.283 22.7812H88.9668V30.1027L100.283 22.7812Z" fill="#AFDFF9"/>
<path d="M77.7461 6.08594H89.0623V12.0681L77.7461 6.08594Z" fill="#F18825"/>
<path d="M100.283 6.08594H88.9668V12.0681L100.283 6.08594Z" fill="#E94287"/>
<path d="M100.284 22.7824V6.08594L88.968 12.0681L77.7461 6.08594V22.7824L80.2922 24.4788V10.6395L88.968 15.2824L97.7381 10.6395V24.4788L100.284 22.7824Z" fill="white" fill-opacity="0.8"/>
<path d="M133.571 16.7076C134.514 16.3504 135.363 15.8147 136.023 15.0112C136.777 14.1183 137.154 12.9576 137.154 11.7076C137.154 10.904 136.966 10.1004 136.683 9.47544C136.4 8.76116 135.929 8.22544 135.363 7.68973C134.797 7.2433 134.043 6.79688 133.194 6.52902C132.345 6.26116 131.402 6.17188 130.365 6.17188H123.104V24.5647H125.65V8.58259H130.365C131.779 8.58259 132.817 8.85044 133.477 9.38616C134.137 9.92187 134.514 10.7254 134.514 11.7076C134.514 12.779 134.137 13.4933 133.477 14.029C132.722 14.5647 131.685 14.8326 130.365 14.8326H127.253V17.154H131.025L134.608 24.4754H137.437L133.571 16.7076Z" fill="white" fill-opacity="0.8"/>
<path d="M139.326 6.25781V8.57924H145.173V24.5614H147.719V8.57924H153.566V6.25781H139.326Z" fill="white" fill-opacity="0.8"/>
<path d="M112.545 6.25781H110.376L102.926 24.5614H105.661L108.018 18.8471H115.091L117.448 24.5614H120.089L112.545 6.25781ZM108.867 16.7042L111.507 10.1864L114.148 16.7042H108.867Z" fill="white" fill-opacity="0.8"/>
<path d="M73.8785 17.4196C73.5956 16.7946 73.2184 16.2589 72.7469 15.8125C72.2754 15.3661 71.7096 15.0089 71.0494 14.6518C70.3893 14.3839 69.6349 14.1161 68.8805 14.0268L65.3913 13.5804C65.0141 13.4911 64.6369 13.4911 64.2597 13.3125C63.9768 13.2232 63.6939 13.0446 63.411 12.8661C63.2224 12.6875 63.0338 12.4196 62.8452 12.1518C62.7509 11.8839 62.6566 11.5268 62.6566 11.0804C62.6566 10.6339 62.7509 10.1875 62.9395 9.91964C63.1281 9.5625 63.411 9.29464 63.6939 9.02678C64.0711 8.75893 64.5426 8.49107 65.0141 8.3125C65.5799 8.13393 66.1457 8.13393 66.7116 8.13393C67.466 8.13393 68.2204 8.22321 68.7862 8.49107C69.352 8.66964 69.8235 9.02679 70.2007 9.38393C70.4836 9.65179 70.6722 9.91964 70.7665 10.2768C70.8608 10.5446 71.0494 10.9018 71.0494 11.3482L71.1437 11.7946H73.6899L73.5956 11.1696C73.5013 10.4554 73.407 9.83036 73.1241 9.29464C72.8412 8.75893 72.464 8.3125 72.0868 7.86607C71.5209 7.24107 70.6722 6.70536 69.7292 6.34821C68.7862 5.99107 67.7489 5.8125 66.7116 5.8125C65.7685 5.8125 64.9198 5.99107 64.0711 6.25893C63.2224 6.52679 62.468 6.97322 61.8079 7.50893C61.3364 7.95536 60.8648 8.49107 60.4876 9.02678C60.1104 9.65179 59.9218 10.3661 59.9218 11.1696C59.9218 11.8839 60.0161 12.5982 60.299 13.1339C60.5819 13.6696 60.9591 14.2054 61.4307 14.6518C61.9022 15.0982 62.468 15.3661 63.0338 15.6339C63.5996 15.9018 64.2597 15.9911 65.0141 16.0804L68.409 16.5268C68.8805 16.6161 69.352 16.7054 69.7292 16.8839C70.1064 17.0625 70.3893 17.2411 70.6722 17.5089C70.9551 17.7768 71.1437 18.0446 71.238 18.3125C71.3323 18.5804 71.4266 18.9375 71.4266 19.2946C71.4266 19.7411 71.3323 20.1875 71.1437 20.4554C70.9551 20.8125 70.7665 21.0804 70.4836 21.3482C70.0121 21.7054 69.5406 21.9732 68.8805 22.1518C68.2204 22.3304 67.466 22.4196 66.7116 22.4196C66.0514 22.4196 65.297 22.3304 64.7312 22.0625C64.0711 21.8839 63.5996 21.5268 63.1281 21.1696C62.8452 20.9018 62.5623 20.5446 62.3737 20.0982C62.1851 19.7411 61.9965 19.2946 61.9965 18.8482L61.9022 18.3125H59.2617L59.356 18.9375C59.4503 19.6518 59.6389 20.3661 59.9218 20.9911C60.2047 21.6161 60.6762 22.1518 61.1478 22.6875C61.8079 23.4018 62.6566 23.8482 63.5996 24.2054C64.5426 24.5625 65.5799 24.7411 66.7116 24.7411C67.8432 24.7411 68.8805 24.5625 69.8235 24.2946C70.7665 24.0268 71.6152 23.4911 72.2754 22.8661C72.7469 22.4196 73.1241 21.8839 73.407 21.3482C73.6899 20.7232 73.8785 20.0089 73.8785 19.2054C74.2557 18.6696 74.1614 18.0446 73.8785 17.4196Z" fill="white" fill-opacity="0.8"/>
<path d="M178.648 24.654H180.345L187.795 6.17188H185.815L179.496 22.0647L172.99 6.17188H158.75V7.8683H164.88V24.654H166.671V7.8683H171.764L178.648 24.654Z" fill="white" fill-opacity="0.8"/>
<path d="M97.7369 10.6395V24.4788L100.283 22.7824V6.08594L88.9668 12.0681V15.2824L97.7369 10.6395Z" fill="white" fill-opacity="0.8"/>
<path d="M2.30485 14.8337C1.07893 14.4766 0.796025 13.4944 0.796025 12.6908V12.423C0.796025 10.9051 1.64474 10.1016 3.43647 10.1016H4.28519C5.69972 10.1016 6.54843 10.6373 6.54843 12.0658C6.54843 12.423 6.35983 12.6908 5.88832 12.6908C5.41681 12.6908 5.22821 12.423 5.22821 12.0658C5.22821 11.5301 4.851 11.2623 4.28519 11.2623H3.43647C2.49346 11.2623 2.02195 11.6194 2.02195 12.423V12.6908C2.02195 13.2266 2.39915 13.5837 2.77636 13.673L5.22821 14.5658C6.26553 14.923 6.83134 15.6373 6.83134 16.798V17.2444C6.83134 18.7623 5.98262 19.6551 4.19089 19.6551H2.87066C1.45614 19.6551 0.607422 19.1194 0.607422 17.6908C0.607422 17.3337 0.796025 17.0658 1.26753 17.0658C1.73904 17.0658 1.92765 17.3337 1.92765 17.6908C1.92765 18.2266 2.30485 18.4944 2.87066 18.4944H4.28519C5.22821 18.4944 5.69972 18.048 5.69972 17.2444V16.798C5.69972 16.2623 5.41681 15.9051 5.0396 15.7266L2.30485 14.8337Z" fill="white" fill-opacity="0.8"/>
<path d="M11.4513 12.6875C12.8658 12.6875 13.7145 13.4911 13.7145 14.7411V18.9375C13.7145 19.2946 13.5259 19.5625 13.0544 19.5625H10.5082C9.18801 19.5625 8.43359 19.0268 8.43359 17.7768V16.7946C8.43359 15.5446 9.28231 15.0089 10.5082 15.0089H12.4886V14.7411C12.4886 14.1161 12.1114 13.8482 11.5456 13.8482H9.75382C9.37661 13.8482 9.09371 13.6696 9.09371 13.3125C9.09371 12.9554 9.37661 12.7768 9.75382 12.7768H11.4513V12.6875ZM12.3943 18.4018V16.0804H10.4139C9.84812 16.0804 9.56522 16.3482 9.56522 16.7946V17.7768C9.56522 18.1339 9.84812 18.4911 10.4139 18.4911H12.3943V18.4018Z" fill="white" fill-opacity="0.8"/>
<path d="M22.3893 15.0982C22.3893 14.2946 22.0121 13.8482 21.0691 13.8482H20.3147V19.1161C20.3147 19.4732 20.1261 19.7411 19.6546 19.7411C19.1831 19.7411 18.9945 19.4732 18.9945 19.1161V13.8482H16.9198V19.1161C16.9198 19.4732 16.7312 19.7411 16.2597 19.7411C15.7882 19.7411 15.5996 19.4732 15.5996 19.1161V13.3125C15.5996 12.9554 15.7882 12.6875 16.2597 12.6875H21.0691C22.7665 12.6875 23.6153 13.5804 23.6153 15.0982V19.1161C23.6153 19.4732 23.4267 19.7411 22.9551 19.7411C22.4836 19.7411 22.295 19.4732 22.295 19.1161V15.0982H22.3893Z" fill="white" fill-opacity="0.8"/>
<path d="M27.4848 19.6507C26.1646 19.6507 25.4102 19.2042 25.4102 18.0435C25.4102 17.6864 25.5988 17.4185 26.0703 17.4185C26.5418 17.4185 26.6361 17.6864 26.7304 18.0435C26.7304 18.3114 27.0133 18.5792 27.5791 18.5792H28.7107C29.3708 18.5792 29.5594 18.2221 29.5594 17.865V17.4185C29.5594 17.0614 29.3708 16.9721 29.0879 16.7935L26.919 16.2578C26.0703 15.99 25.6931 15.4542 25.6931 14.6507V14.2935C25.6931 13.0435 26.4475 12.5078 27.7677 12.5078H28.5221C29.8423 12.5078 30.5968 12.9542 30.5968 14.115C30.5968 14.4721 30.5025 14.74 29.9366 14.74C29.4651 14.74 29.3708 14.4721 29.2765 14.115C29.2765 13.8471 28.9936 13.5792 28.5221 13.5792H27.7677C27.1076 13.5792 26.919 13.9364 26.919 14.2935V14.6507C26.919 14.9185 27.1076 15.0971 27.3905 15.2757L29.5594 15.8114C30.4081 16.0792 30.8797 16.5257 30.8797 17.4185V17.865C30.8797 19.115 30.1252 19.6507 28.805 19.6507H27.4848Z" fill="white" fill-opacity="0.8"/>
<path d="M33.614 17.1507C33.614 17.9542 33.9912 18.4007 34.9343 18.4007H36.6317V13.1328C36.6317 12.7757 36.8203 12.5078 37.2918 12.5078C37.7633 12.5078 37.9519 12.7757 37.9519 13.1328V18.9364C37.9519 19.2935 37.7633 19.5614 37.2918 19.5614H35.0286C33.2368 19.5614 32.4824 18.6685 32.4824 17.1507V13.1328C32.4824 12.7757 32.671 12.5078 33.1425 12.5078C33.614 12.5078 33.8026 12.7757 33.8026 13.1328V17.1507H33.614Z" fill="white" fill-opacity="0.8"/>
<path d="M44.1777 15.0982C44.1777 14.2946 43.8005 13.8482 42.8575 13.8482H41.1601V19.1161C41.1601 19.4732 40.9715 19.7411 40.5 19.7411C40.0284 19.7411 39.8398 19.4732 39.8398 19.1161V13.3125C39.8398 12.9554 40.0284 12.6875 40.5 12.6875H42.7632C44.4606 12.6875 45.3093 13.5804 45.3093 15.0982V19.1161C45.3093 19.4732 45.1207 19.7411 44.6492 19.7411C44.1777 19.7411 43.9891 19.4732 43.9891 19.1161V15.0982H44.1777Z" fill="white" fill-opacity="0.8"/>
<path d="M52.76 20.2812C52.76 21.7098 51.9112 22.8705 50.1195 22.8705H48.6107C48.3278 22.8705 47.9506 22.692 47.9506 22.3348C47.9506 21.9777 48.2335 21.7991 48.6107 21.7991H50.2138C51.1568 21.7991 51.6283 21.1741 51.6283 20.3705V19.6562H49.9309C48.2335 19.6562 47.3848 18.7634 47.3848 17.2455V15.3705C47.3848 13.8527 48.2335 12.7812 50.0252 12.7812H52.2885C52.76 12.7812 52.9486 13.0491 52.9486 13.4062V20.2812H52.76ZM49.9309 13.7634C48.9879 13.7634 48.6107 14.3884 48.6107 15.192V17.067C48.6107 17.8705 48.9879 18.317 49.9309 18.317H51.6283V13.7634H49.9309Z" fill="white" fill-opacity="0.8"/>
</g>
<defs>
<clipPath id="clip0_1_16278">
<rect width="188" height="30" fill="white" transform="translate(0.5 0.5)"/>
</clipPath>
</defs>
</svg>
