<svg width="138" height="22" viewBox="0 0 138 22" fill="none" xmlns="http://www.w3.org/2000/svg">
<g clip-path="url(#clip0_1_20826)">
<path d="M71.3751 7.42969V15.1559L64.9375 10.8344L71.3751 7.42969Z" fill="#244A9A"/>
<path d="M58.5703 7.42969V15.1559L64.9387 10.8344L58.5703 7.42969Z" fill="#95A948"/>
<path d="M64.9394 -0.296875L56.6328 4.09003H64.9394V-0.296875Z" fill="#FFDE14"/>
<path d="M64.9375 -0.296875L73.2441 4.09003H64.9375V-0.296875Z" fill="#F0C3C0"/>
<path d="M64.9405 10.8359L56.7031 16.3359H64.9405V10.8359Z" fill="#D3D80E"/>
<path d="M64.9375 10.8359L73.2441 16.3359H64.9375V10.8359Z" fill="#2DAFE6"/>
<path d="M56.7031 16.3359H64.9405V21.705L56.7031 16.3359Z" fill="#FBEF82"/>
<path d="M73.2441 16.3359H64.9375V21.705L73.2441 16.3359Z" fill="#AFDFF9"/>
<path d="M56.7031 4.09375H65.0097V8.48065L56.7031 4.09375Z" fill="#F18825"/>
<path d="M73.2441 4.09375H64.9375V8.48065L73.2441 4.09375Z" fill="#E94287"/>
<path d="M73.2471 16.3378V4.09375L64.9405 8.48065L56.7031 4.09375V16.3378L58.5721 17.5818V7.43303L64.9405 10.8378L71.3781 7.43303V17.5818L73.2471 16.3378Z" fill="white" fill-opacity="0.8"/>
<path d="M97.6797 11.8824C98.3719 11.6205 98.9949 11.2277 99.4794 10.6384C100.033 9.98363 100.31 9.13244 100.31 8.21577C100.31 7.62649 100.172 7.0372 99.964 6.57887C99.7563 6.05506 99.4102 5.6622 98.9949 5.26934C98.5796 4.94196 98.0258 4.61458 97.4028 4.41816C96.7798 4.22173 96.0876 4.15625 95.3262 4.15625H89.9961V17.6443H91.8651V5.9241H95.3262C96.3645 5.9241 97.1259 6.12053 97.6105 6.51339C98.095 6.90625 98.3719 7.49553 98.3719 8.21577C98.3719 9.00148 98.095 9.52529 97.6105 9.91815C97.0567 10.311 96.2953 10.5074 95.3262 10.5074H93.0418V12.2098H95.8107L98.4411 17.5789H100.518L97.6797 11.8824Z" fill="white" fill-opacity="0.8"/>
<path d="M101.906 4.22656V5.92894H106.198V17.6492H108.067V5.92894H112.359V4.22656H101.906Z" fill="white" fill-opacity="0.8"/>
<path d="M82.2442 4.22656H80.6521L75.1836 17.6492H77.191L78.9216 13.4587H84.1132L85.8437 17.6492H87.7819L82.2442 4.22656ZM79.5445 11.8873L81.4827 7.10752L83.421 11.8873H79.5445Z" fill="white" fill-opacity="0.8"/>
<path d="M53.8622 12.4103C53.6545 11.952 53.3776 11.5592 53.0315 11.2318C52.6854 10.9044 52.2701 10.6425 51.7855 10.3806C51.301 10.1842 50.7472 9.98772 50.1934 9.92225L47.6322 9.59487C47.3553 9.52939 47.0784 9.52939 46.8016 9.39844C46.5939 9.33296 46.3862 9.20201 46.1786 9.07106C46.0401 8.94011 45.9017 8.74368 45.7632 8.54725C45.694 8.35082 45.6248 8.08892 45.6248 7.76153C45.6248 7.43415 45.694 7.10677 45.8324 6.91034C45.9709 6.64844 46.1786 6.45201 46.3862 6.25558C46.6631 6.05915 47.0092 5.86273 47.3553 5.73177C47.7707 5.60082 48.186 5.60082 48.6013 5.60082C49.1551 5.60082 49.7089 5.6663 50.1242 5.86272C50.5395 5.99368 50.8856 6.25558 51.1625 6.51749C51.3702 6.71391 51.5086 6.91034 51.5778 7.17225C51.6471 7.36868 51.7855 7.63058 51.7855 7.95796L51.8547 8.28534H53.7237L53.6545 7.82701C53.5853 7.3032 53.516 6.84487 53.3084 6.45201C53.1007 6.05915 52.8238 5.73177 52.5469 5.40439C52.1316 4.94606 51.5086 4.5532 50.8164 4.29129C50.1242 4.02939 49.3627 3.89844 48.6013 3.89844C47.9091 3.89844 47.2861 4.02939 46.6631 4.22582C46.0401 4.42225 45.4863 4.74963 45.0018 5.14249C44.6557 5.46987 44.3096 5.86272 44.0327 6.25558C43.7558 6.71391 43.6174 7.23772 43.6174 7.82701C43.6174 8.35082 43.6866 8.87463 43.8942 9.26748C44.1019 9.66034 44.3788 10.0532 44.7249 10.3806C45.071 10.708 45.4863 10.9044 45.9017 11.1008C46.317 11.2972 46.8016 11.3627 47.3553 11.4282L49.8473 11.7556C50.1934 11.8211 50.5395 11.8865 50.8164 12.0175C51.0933 12.1484 51.301 12.2794 51.5086 12.4758C51.7163 12.6722 51.8547 12.8687 51.9239 13.0651C51.9932 13.2615 52.0624 13.5234 52.0624 13.7853C52.0624 14.1127 51.9932 14.4401 51.8547 14.6365C51.7163 14.8984 51.5778 15.0949 51.3702 15.2913C51.0241 15.5532 50.678 15.7496 50.1934 15.8806C49.7089 16.0115 49.1551 16.077 48.6013 16.077C48.1168 16.077 47.563 16.0115 47.1477 15.8151C46.6631 15.6842 46.317 15.4222 45.9709 15.1603C45.7632 14.9639 45.5556 14.702 45.4171 14.3746C45.2787 14.1127 45.1402 13.7853 45.1402 13.458L45.071 13.0651H43.1328L43.202 13.5234C43.2713 14.0472 43.4097 14.5711 43.6174 15.0294C43.825 15.4877 44.1711 15.8806 44.5172 16.2734C45.0018 16.7973 45.6248 17.1246 46.317 17.3865C47.0092 17.6484 47.7707 17.7794 48.6013 17.7794C49.432 17.7794 50.1934 17.6484 50.8856 17.452C51.5778 17.2556 52.2008 16.8627 52.6854 16.4044C53.0315 16.077 53.3084 15.6842 53.516 15.2913C53.7237 14.833 53.8622 14.3092 53.8622 13.7199C54.139 13.327 54.0698 12.8687 53.8622 12.4103Z" fill="white" fill-opacity="0.8"/>
<path d="M130.766 17.7098H132.012L137.48 4.15625H136.027L131.389 15.811L126.613 4.15625H116.16V5.4003H120.66V17.7098H121.975V5.4003H125.713L130.766 17.7098Z" fill="white" fill-opacity="0.8"/>
<path d="M71.3751 7.43303V17.5818L73.2441 16.3378V4.09375L64.9375 8.48065V10.8378L71.3751 7.43303Z" fill="white" fill-opacity="0.8"/>
<path d="M1.32411 10.5093C0.424232 10.2474 0.216568 9.52715 0.216568 8.93787V8.74144C0.216568 7.62835 0.839562 7.03906 2.15477 7.03906H2.77776C3.81609 7.03906 4.43908 7.43192 4.43908 8.47954C4.43908 8.74144 4.30064 8.93787 3.95453 8.93787C3.60842 8.93787 3.46998 8.74144 3.46998 8.47954C3.46998 8.08668 3.19309 7.89025 2.77776 7.89025H2.15477C1.46256 7.89025 1.11645 8.15216 1.11645 8.74144V8.93787C1.11645 9.33073 1.39333 9.59263 1.67022 9.65811L3.46998 10.3129C4.23141 10.5748 4.64674 11.0986 4.64674 11.9498V12.2772C4.64674 13.3903 4.02375 14.045 2.70854 14.045H1.73944C0.701118 14.045 0.078125 13.6522 0.078125 12.6045C0.078125 12.3426 0.216568 12.1462 0.562675 12.1462C0.908783 12.1462 1.04723 12.3426 1.04723 12.6045C1.04723 12.9974 1.32411 13.1938 1.73944 13.1938H2.77776C3.46998 13.1938 3.81609 12.8664 3.81609 12.2772V11.9498C3.81609 11.5569 3.60842 11.295 3.33153 11.1641L1.32411 10.5093Z" fill="white" fill-opacity="0.8"/>
<path d="M8.03931 8.9375C9.07763 8.9375 9.70062 9.52679 9.70062 10.4435V13.5208C9.70062 13.7827 9.56218 13.9792 9.21607 13.9792H7.34709C6.37799 13.9792 5.82422 13.5863 5.82422 12.6696V11.9494C5.82422 11.0327 6.44721 10.6399 7.34709 10.6399H8.80075V10.4435C8.80075 9.98512 8.52386 9.78869 8.10853 9.78869H6.79332C6.51643 9.78869 6.30877 9.65774 6.30877 9.39584C6.30877 9.13393 6.51643 9.00298 6.79332 9.00298H8.03931V8.9375ZM8.73152 13.128V11.4256H7.27787C6.86254 11.4256 6.65488 11.622 6.65488 11.9494V12.6696C6.65488 12.9316 6.86254 13.1935 7.27787 13.1935H8.73152V13.128Z" fill="white" fill-opacity="0.8"/>
<path d="M16.066 10.7054C16.066 10.1161 15.7891 9.78869 15.0969 9.78869H14.5431V13.6518C14.5431 13.9137 14.4047 14.1101 14.0586 14.1101C13.7124 14.1101 13.574 13.9137 13.574 13.6518V9.78869H12.0511V13.6518C12.0511 13.9137 11.9127 14.1101 11.5666 14.1101C11.2205 14.1101 11.082 13.9137 11.082 13.6518V9.39584C11.082 9.13393 11.2205 8.9375 11.5666 8.9375H15.0969C16.3429 8.9375 16.9659 9.59226 16.9659 10.7054V13.6518C16.9659 13.9137 16.8274 14.1101 16.4813 14.1101C16.1352 14.1101 15.9968 13.9137 15.9968 13.6518V10.7054H16.066Z" fill="white" fill-opacity="0.8"/>
<path d="M19.808 14.0428C18.8389 14.0428 18.2852 13.7154 18.2852 12.8642C18.2852 12.6023 18.4236 12.4059 18.7697 12.4059C19.1158 12.4059 19.185 12.6023 19.2543 12.8642C19.2543 13.0606 19.4619 13.2571 19.8773 13.2571H20.7079C21.1925 13.2571 21.3309 12.9952 21.3309 12.7333V12.4059C21.3309 12.144 21.1925 12.0785 20.9848 11.9475L19.3927 11.5547C18.7697 11.3583 18.4928 10.9654 18.4928 10.3761V10.1142C18.4928 9.19754 19.0466 8.80469 20.0157 8.80469H20.5695C21.5386 8.80469 22.0923 9.13207 22.0923 9.98326C22.0923 10.2452 22.0231 10.4416 21.6078 10.4416C21.2617 10.4416 21.1925 10.2452 21.1232 9.98326C21.1232 9.78683 20.9156 9.5904 20.5695 9.5904H20.0157C19.5311 9.5904 19.3927 9.85231 19.3927 10.1142V10.3761C19.3927 10.5725 19.5311 10.7035 19.7388 10.8344L21.3309 11.2273C21.9539 11.4237 22.3 11.7511 22.3 12.4059V12.7333C22.3 13.6499 21.7462 14.0428 20.7771 14.0428H19.808Z" fill="white" fill-opacity="0.8"/>
<path d="M24.3072 12.2094C24.3072 12.7987 24.5841 13.1261 25.2763 13.1261H26.5223V9.26302C26.5223 9.00111 26.6608 8.80469 27.0069 8.80469C27.353 8.80469 27.4914 9.00111 27.4914 9.26302V13.519C27.4914 13.7809 27.353 13.9773 27.0069 13.9773H25.3455C24.0303 13.9773 23.4766 13.3225 23.4766 12.2094V9.26302C23.4766 9.00111 23.615 8.80469 23.9611 8.80469C24.3072 8.80469 24.4457 9.00111 24.4457 9.26302V12.2094H24.3072Z" fill="white" fill-opacity="0.8"/>
<path d="M32.0592 10.7054C32.0592 10.1161 31.7823 9.78869 31.0901 9.78869H29.8441V13.6518C29.8441 13.9137 29.7057 14.1101 29.3596 14.1101C29.0134 14.1101 28.875 13.9137 28.875 13.6518V9.39584C28.875 9.13393 29.0134 8.9375 29.3596 8.9375H31.0209C32.2669 8.9375 32.8898 9.59226 32.8898 10.7054V13.6518C32.8898 13.9137 32.7514 14.1101 32.4053 14.1101C32.0592 14.1101 31.9207 13.9137 31.9207 13.6518V10.7054H32.0592Z" fill="white" fill-opacity="0.8"/>
<path d="M38.3597 14.5078C38.3597 15.5554 37.7367 16.4066 36.4215 16.4066H35.3139C35.1063 16.4066 34.8294 16.2757 34.8294 16.0138C34.8294 15.7519 35.0371 15.6209 35.3139 15.6209H36.4907C37.1829 15.6209 37.529 15.1626 37.529 14.5733V14.0495H36.283C35.0371 14.0495 34.4141 13.3947 34.4141 12.2816V10.9066C34.4141 9.79352 35.0371 9.00781 36.3523 9.00781H38.0136C38.3597 9.00781 38.4981 9.20424 38.4981 9.46614V14.5078H38.3597ZM36.283 9.72805C35.5908 9.72805 35.3139 10.1864 35.3139 10.7757V12.1507C35.3139 12.74 35.5908 13.0673 36.283 13.0673H37.529V9.72805H36.283Z" fill="white" fill-opacity="0.8"/>
</g>
<defs>
<clipPath id="clip0_1_20826">
<rect width="138" height="22" fill="white"/>
</clipPath>
</defs>
</svg>
