<svg width="123" height="22" viewBox="0 0 123 22" fill="none" xmlns="http://www.w3.org/2000/svg">
<g clip-path="url(#clip0_1_29671)">
<path d="M63.6056 7.49687V15.0826L57.8958 10.8397L63.6056 7.49687Z" fill="#244A9A"/>
<path d="M52.2454 7.49687V15.0826L57.8938 10.8397L52.2454 7.49687Z" fill="#95A948"/>
<path d="M57.8981 -0.0890656L50.5305 4.21808H57.8981V-0.0890656Z" fill="#FFDE14"/>
<path d="M57.8958 -0.0890656L65.2633 4.21808H57.8958V-0.0890656Z" fill="#F0C3C0"/>
<path d="M57.8972 10.8406L50.5911 16.2406H57.8972V10.8406Z" fill="#D3D80E"/>
<path d="M57.8958 10.8406L65.2633 16.2406H57.8958V10.8406Z" fill="#2DAFE6"/>
<path d="M50.5911 16.2391H57.8972V21.5105L50.5911 16.2391Z" fill="#FBEF82"/>
<path d="M65.2633 16.2391H57.8958V21.5105L65.2633 16.2391Z" fill="#AFDFF9"/>
<path d="M50.5911 4.22343H57.9586V8.53058L50.5911 4.22343Z" fill="#F18825"/>
<path d="M65.2633 4.22343H57.8958V8.53058L65.2633 4.22343Z" fill="#E94287"/>
<path d="M65.2648 16.2449V4.22343L57.8972 8.53058L50.5911 4.22343V16.2449L52.2488 17.4663V7.502L57.8972 10.8449L63.6071 7.502V17.4663L65.2648 16.2449Z" fill="white" fill-opacity="0.8"/>
<path d="M86.9373 11.8795C87.5513 11.6223 88.1039 11.2366 88.5336 10.658C89.0248 10.0152 89.2704 9.17946 89.2704 8.27946C89.2704 7.70089 89.1476 7.12232 88.9634 6.67232C88.7792 6.15803 88.4722 5.77232 88.1039 5.3866C87.7355 5.06517 87.2443 4.74375 86.6917 4.55089C86.1392 4.35803 85.5252 4.29375 84.8498 4.29375H80.1223V17.5366H81.78V6.02946H84.8498C85.7708 6.02946 86.4462 6.22232 86.8759 6.60803C87.3057 6.99375 87.5513 7.57232 87.5513 8.27946C87.5513 9.05089 87.3057 9.56517 86.8759 9.95089C86.3848 10.3366 85.7094 10.5295 84.8498 10.5295H82.8238V12.2009H85.2796L87.6127 17.4723H89.4546L86.9373 11.8795Z" fill="white" fill-opacity="0.8"/>
<path d="M90.6868 4.34843V6.01986H94.4933V17.527H96.1511V6.01986H99.9576V4.34843H90.6868Z" fill="white" fill-opacity="0.8"/>
<path d="M73.248 4.34843H71.8359L66.9856 17.527H68.7661L70.301 13.4127H74.9057L76.4407 17.527H78.1598L73.248 4.34843ZM70.8536 11.8699L72.5727 7.17701L74.2918 11.8699H70.8536Z" fill="white" fill-opacity="0.8"/>
<path d="M48.0704 12.3775C47.8862 11.9275 47.6406 11.5417 47.3337 11.2203C47.0267 10.8989 46.6583 10.6417 46.2285 10.3846C45.7987 10.1917 45.3076 9.99888 44.8164 9.9346L42.5447 9.61317C42.2991 9.54888 42.0536 9.54888 41.808 9.42031C41.6238 9.35603 41.4396 9.22746 41.2554 9.09888C41.1326 8.97031 41.0098 8.77745 40.887 8.5846C40.8256 8.39174 40.7642 8.1346 40.7642 7.81317C40.7642 7.49174 40.8256 7.17031 40.9484 6.97745C41.0712 6.72031 41.2554 6.52745 41.4396 6.33459C41.6852 6.14174 41.9922 5.94888 42.2991 5.82031C42.6675 5.69174 43.0359 5.69174 43.4043 5.69174C43.8954 5.69174 44.3866 5.75602 44.755 5.94888C45.1234 6.07745 45.4304 6.3346 45.6759 6.59174C45.8601 6.7846 45.9829 6.97745 46.0443 7.2346C46.1057 7.42745 46.2285 7.68459 46.2285 8.00602L46.2899 8.32745H47.9476L47.8862 7.87745C47.8248 7.36317 47.7634 6.91317 47.5792 6.52745C47.395 6.14174 47.1495 5.82031 46.9039 5.49888C46.5355 5.04888 45.9829 4.66317 45.369 4.40602C44.755 4.14888 44.0796 4.02031 43.4043 4.02031C42.7903 4.02031 42.2377 4.14888 41.6852 4.34174C41.1326 4.5346 40.6414 4.85602 40.2117 5.24174C39.9047 5.56317 39.5977 5.94888 39.3521 6.33459C39.1065 6.7846 38.9837 7.29888 38.9837 7.87745C38.9837 8.39174 39.0451 8.90602 39.2293 9.29174C39.4135 9.67745 39.6591 10.0632 39.9661 10.3846C40.2731 10.706 40.6414 10.8989 41.0098 11.0917C41.3782 11.2846 41.808 11.3489 42.2991 11.4132L44.5094 11.7346C44.8164 11.7989 45.1234 11.8632 45.369 11.9917C45.6146 12.1203 45.7987 12.2489 45.9829 12.4417C46.1671 12.6346 46.2899 12.8275 46.3513 13.0203C46.4127 13.2132 46.4741 13.4703 46.4741 13.7275C46.4741 14.0489 46.4127 14.3703 46.2899 14.5632C46.1671 14.8203 46.0443 15.0132 45.8601 15.206C45.5532 15.4632 45.2462 15.656 44.8164 15.7846C44.3866 15.9132 43.8954 15.9775 43.4043 15.9775C42.9745 15.9775 42.4833 15.9132 42.1149 15.7203C41.6852 15.5917 41.3782 15.3346 41.0712 15.0775C40.887 14.8846 40.7028 14.6275 40.58 14.306C40.4572 14.0489 40.3344 13.7275 40.3344 13.406L40.2731 13.0203H38.554L38.6154 13.4703C38.6767 13.9846 38.7995 14.4989 38.9837 14.9489C39.1679 15.3989 39.4749 15.7846 39.7819 16.1703C40.2117 16.6846 40.7642 17.006 41.3782 17.2632C41.9922 17.5203 42.6675 17.6489 43.4043 17.6489C44.141 17.6489 44.8164 17.5203 45.4304 17.3275C46.0443 17.1346 46.5969 16.7489 47.0267 16.2989C47.3337 15.9775 47.5792 15.5917 47.7634 15.206C47.9476 14.756 48.0704 14.2417 48.0704 13.6632C48.316 13.2775 48.2546 12.8275 48.0704 12.3775Z" fill="white" fill-opacity="0.8"/>
<path d="M116.284 17.6009H117.389L122.239 4.29375H120.95L116.837 15.7366L112.6 4.29375H103.329V5.51518H107.32V17.6009H108.487V5.51518H111.802L116.284 17.6009Z" fill="white" fill-opacity="0.8"/>
<path d="M63.6056 7.502V17.4663L65.2633 16.2449V4.22343L57.8958 8.53058V10.8449L63.6056 7.502Z" fill="white" fill-opacity="0.8"/>
<path d="M1.47354 10.5212C0.67539 10.2641 0.491201 9.55691 0.491201 8.97834V8.78549C0.491201 7.69263 1.04377 7.11406 2.2103 7.11406H2.76287C3.68382 7.11406 4.23638 7.49977 4.23638 8.52834C4.23638 8.78549 4.11359 8.97834 3.80661 8.97834C3.49963 8.97834 3.37683 8.78549 3.37683 8.52834C3.37683 8.14263 3.13125 7.94977 2.76287 7.94977H2.2103C1.59634 7.94977 1.28935 8.20692 1.28935 8.78549V8.97834C1.28935 9.36406 1.53494 9.6212 1.78053 9.68549L3.37683 10.3283C4.0522 10.5855 4.42057 11.0998 4.42057 11.9355V12.2569C4.42057 13.3498 3.86801 13.9926 2.70147 13.9926H1.84192C0.920976 13.9926 0.368408 13.6069 0.368408 12.5783C0.368408 12.3212 0.491201 12.1283 0.798183 12.1283C1.10517 12.1283 1.22796 12.3212 1.22796 12.5783C1.22796 12.9641 1.47354 13.1569 1.84192 13.1569H2.76287C3.37683 13.1569 3.68382 12.8355 3.68382 12.2569V11.9355C3.68382 11.5498 3.49963 11.2926 3.25404 11.1641L1.47354 10.5212Z" fill="white" fill-opacity="0.8"/>
<path d="M7.43075 8.98125C8.3517 8.98125 8.90427 9.55982 8.90427 10.4598V13.4812C8.90427 13.7384 8.78148 13.9313 8.47449 13.9313H6.81679C5.95724 13.9313 5.46606 13.5455 5.46606 12.6455V11.9384C5.46606 11.0384 6.01863 10.6527 6.81679 10.6527H8.10611V10.4598C8.10611 10.0098 7.86053 9.81696 7.49215 9.81696H6.32562C6.08003 9.81696 5.89584 9.68839 5.89584 9.43125C5.89584 9.17411 6.08003 9.04554 6.32562 9.04554H7.43075V8.98125ZM8.04472 13.0955V11.4241H6.75539C6.38701 11.4241 6.20282 11.617 6.20282 11.9384V12.6455C6.20282 12.9027 6.38701 13.1598 6.75539 13.1598H8.04472V13.0955Z" fill="white" fill-opacity="0.8"/>
<path d="M14.5487 10.717C14.5487 10.1384 14.3031 9.81696 13.6892 9.81696H13.198V13.6098C13.198 13.867 13.0752 14.0598 12.7682 14.0598C12.4612 14.0598 12.3384 13.867 12.3384 13.6098V9.81696H10.9877V13.6098C10.9877 13.867 10.8649 14.0598 10.5579 14.0598C10.251 14.0598 10.1282 13.867 10.1282 13.6098V9.43125C10.1282 9.17411 10.251 8.98125 10.5579 8.98125H13.6892C14.7943 8.98125 15.3469 9.62411 15.3469 10.717V13.6098C15.3469 13.867 15.2241 14.0598 14.9171 14.0598C14.6101 14.0598 14.4873 13.867 14.4873 13.6098V10.717H14.5487Z" fill="white" fill-opacity="0.8"/>
<path d="M17.8695 13.9913C17.01 13.9913 16.5188 13.6699 16.5188 12.8341C16.5188 12.577 16.6416 12.3841 16.9486 12.3841C17.2556 12.3841 17.317 12.577 17.3783 12.8341C17.3783 13.027 17.5625 13.2199 17.9309 13.2199H18.6677C19.0975 13.2199 19.2202 12.9627 19.2202 12.7056V12.3841C19.2202 12.127 19.0975 12.0627 18.9133 11.9342L17.5011 11.5484C16.9486 11.3556 16.703 10.9699 16.703 10.3913V10.1341C16.703 9.23415 17.1942 8.84843 18.0537 8.84843H18.5449C19.4044 8.84843 19.8956 9.16987 19.8956 10.0056C19.8956 10.2627 19.8342 10.4556 19.4658 10.4556C19.1588 10.4556 19.0975 10.2627 19.0361 10.0056C19.0361 9.81272 18.8519 9.61986 18.5449 9.61986H18.0537C17.6239 9.61986 17.5011 9.87701 17.5011 10.1341V10.3913C17.5011 10.5841 17.6239 10.7127 17.8081 10.8413L19.2202 11.227C19.7728 11.4199 20.0798 11.7413 20.0798 12.3841V12.7056C20.0798 13.6056 19.5886 13.9913 18.7291 13.9913H17.8695Z" fill="white" fill-opacity="0.8"/>
<path d="M21.8571 12.1913C21.8571 12.7699 22.1027 13.0913 22.7167 13.0913H23.8218V9.29843C23.8218 9.04129 23.9446 8.84843 24.2516 8.84843C24.5586 8.84843 24.6814 9.04129 24.6814 9.29843V13.477C24.6814 13.7341 24.5586 13.927 24.2516 13.927H22.7781C21.6115 13.927 21.1204 13.2841 21.1204 12.1913V9.29843C21.1204 9.04129 21.2432 8.84843 21.5501 8.84843C21.8571 8.84843 21.9799 9.04129 21.9799 9.29843V12.1913H21.8571Z" fill="white" fill-opacity="0.8"/>
<path d="M28.7337 10.717C28.7337 10.1384 28.4881 9.81696 27.8741 9.81696H26.769V13.6098C26.769 13.867 26.6462 14.0598 26.3392 14.0598C26.0322 14.0598 25.9094 13.867 25.9094 13.6098V9.43125C25.9094 9.17411 26.0322 8.98125 26.3392 8.98125H27.8127C28.9178 8.98125 29.4704 9.62411 29.4704 10.717V13.6098C29.4704 13.867 29.3476 14.0598 29.0406 14.0598C28.7337 14.0598 28.6109 13.867 28.6109 13.6098V10.717H28.7337Z" fill="white" fill-opacity="0.8"/>
<path d="M34.3211 14.4359C34.3211 15.4645 33.7686 16.3002 32.602 16.3002H31.6197C31.4355 16.3002 31.1899 16.1716 31.1899 15.9145C31.1899 15.6574 31.3741 15.5288 31.6197 15.5288H32.6634C33.2774 15.5288 33.5844 15.0788 33.5844 14.5002V13.9859H32.4792C31.3741 13.9859 30.8215 13.3431 30.8215 12.2502V10.9002C30.8215 9.80736 31.3741 9.03593 32.5406 9.03593H34.0141C34.3211 9.03593 34.4439 9.22879 34.4439 9.48593V14.4359H34.3211ZM32.4792 9.74308C31.8653 9.74308 31.6197 10.1931 31.6197 10.7716V12.1216C31.6197 12.7002 31.8653 13.0216 32.4792 13.0216H33.5844V9.74308H32.4792Z" fill="white" fill-opacity="0.8"/>
</g>
<defs>
<clipPath id="clip0_1_29671">
<rect width="122.4" height="21.6" fill="white" transform="translate(0.300049 0.199997)"/>
</clipPath>
</defs>
</svg>
