<svg width="158" height="28" viewBox="0 0 158 28" fill="none" xmlns="http://www.w3.org/2000/svg">
<g clip-path="url(#clip0_1_25236)">
<path d="M81.7075 9.71265V18.9961L74.3704 13.8036L81.7075 9.71265Z" fill="#244A9A"/>
<path d="M67.1086 9.71265V18.9961L74.3669 13.8036L67.1086 9.71265Z" fill="#95A948"/>
<path d="M74.3708 0.431396L64.9036 5.70249H74.3708V0.431396Z" fill="#FFDE14"/>
<path d="M74.3704 0.431396L83.8376 5.70249H74.3704V0.431396Z" fill="#F0C3C0"/>
<path d="M74.372 13.8064L64.9836 20.4149H74.372V13.8064Z" fill="#D3D80E"/>
<path d="M74.3704 13.8064L83.8376 20.4149H74.3704V13.8064Z" fill="#2DAFE6"/>
<path d="M64.9836 20.4158H74.372V26.867L64.9836 20.4158Z" fill="#FBEF82"/>
<path d="M83.8376 20.4158H74.3704V26.867L83.8376 20.4158Z" fill="#AFDFF9"/>
<path d="M64.9836 5.69702H74.4509V10.9681L64.9836 5.69702Z" fill="#F18825"/>
<path d="M83.8376 5.69702H74.3704V10.9681L83.8376 5.69702Z" fill="#E94287"/>
<path d="M83.8393 20.4089V5.69702L74.372 10.9681L64.9836 5.69702V20.4089L67.1138 21.9036V9.70934L74.372 13.8003L81.7091 9.70934V21.9036L83.8393 20.4089Z" fill="white" fill-opacity="0.8"/>
<path d="M111.686 15.0664C112.475 14.7517 113.185 14.2796 113.737 13.5716C114.369 12.7849 114.684 11.7621 114.684 10.6607C114.684 9.95262 114.526 9.24457 114.29 8.69385C114.053 8.06447 113.659 7.59243 113.185 7.1204C112.712 6.72703 112.081 6.33367 111.371 6.09765C110.661 5.86163 109.872 5.78296 109.004 5.78296H102.929V21.9896H105.059V7.90713H109.004C110.187 7.90713 111.055 8.14315 111.607 8.61518C112.16 9.08722 112.475 9.79528 112.475 10.6607C112.475 11.6048 112.16 12.2341 111.607 12.7062C110.976 13.1782 110.108 13.4142 109.004 13.4142H106.4V15.4597H109.556L112.554 21.9109H114.921L111.686 15.0664Z" fill="white" fill-opacity="0.8"/>
<path d="M116.503 5.86108V7.90658H121.395V21.989H123.525V7.90658H128.416V5.86108H116.503Z" fill="white" fill-opacity="0.8"/>
<path d="M94.0933 5.86108H92.2788L86.0461 21.989H88.3341L90.3064 16.954H96.2235L98.1958 21.989H100.405L94.0933 5.86108ZM91.0165 15.0658L93.2255 9.32269L95.4345 15.0658H91.0165Z" fill="white" fill-opacity="0.8"/>
<path d="M61.7454 15.6901C61.5087 15.1394 61.1931 14.6674 60.7987 14.274C60.4042 13.8807 59.9308 13.566 59.3786 13.2513C58.8263 13.0153 58.1952 12.7792 57.564 12.7006L54.645 12.3072C54.3294 12.2285 54.0138 12.2285 53.6982 12.0712C53.4615 11.9925 53.2249 11.8352 52.9882 11.6778C52.8304 11.5205 52.6726 11.2844 52.5148 11.0484C52.4359 10.8124 52.357 10.4977 52.357 10.1044C52.357 9.71099 52.4359 9.31762 52.5937 9.0816C52.7515 8.76691 52.9882 8.53089 53.2249 8.29487C53.5404 8.05885 53.9349 7.82284 54.3294 7.66549C54.8027 7.50815 55.2761 7.50814 55.7495 7.50814C56.3806 7.50814 57.0118 7.58682 57.4851 7.82284C57.9585 7.98018 58.353 8.29487 58.6685 8.60957C58.9052 8.84558 59.063 9.0816 59.1419 9.3963C59.2208 9.63231 59.3786 9.947 59.3786 10.3404L59.4575 10.7337H61.5876L61.5087 10.183C61.4298 9.55364 61.3509 9.00293 61.1143 8.53089C60.8776 8.05886 60.562 7.66549 60.2464 7.27213C59.7731 6.72142 59.063 6.24938 58.2741 5.93468C57.4851 5.61999 56.6173 5.46265 55.7495 5.46265C54.9605 5.46265 54.2505 5.61999 53.5404 5.85601C52.8304 6.09203 52.1992 6.4854 51.647 6.95743C51.2525 7.3508 50.858 7.82283 50.5425 8.29487C50.2269 8.84558 50.0691 9.47497 50.0691 10.183C50.0691 10.8124 50.148 11.4418 50.3847 11.9138C50.6214 12.3859 50.9369 12.8579 51.3314 13.2513C51.7259 13.6446 52.1992 13.8807 52.6726 14.1167C53.146 14.3527 53.6982 14.4314 54.3294 14.51L57.1696 14.9034C57.564 14.9821 57.9585 15.0608 58.2741 15.2181C58.5896 15.3754 58.8263 15.5328 59.063 15.7688C59.2997 16.0048 59.4575 16.2408 59.5364 16.4769C59.6153 16.7129 59.6942 17.0276 59.6942 17.3423C59.6942 17.7356 59.6153 18.129 59.4575 18.365C59.2997 18.6797 59.1419 18.9157 58.9052 19.1517C58.5107 19.4664 58.1163 19.7025 57.564 19.8598C57.0118 20.0171 56.3806 20.0958 55.7495 20.0958C55.1972 20.0958 54.5661 20.0171 54.0927 19.7811C53.5404 19.6238 53.146 19.3091 52.7515 18.9944C52.5148 18.7584 52.2781 18.4437 52.1203 18.0503C51.9626 17.7356 51.8048 17.3423 51.8048 16.9489L51.7259 16.4769H49.5168L49.5957 17.0276C49.6746 17.657 49.8324 18.2863 50.0691 18.8371C50.3058 19.3878 50.7003 19.8598 51.0947 20.3318C51.647 20.9612 52.357 21.3546 53.146 21.6693C53.9349 21.984 54.8027 22.1413 55.7495 22.1413C56.6962 22.1413 57.564 21.984 58.353 21.7479C59.1419 21.5119 59.8519 21.0399 60.4042 20.4892C60.7987 20.0958 61.1143 19.6238 61.3509 19.1517C61.5876 18.601 61.7454 17.9716 61.7454 17.2636C62.061 16.7916 61.9821 16.2408 61.7454 15.6901Z" fill="white" fill-opacity="0.8"/>
<path d="M149.398 22.0683H150.818L157.051 5.78296H155.394L150.108 19.7867L144.664 5.78296H132.751V7.27775H137.879V22.0683H139.378V7.27775H143.639L149.398 22.0683Z" fill="white" fill-opacity="0.8"/>
<path d="M81.7075 9.70934V21.9036L83.8376 20.4089V5.69702L74.3704 10.9681V13.8003L81.7075 9.70934Z" fill="white" fill-opacity="0.8"/>
<path d="M1.86662 13.4136C0.841002 13.0989 0.604321 12.2335 0.604321 11.5254V11.2894C0.604321 9.95195 1.31437 9.2439 2.81335 9.2439H3.5234C4.7068 9.2439 5.41685 9.71593 5.41685 10.9747C5.41685 11.2894 5.25906 11.5254 4.86459 11.5254C4.47012 11.5254 4.31233 11.2894 4.31233 10.9747C4.31233 10.5027 3.99676 10.2666 3.5234 10.2666H2.81335C2.02441 10.2666 1.62994 10.5813 1.62994 11.2894V11.5254C1.62994 11.9974 1.94552 12.3121 2.26109 12.3908L4.31233 13.1775C5.18017 13.4922 5.65353 14.1216 5.65353 15.1444V15.5377C5.65353 16.8752 4.94349 17.6619 3.4445 17.6619H2.33999C1.15658 17.6619 0.446533 17.1899 0.446533 15.9311C0.446533 15.6164 0.604321 15.3804 0.998791 15.3804C1.39326 15.3804 1.55105 15.6164 1.55105 15.9311C1.55105 16.4031 1.86662 16.6392 2.33999 16.6392H3.5234C4.31233 16.6392 4.7068 16.2458 4.7068 15.5377V15.1444C4.7068 14.6723 4.47012 14.3576 4.15455 14.2003L1.86662 13.4136Z" fill="white" fill-opacity="0.8"/>
<path d="M9.51997 11.5251C10.7034 11.5251 11.4134 12.2332 11.4134 13.3346V17.0323C11.4134 17.3469 11.2556 17.583 10.8612 17.583H8.73103C7.62651 17.583 6.99536 17.1109 6.99536 16.0095V15.1441C6.99536 14.0427 7.70541 13.5706 8.73103 13.5706H10.3878V13.3346C10.3878 12.7839 10.0722 12.5479 9.59886 12.5479H8.09988C7.7843 12.5479 7.54762 12.3906 7.54762 12.0759C7.54762 11.7612 7.7843 11.6038 8.09988 11.6038H9.51997V11.5251ZM10.3089 16.5602V14.5147H8.65213C8.17877 14.5147 7.94209 14.7507 7.94209 15.1441V16.0095C7.94209 16.3242 8.17877 16.6389 8.65213 16.6389H10.3089V16.5602Z" fill="white" fill-opacity="0.8"/>
<path d="M18.6699 13.6493C18.6699 12.9413 18.3543 12.5479 17.5654 12.5479H16.9342V17.1896C16.9342 17.5043 16.7764 17.7403 16.3819 17.7403C15.9875 17.7403 15.8297 17.5043 15.8297 17.1896V12.5479H14.094V17.1896C14.094 17.5043 13.9362 17.7403 13.5418 17.7403C13.1473 17.7403 12.9895 17.5043 12.9895 17.1896V12.0759C12.9895 11.7612 13.1473 11.5251 13.5418 11.5251H17.5654C18.9854 11.5251 19.6955 12.3119 19.6955 13.6493V17.1896C19.6955 17.5043 19.5377 17.7403 19.1432 17.7403C18.7488 17.7403 18.591 17.5043 18.591 17.1896V13.6493H18.6699Z" fill="white" fill-opacity="0.8"/>
<path d="M22.9361 17.6627C21.8316 17.6627 21.2004 17.2694 21.2004 16.2466C21.2004 15.9319 21.3582 15.6959 21.7527 15.6959C22.1472 15.6959 22.2261 15.9319 22.305 16.2466C22.305 16.4826 22.5416 16.7187 23.015 16.7187H23.9617C24.514 16.7187 24.6718 16.404 24.6718 16.0893V15.6959C24.6718 15.3812 24.514 15.3025 24.2773 15.1452L22.4627 14.6732C21.7527 14.4371 21.4371 13.9651 21.4371 13.257V12.9424C21.4371 11.8409 22.0683 11.3689 23.1728 11.3689H23.8039C24.9085 11.3689 25.5396 11.7623 25.5396 12.785C25.5396 13.0997 25.4607 13.3357 24.9874 13.3357C24.5929 13.3357 24.514 13.0997 24.4351 12.785C24.4351 12.549 24.1984 12.313 23.8039 12.313H23.1728C22.6205 12.313 22.4627 12.6277 22.4627 12.9424V13.257C22.4627 13.4931 22.6205 13.6504 22.8572 13.8078L24.6718 14.2798C25.3818 14.5158 25.7763 14.9092 25.7763 15.6959V16.0893C25.7763 17.1907 25.1451 17.6627 24.0406 17.6627H22.9361Z" fill="white" fill-opacity="0.8"/>
<path d="M28.0612 15.4599C28.0612 16.1679 28.3768 16.5613 29.1657 16.5613H30.5858V11.9196C30.5858 11.6049 30.7436 11.3689 31.1381 11.3689C31.5326 11.3689 31.6903 11.6049 31.6903 11.9196V17.0333C31.6903 17.348 31.5326 17.5841 31.1381 17.5841H29.2446C27.7457 17.5841 27.1145 16.7973 27.1145 15.4599V11.9196C27.1145 11.6049 27.2723 11.3689 27.6668 11.3689C28.0612 11.3689 28.219 11.6049 28.219 11.9196V15.4599H28.0612Z" fill="white" fill-opacity="0.8"/>
<path d="M36.8979 13.6493C36.8979 12.9413 36.5823 12.5479 35.7934 12.5479H34.3733V17.1896C34.3733 17.5043 34.2155 17.7403 33.8211 17.7403C33.4266 17.7403 33.2688 17.5043 33.2688 17.1896V12.0759C33.2688 11.7612 33.4266 11.5251 33.8211 11.5251H35.7145C37.1346 11.5251 37.8446 12.3119 37.8446 13.6493V17.1896C37.8446 17.5043 37.6869 17.7403 37.2924 17.7403C36.8979 17.7403 36.7401 17.5043 36.7401 17.1896V13.6493H36.8979Z" fill="white" fill-opacity="0.8"/>
<path d="M44.0783 18.2118C44.0783 19.4706 43.3682 20.4933 41.8692 20.4933H40.6069C40.3702 20.4933 40.0547 20.336 40.0547 20.0213C40.0547 19.7066 40.2913 19.5492 40.6069 19.5492H41.9481C42.7371 19.5492 43.1315 18.9985 43.1315 18.2905V17.6611H41.7114C40.2913 17.6611 39.5813 16.8744 39.5813 15.5369V13.8848C39.5813 12.5473 40.2913 11.6033 41.7903 11.6033H43.6838C44.0783 11.6033 44.236 11.8393 44.236 12.154V18.2118H44.0783ZM41.7114 12.4687C40.9225 12.4687 40.6069 13.0194 40.6069 13.7274V15.3796C40.6069 16.0876 40.9225 16.481 41.7114 16.481H43.1315V12.4687H41.7114Z" fill="white" fill-opacity="0.8"/>
</g>
<defs>
<clipPath id="clip0_1_25236">
<rect width="157.283" height="26.4341" fill="white" transform="translate(0.358643 0.782959)"/>
</clipPath>
</defs>
</svg>
