<svg width="12" height="12" viewBox="0 0 12 12" fill="none" xmlns="http://www.w3.org/2000/svg">
<path d="M5.6875 1C3.10262 1 1 3.103 1 5.6875C1 8.272 3.10281 10.375 5.6875 10.375C8.27238 10.375 10.375 8.272 10.375 5.6875C10.375 3.103 8.27219 1 5.6875 1ZM5.6875 9.43769C3.61956 9.43769 1.93731 7.75544 1.93731 5.6875C1.93731 3.61994 3.61937 1.93769 5.6875 1.93769C7.75525 1.93769 9.43731 3.61994 9.43731 5.6875C9.43713 7.75544 7.75506 9.43769 5.6875 9.43769Z" fill="white"/>
<path d="M4.45269 4.25069C4.62634 4.0666 4.83388 3.91775 5.06394 3.81231C5.29876 3.70443 5.5544 3.64939 5.81281 3.65106C6.14075 3.65106 6.44169 3.72925 6.716 3.88562C6.98641 4.03855 7.21681 4.25327 7.38837 4.51225L8.05662 4.01256C7.80275 3.66595 7.47288 3.38208 7.09231 3.18269C6.70569 2.97756 6.27894 2.875 5.81262 2.875C5.42844 2.875 5.06731 2.94925 4.72944 3.09812C4.39917 3.24095 4.09923 3.44556 3.84575 3.70094C3.59263 3.95785 3.39056 4.26045 3.25025 4.59269C3.10419 4.93281 3.03125 5.29825 3.03125 5.68769C3.03125 6.07675 3.10419 6.44181 3.25025 6.78287C3.39041 7.11497 3.59251 7.41736 3.84575 7.67388C4.09925 7.92943 4.39917 8.13427 4.72944 8.27744C5.0675 8.42556 5.42862 8.5 5.81262 8.5C6.27894 8.5 6.7055 8.39744 7.09231 8.19213C7.47309 7.99304 7.80302 7.70911 8.05662 7.36225L7.38837 6.86331C7.21652 7.1219 6.98618 7.33638 6.716 7.48938C6.44169 7.64556 6.14075 7.72375 5.81281 7.72375C5.55439 7.72552 5.29873 7.67047 5.06394 7.5625C4.83384 7.45712 4.62629 7.30827 4.45269 7.12412C4.27869 6.94037 4.14031 6.72456 4.03775 6.47894C3.93519 6.23331 3.884 5.96912 3.884 5.68769C3.884 5.40569 3.93519 5.14187 4.03775 4.89606C4.14031 4.65025 4.27869 4.43519 4.45269 4.25069Z" fill="white"/>
</svg>
