<svg width="84" height="32" viewBox="0 0 84 32" fill="none" xmlns="http://www.w3.org/2000/svg">
<path d="M43.4084 11.9694C43.3616 15.3127 46.6958 17.1783 49.2074 18.2876C51.7878 19.4256 52.6546 20.1555 52.6443 21.1733C52.6251 22.7309 50.586 23.4184 48.6779 23.4451C45.3489 23.4918 43.4132 22.6305 41.8744 21.979L40.6752 27.0651C42.2191 27.7099 45.0779 28.2722 48.0424 28.2969C55.0012 28.2969 59.5538 25.1835 59.5784 20.3564C59.6057 14.2301 50.2291 13.891 50.2932 11.1527C50.3153 10.3224 51.1894 9.43637 53.1049 9.21109C54.053 9.09728 56.6703 9.01019 59.6377 10.2487L60.8023 5.3278C59.2065 4.80116 57.1556 4.29688 54.6021 4.29688C48.0523 4.29688 43.4456 7.45263 43.4084 11.9694ZM71.9934 4.72074C70.7227 4.72074 69.6519 5.39253 69.174 6.42345L59.2338 27.9354H66.1874L67.5712 24.4693H76.0684L76.8711 27.9354H83L77.6517 4.72074H71.9934ZM72.9662 10.9919L74.973 19.7093H69.477L72.9662 10.9919ZM34.9775 4.72103L29.4963 27.9351H36.1226L41.6012 4.72045H34.9775V4.72103ZM25.1749 4.72045L18.278 20.5216L15.4881 7.08654C15.1607 5.58676 13.8679 4.72074 12.4323 4.72074H1.15791L1 5.39486C3.31458 5.85007 5.94434 6.58429 7.53758 7.36989C8.51261 7.84978 8.79064 8.26929 9.11095 9.40966L14.3951 27.9354H21.3975L32.1331 4.72074H25.1749" fill="url(#paint0_linear_1_33376)"/>
<defs>
<linearGradient id="paint0_linear_1_33376" x1="38.6987" y1="28.7783" x2="39.3284" y2="4.12647" gradientUnits="userSpaceOnUse">
<stop stop-color="#222357"/>
<stop offset="1" stop-color="#254AA5"/>
</linearGradient>
</defs>
</svg>
