<svg width="55" height="32" viewBox="0 0 55 32" fill="none" xmlns="http://www.w3.org/2000/svg">
<g id="master card">
<path id="Vector" d="M54.332 16C54.332 24.7795 47.1936 32 38.332 32C29.5525 32 22.332 24.7795 22.332 16C22.332 7.22051 29.4705 0 38.25 0C47.1936 0 54.332 7.22051 54.332 16Z" fill="#F9B50B"/>
<path id="Vector_2" d="M32.918 16.0821C32.918 14.9333 32.7538 13.7846 32.5897 12.7179H22.7436C22.8256 12.1436 22.9897 11.6513 23.1538 10.9949H31.9333C31.7692 10.4205 31.5231 9.84615 31.2769 9.2718H23.8103C24.0564 8.69744 24.3846 8.20513 24.7128 7.54872H30.3744C30.0462 6.97436 29.6359 6.4 29.1436 5.82564H26.0256C26.518 5.25128 27.0103 4.75897 27.6667 4.18462C24.8769 1.55897 21.1026 0 16.9179 0C8.22051 0.246154 1 7.22051 1 16C1 24.7795 8.13846 32 17 32C21.1846 32 24.8769 30.359 27.7487 27.8154C28.3231 27.3231 28.8154 26.7487 29.3897 26.0923H26.1077C25.6974 25.6 25.2872 25.0256 24.959 24.4513H30.5385C30.8667 23.959 31.1949 23.3846 31.441 22.7282H23.9744C23.7282 22.2359 23.4821 21.6615 23.318 21.0051H32.0974C32.5897 19.5282 32.918 17.8872 32.918 16.0821Z" fill="#C8191C"/>
<path id="Vector_3" d="M22.6608 20.0995L22.9069 18.6226C22.8249 18.6226 22.6608 18.7046 22.4967 18.7046C21.9223 18.7046 21.8402 18.3764 21.9223 18.2123L22.4146 15.2585H23.3172L23.5633 13.6174H22.7428L22.9069 12.6328H21.1838C21.1838 12.6328 20.1992 18.2123 20.1992 18.8687C20.1992 19.8533 20.7736 20.3456 21.5941 20.3456C22.0864 20.3456 22.4967 20.1815 22.6608 20.0995Z" fill="white"/>
<path id="Vector_4" d="M23.2363 17.3942C23.2363 19.7737 24.8774 20.348 26.1902 20.348C27.4209 20.348 27.9953 20.1019 27.9953 20.1019L28.3235 18.4608C28.3235 18.4608 27.4209 18.8711 26.5184 18.8711C24.6312 18.8711 24.9594 17.4762 24.9594 17.4762H28.4056C28.4056 17.4762 28.6517 16.4096 28.6517 15.9172C28.6517 14.8506 28.0774 13.4557 26.1902 13.4557C24.5491 13.3737 23.2363 15.2608 23.2363 17.3942ZM26.1902 14.9326C27.0927 14.9326 26.9286 15.9993 26.9286 16.0813H25.0415C25.1235 15.9993 25.2876 14.9326 26.1902 14.9326Z" fill="white"/>
<path id="Vector_5" d="M36.9386 20.0997L37.2668 18.2125C37.2668 18.2125 36.4463 18.6228 35.7899 18.6228C34.6412 18.6228 34.0668 17.7202 34.0668 16.6535C34.0668 14.6022 35.0515 13.5356 36.2822 13.5356C37.1027 13.5356 37.8412 14.0279 37.8412 14.0279L38.0874 12.2228C38.0874 12.2228 37.1027 11.8125 36.1181 11.8125C34.1489 11.8125 32.2617 13.5356 32.2617 16.7356C32.2617 18.8689 33.2463 20.2638 35.2976 20.2638C36.0361 20.3458 36.9386 20.0997 36.9386 20.0997Z" fill="white"/>
<path id="Vector_6" d="M13.3895 13.375C12.2407 13.375 11.3382 13.7032 11.3382 13.7032L11.092 15.1801C11.092 15.1801 11.8305 14.8519 12.9792 14.8519C13.5536 14.8519 14.0459 14.934 14.0459 15.4263C14.0459 15.7545 13.9638 15.8365 13.9638 15.8365H13.2254C11.7484 15.8365 10.1895 16.4109 10.1895 18.3801C10.1895 19.9391 11.1741 20.2673 11.8305 20.2673C12.9792 20.2673 13.5536 19.5288 13.6356 19.5288L13.5536 20.1853H14.9484L15.6048 15.5083C15.6048 13.4571 13.9638 13.375 13.3895 13.375ZM13.7177 17.1494C13.7177 17.3955 13.5536 18.7904 12.5689 18.7904C12.0766 18.7904 11.9125 18.3801 11.9125 18.134C11.9125 17.7237 12.1587 17.1494 13.4715 17.1494C13.6356 17.1494 13.7177 17.1494 13.7177 17.1494Z" fill="white"/>
<path id="Vector_7" d="M17.2466 20.2634C17.6569 20.2634 19.7902 20.3455 19.7902 18.048C19.7902 15.9147 17.7389 16.325 17.7389 15.5044C17.7389 15.0942 18.0671 14.9301 18.6415 14.9301C18.8876 14.9301 19.7902 15.0121 19.7902 15.0121L20.0363 13.4532C20.0363 13.4532 19.462 13.2891 18.3953 13.2891C17.1645 13.2891 15.8517 13.7814 15.8517 15.5044C15.8517 17.4737 17.9851 17.3096 17.9851 18.048C17.9851 18.5403 17.4107 18.6224 17.0004 18.6224C16.262 18.6224 15.4415 18.3762 15.4415 18.3762L15.1953 19.9352C15.3594 20.0993 15.8517 20.2634 17.2466 20.2634Z" fill="white"/>
<path id="Vector_8" d="M51.052 12.0625L50.7238 14.3599C50.7238 14.3599 50.0673 13.5394 49.0827 13.5394C47.5238 13.5394 46.2109 15.4266 46.2109 17.642C46.2109 19.0369 46.8673 20.4317 48.3443 20.4317C49.3289 20.4317 49.9853 19.7753 49.9853 19.7753L49.9032 20.3497H51.6263L52.8571 12.2266L51.052 12.0625ZM50.2315 16.4933C50.2315 17.3958 49.8212 18.6266 48.8366 18.6266C48.2622 18.6266 47.934 18.1343 47.934 17.2317C47.934 15.8369 48.5084 15.0163 49.3289 15.0163C49.9032 15.0984 50.2315 15.5087 50.2315 16.4933Z" fill="white"/>
<path id="Vector_9" d="M4.11759 20.1856L5.1022 14.1138L5.26631 20.1856H6.41502L8.63041 14.1138L7.72784 20.1856H9.53297L10.9278 12.0625H8.1381L6.41502 17.0676L6.33297 12.0625H3.87143L2.47656 20.1856H4.11759Z" fill="white"/>
<path id="Vector_10" d="M30.3755 20.1852C30.8678 17.3955 30.9498 15.098 32.1806 15.5083C32.3447 14.4416 32.5908 13.9493 32.7549 13.5391H32.4267C31.6883 13.5391 31.0319 14.5237 31.0319 14.5237L31.196 13.6211H29.5549L28.4883 20.1852H30.3755Z" fill="white"/>
<path id="Vector_11" d="M40.8758 13.375C39.7271 13.375 38.8245 13.7032 38.8245 13.7032L38.5783 15.1801C38.5783 15.1801 39.3168 14.8519 40.4655 14.8519C41.0399 14.8519 41.5322 14.934 41.5322 15.4263C41.5322 15.7545 41.4501 15.8365 41.4501 15.8365H40.7117C39.2348 15.8365 37.6758 16.4109 37.6758 18.3801C37.6758 19.9391 38.6604 20.2673 39.3168 20.2673C40.4655 20.2673 41.0399 19.5288 41.1219 19.5288L41.0399 20.1853H42.5989L43.2553 15.5083C43.2553 13.4571 41.4501 13.375 40.8758 13.375ZM41.286 17.1494C41.286 17.3955 41.1219 18.7904 40.1373 18.7904C39.645 18.7904 39.4809 18.3801 39.4809 18.134C39.4809 17.7237 39.7271 17.1494 41.0399 17.1494C41.204 17.1494 41.204 17.1494 41.286 17.1494Z" fill="white"/>
<path id="Vector_12" d="M44.5688 20.1852C45.0611 17.3955 45.1432 15.098 46.3739 15.5083C46.5381 14.4416 46.7842 13.9493 46.9483 13.5391H46.6201C45.8816 13.5391 45.2252 14.5237 45.2252 14.5237L45.3893 13.6211H43.7483L42.6816 20.1852H44.5688Z" fill="white"/>
</g>
</svg>
