<svg width="104" height="32" viewBox="0 0 104 32" fill="none" xmlns="http://www.w3.org/2000/svg">
<g clip-path="url(#clip0_1_33393)">
<path fill-rule="evenodd" clip-rule="evenodd" d="M11.9104 18.0693C11.764 18.5146 11.5282 18.8398 11.2029 19.0456C10.9107 19.2386 10.4918 19.3684 9.94728 19.4346C9.37581 19.5148 8.4791 19.554 7.25654 19.554C6.3531 19.554 5.61197 19.5173 5.03437 19.4444C4.48986 19.3715 4.0807 19.2618 3.80875 19.1155C3.61581 19.0028 3.45656 18.8698 3.33039 18.7173C3.19747 18.5575 3.0909 18.3651 3.01127 18.1391C2.83854 17.6675 2.75218 16.93 2.75218 15.9268C2.75218 15.0833 2.83181 14.4353 2.99106 13.9839C3.14418 13.5515 3.37694 13.2262 3.6887 13.0069C3.968 12.8207 4.39676 12.6915 4.97435 12.618C5.62544 12.5384 6.58217 12.4986 7.84455 12.4986C8.64815 12.4986 9.3458 12.5384 9.93748 12.618C10.4753 12.6976 10.8642 12.8073 11.1031 12.9469C11.2954 13.0596 11.4553 13.1895 11.5814 13.3359C11.7211 13.5019 11.8271 13.6911 11.9006 13.9037C12.0733 14.3753 12.1596 15.0993 12.1596 16.0762C12.1596 16.9398 12.0763 17.6044 11.9104 18.0693ZM14.1527 13.0265C14.0063 12.6284 13.7975 12.2732 13.5249 11.9602C13.2524 11.6417 12.9271 11.3722 12.548 11.1535C12.05 10.8613 11.4253 10.6617 10.6749 10.5551C9.924 10.4559 8.85457 10.4062 7.46602 10.4062C6.65506 10.4062 5.95436 10.4289 5.36329 10.4755C4.75201 10.5288 4.28712 10.6047 3.968 10.7052C3.60234 10.8179 3.2771 10.9808 2.99106 11.1933C2.92491 11.2466 2.85814 11.306 2.79199 11.3722V10.8742C2.79199 10.7811 2.75892 10.7015 2.69216 10.6353C2.626 10.5686 2.54944 10.5355 2.46308 10.5355H0.838715C0.745614 10.5355 0.662926 10.5686 0.589426 10.6353C0.530013 10.6954 0.5 10.7744 0.5 10.8742V24.9055C0.5 25.0047 0.530013 25.0849 0.589426 25.145C0.662926 25.2111 0.745614 25.2442 0.838715 25.2442H2.46308C2.54944 25.2442 2.626 25.2111 2.69216 25.145C2.75892 25.0782 2.79199 24.998 2.79199 24.9055V20.73C3.13745 21.0222 3.54292 21.2347 4.00782 21.3676C4.33367 21.4675 4.78202 21.5404 5.35349 21.5869C5.89801 21.6335 6.54236 21.6567 7.28655 21.6567C8.31617 21.6567 9.19328 21.6267 9.91726 21.5667C10.6682 21.5073 11.2495 21.4142 11.6611 21.288C12.1064 21.1551 12.5082 20.9524 12.8671 20.6798C13.2321 20.4011 13.5415 20.0624 13.7938 19.6636C14.0529 19.2716 14.2452 18.7602 14.372 18.1293C14.4982 17.5376 14.5613 16.84 14.5613 16.0364C14.5613 14.7538 14.4247 13.7511 14.1527 13.0265Z" fill="#0D7FC3"/>
<path fill-rule="evenodd" clip-rule="evenodd" d="M27.1485 18.8832C27.0486 19.0424 26.8888 19.1655 26.6701 19.2519C26.4306 19.3585 26.0356 19.4381 25.4837 19.4908C24.9527 19.5373 24.2421 19.5606 23.3516 19.5606C21.7768 19.5606 20.6572 19.5214 19.9932 19.4411C19.7604 19.4215 19.5847 19.3909 19.4652 19.3511L19.3256 19.3119C19.1326 19.2188 18.9899 19.089 18.8968 18.923C18.8043 18.7435 18.7578 18.5144 18.7578 18.2351C18.7578 17.943 18.7976 17.7004 18.8766 17.5075C18.9636 17.3354 19.0793 17.2055 19.2263 17.1191C19.3323 17.0659 19.4517 17.026 19.5847 16.9997C19.7574 16.9599 19.9736 16.9262 20.2327 16.8999C20.7441 16.8533 21.6739 16.8307 23.0226 16.8307C23.9794 16.8307 24.7334 16.8601 25.2846 16.9201C25.8696 16.9728 26.3044 17.053 26.5905 17.159C26.8294 17.2521 27.0088 17.3819 27.1283 17.5479C27.2416 17.7071 27.2979 17.9234 27.2979 18.1953C27.2979 18.4679 27.2477 18.697 27.1485 18.8832ZM29.6695 14.1595C29.6493 13.7608 29.6065 13.4049 29.5397 13.0938C29.4203 12.5413 29.1581 12.0568 28.7526 11.6384C28.2743 11.1466 27.6103 10.811 26.7595 10.6315C26.3608 10.5525 25.8396 10.4925 25.1952 10.4526C24.5104 10.4055 23.7503 10.3828 22.913 10.3828C21.7701 10.3828 20.814 10.4324 20.0428 10.5323C19.2594 10.6382 18.6414 10.7975 18.1894 11.01C17.7177 11.2428 17.3656 11.5717 17.1334 11.9974C16.9007 12.4157 16.7843 12.9235 16.7843 13.5213L16.8045 14.0101C16.818 14.0897 16.8541 14.1595 16.9141 14.2189C16.9803 14.279 17.0569 14.309 17.1432 14.309H18.8374C18.9366 14.309 19.0169 14.279 19.0763 14.2189C19.143 14.1528 19.1761 14.0695 19.1761 13.9703V13.8306C19.1761 13.5317 19.2263 13.2959 19.3256 13.1232C19.4119 12.97 19.5516 12.8543 19.7439 12.774C19.837 12.7342 19.9828 12.695 20.1825 12.6546L20.8899 12.5548C21.4479 12.5088 22.1621 12.4855 23.0324 12.4855C23.7038 12.4855 24.2752 12.5021 24.7468 12.5352C25.205 12.5682 25.5805 12.6117 25.8726 12.6644C26.1581 12.7312 26.3847 12.8138 26.5507 12.9137C26.743 13.0203 26.8925 13.1434 26.999 13.2824C27.1319 13.4417 27.2318 13.6609 27.2979 13.9402C27.3708 14.2459 27.4076 14.6146 27.4076 15.0464V15.4648C27.3212 15.3919 27.2318 15.3257 27.1387 15.2657C26.8459 15.093 26.5207 14.9699 26.1617 14.897C25.8298 14.8437 25.3048 14.7971 24.587 14.7573C23.8832 14.7242 23.003 14.7077 21.9465 14.7077C21.1429 14.7077 20.4783 14.7242 19.9534 14.7573C19.4156 14.7904 18.9532 14.8437 18.5685 14.9166C18.3358 14.9564 18.1263 15.0164 17.9407 15.096V15.1064C17.6479 15.2259 17.4023 15.3723 17.2032 15.5444C16.9968 15.7306 16.8278 15.9529 16.6949 16.212C16.456 16.6971 16.3359 17.3617 16.3359 18.2051C16.3359 18.8899 16.4156 19.4381 16.5754 19.8497C16.7347 20.268 17.0232 20.6239 17.4421 20.9161C17.6412 21.0753 17.8972 21.2082 18.2096 21.3148C18.495 21.4146 18.8239 21.4875 19.1963 21.5341H19.2055C19.5448 21.5733 20.0428 21.607 20.7006 21.6333C21.5379 21.6535 22.3054 21.6633 23.003 21.6633C23.7601 21.6633 24.4345 21.6431 25.0255 21.6039C25.6172 21.5506 26.049 21.4875 26.3216 21.4146C26.7332 21.2946 27.1013 21.0918 27.4272 20.8064L27.4076 21.1849C27.4076 21.2713 27.4406 21.3546 27.5068 21.4342C27.5803 21.5004 27.663 21.5341 27.7561 21.5341H29.3804C29.4668 21.5341 29.5428 21.5004 29.6101 21.4342C29.683 21.3675 29.7192 21.2878 29.7192 21.1947V15.7539C29.7192 15.1358 29.7026 14.6048 29.6695 14.1595Z" fill="#0D7FC3"/>
<path fill-rule="evenodd" clip-rule="evenodd" d="M33.1461 10.7081L37.95 19.3481L42.3839 10.7185C42.4507 10.5991 42.5505 10.5391 42.6835 10.5391H44.5963C44.7225 10.5391 44.8193 10.5917 44.8854 10.6989C44.9516 10.8178 44.9552 10.9274 44.8958 11.0272L39.8733 20.624V20.6338C39.2553 21.7969 38.7769 22.6207 38.4382 23.1058C38.0725 23.6167 37.664 24.0319 37.2126 24.351C36.7875 24.6432 36.322 24.846 35.8173 24.9587C35.3456 25.0585 34.6676 25.1118 33.7844 25.1185C33.4187 25.1185 33.1033 25.1118 32.8374 25.0983C32.7511 25.0916 32.6782 25.0585 32.6182 24.9991C32.552 24.9323 32.5183 24.8527 32.5183 24.7596V23.2645C32.5183 23.1652 32.5551 23.0819 32.628 23.0158C32.7015 22.9558 32.7909 22.9294 32.8975 22.9362C33.17 22.9625 33.4089 22.9754 33.6147 22.9754C34.1329 22.9754 34.5714 22.9429 34.9304 22.8761C35.2819 22.8161 35.5514 22.7334 35.7376 22.6268V22.617C35.9104 22.5239 36.1064 22.3445 36.325 22.0787C36.4512 21.9194 36.5847 21.7301 36.7238 21.5109C36.6178 21.4974 36.5278 21.441 36.4549 21.3412L30.6551 11.0474C30.5889 10.9347 30.5889 10.8178 30.6551 10.6989C30.7212 10.5917 30.818 10.5391 30.9442 10.5391H32.8576C32.9832 10.5391 33.08 10.5954 33.1461 10.7081Z" fill="#0D7FC3"/>
<path d="M39.3001 28.0001H39.6725C44.1573 28.0001 47.964 27.5885 51.0927 26.7646C51.3187 26.6979 51.5416 26.6354 51.7603 26.5754C56.0387 25.3191 58.4072 23.3095 58.866 20.5459C59.0185 19.6492 58.673 18.6894 57.8296 17.6665C57.4297 17.1814 56.8563 16.6246 56.1164 16.0005H56.1171C55.7593 15.7212 55.3649 15.4253 54.9325 15.1117C53.3112 13.9357 52.2852 13.1486 51.8534 12.7499C50.95 11.9132 50.5475 11.1923 50.6474 10.5878C51.0259 8.30924 53.6866 6.58811 58.6295 5.42557C59.1612 5.2994 59.7192 5.17996 60.3035 5.06664C60.3911 5.05011 60.4781 5.03663 60.5657 5.02009C61.0134 4.93679 61.4599 4.85778 61.9058 4.7855C62.2537 4.72977 62.6004 4.68015 62.9471 4.63176C63.1131 4.60726 63.2785 4.58338 63.4438 4.56133C63.8812 4.50375 64.3173 4.45169 64.7528 4.40453C64.806 4.3984 64.8599 4.39289 64.9132 4.38738C65.3941 4.33654 65.8743 4.29182 66.3532 4.25385V4.25017C66.3545 4.24956 66.352 4.25385 66.3532 4.25385C66.4218 4.25385 66.4812 4.19382 66.4812 4.12522C66.4812 4.05601 66.4255 4.00027 66.3569 4.00027C66.3545 4.00027 66.3581 3.99966 66.3569 4.00027C66.2375 3.99966 66.118 4.00027 65.9937 4.00027H65.987C65.9833 4.00027 65.9808 4.00088 65.9772 4.00088C65.9073 4.00088 65.8418 4.00272 65.7726 4.00333C65.285 4.00456 64.8024 4.00885 64.3307 4.01987C64.0594 4.02661 63.7979 4.03947 63.5314 4.04927C63.2705 4.05846 63.0041 4.0652 62.748 4.07806C59.639 4.23241 56.9109 4.61829 54.5644 5.23631C54.3383 5.30307 54.116 5.36555 53.8961 5.42557C49.6184 6.68121 47.2498 8.69083 46.7911 11.4545C46.6379 12.3518 46.984 13.3116 47.8274 14.3345C48.2274 14.8196 48.8007 15.3757 49.5406 16.0005H49.54C49.8977 16.2798 50.2921 16.5756 50.7246 16.8892C52.3452 18.0646 53.3718 18.8523 53.8036 19.2504C54.7071 20.0877 55.1095 20.8086 55.0096 21.4132C54.6311 23.6917 51.9704 25.4122 47.0275 26.5754C46.4958 26.7015 45.9378 26.821 45.3535 26.9343C45.2659 26.9508 45.1783 26.9643 45.0914 26.9802C44.6436 27.0635 44.1971 27.1432 43.7518 27.2154C43.4033 27.2712 43.0566 27.3202 42.7099 27.3692C42.5446 27.3931 42.3786 27.4176 42.2132 27.4396C41.7759 27.4972 41.3398 27.5493 40.9043 27.5964C40.851 27.6019 40.7971 27.6081 40.7432 27.6136C40.263 27.6638 39.3038 27.7471 39.3001 27.7471C39.2315 27.7471 39.1758 27.8071 39.1758 27.8757C39.1758 27.9443 39.2315 28.0001 39.3001 28.0001Z" fill="#F37520"/>
<path d="M63.2033 14.6619C63.2492 14.3361 63.3258 14.047 63.4317 13.7946C63.5518 13.4957 63.7178 13.2636 63.9303 13.097L63.9407 13.0872C64.2127 12.8746 64.5949 12.7283 65.0861 12.6486C65.6312 12.5488 66.4189 12.4992 67.4479 12.4992C68.6441 12.4992 69.5439 12.5488 70.1484 12.6486C70.7328 12.7485 71.1713 12.9145 71.4641 13.1472C71.6766 13.3132 71.8396 13.5392 71.9523 13.8246C72.0454 14.0703 72.1054 14.3496 72.1317 14.6619H63.2033ZM74.5138 16.6348C74.5866 16.5687 74.6228 16.489 74.6228 16.3953C74.6032 15.1532 74.5205 14.2197 74.3741 13.5956C74.221 12.9641 73.9257 12.3963 73.4872 11.8916C72.9617 11.2938 72.2714 10.895 71.4145 10.696C71.0157 10.5961 70.4841 10.5226 69.8201 10.4761C69.1623 10.4295 68.3881 10.4062 67.4981 10.4062C66.5347 10.4062 65.7274 10.4399 65.0763 10.5061C64.3989 10.5661 63.8439 10.6653 63.4121 10.805C62.9607 10.9514 62.5754 11.1609 62.2563 11.4328C61.9243 11.6986 61.6414 12.0343 61.4092 12.4398C61.1697 12.8514 60.9903 13.3665 60.8708 13.9845C60.7575 14.5688 60.7012 15.2597 60.7012 16.0566C60.7012 17.1799 60.8347 18.1299 61.0999 18.9072C61.3927 19.7041 61.8276 20.3086 62.4058 20.7208C62.9105 21.073 63.6345 21.3186 64.5783 21.4583C65.5216 21.5906 66.8501 21.6573 68.5639 21.6573C69.6205 21.6573 70.5239 21.5979 71.2748 21.4779C72.0588 21.3382 72.6762 21.1392 73.1283 20.8801C73.6066 20.5947 73.9649 20.2094 74.2044 19.7243C74.4507 19.2527 74.5799 18.6812 74.5934 18.0099C74.5934 17.9107 74.5597 17.8304 74.4935 17.771C74.4268 17.7042 74.3508 17.6712 74.2645 17.6712H72.5501C72.4576 17.6712 72.381 17.6975 72.321 17.7508C72.261 17.8176 72.2248 17.8904 72.2113 17.9701C72.1844 18.2163 72.1452 18.4154 72.0919 18.5685C72.0454 18.721 71.989 18.8337 71.9222 18.9072C71.9222 18.9139 71.9192 18.917 71.9124 18.917C71.7997 19.0297 71.6668 19.1228 71.5137 19.1957C71.3349 19.2888 71.1254 19.3586 70.8859 19.4052C70.3677 19.505 69.5341 19.5546 68.385 19.5546C67.6739 19.5546 67.013 19.5448 66.4017 19.5246C65.8768 19.4915 65.4389 19.445 65.0861 19.385H65.0965C64.8037 19.3384 64.5348 19.2625 64.2892 19.1565C64.0565 19.0432 63.8868 18.9268 63.7808 18.8074C63.5812 18.6083 63.4287 18.3155 63.3227 17.9303C63.2296 17.605 63.1665 17.2063 63.1334 16.7346H74.2743C74.3741 16.7346 74.4537 16.701 74.5138 16.6348Z" fill="#F37520"/>
<path d="M87.2383 11.2638C86.8598 10.9379 86.3845 10.7088 85.8136 10.5759C85.282 10.4632 84.501 10.4062 83.4714 10.4062C83.1131 10.4062 82.7872 10.4099 82.4951 10.4167C81.9432 10.4295 81.4918 10.4565 81.1396 10.4963C80.5884 10.5557 80.1363 10.6788 79.7841 10.865C79.4852 11.0175 79.2268 11.2007 79.0069 11.4126V10.8748C79.0069 10.7817 78.9738 10.7021 78.9076 10.6359C78.8341 10.5692 78.7515 10.5361 78.6584 10.5361H77.034C76.9476 10.5361 76.8717 10.5692 76.8049 10.6359C76.7388 10.7021 76.7051 10.7817 76.7051 10.8748V21.1888C76.7051 21.2819 76.7388 21.3615 76.8049 21.4283C76.8717 21.4944 76.9476 21.5275 77.034 21.5275H78.6584C78.7515 21.5275 78.8341 21.4944 78.9076 21.4283C78.9738 21.3615 79.0069 21.2819 79.0069 21.1888V16.4259C79.0069 15.7742 79.0436 15.2034 79.1171 14.7115C79.19 14.2399 79.296 13.8645 79.4356 13.5858C79.522 13.4124 79.6182 13.2801 79.7247 13.187C79.838 13.0872 79.9906 12.9941 80.1829 12.9077C80.396 12.8214 80.6453 12.7485 80.9301 12.6884C81.376 12.596 81.8973 12.5359 82.4951 12.5096C82.7407 12.5029 83.0029 12.4992 83.2822 12.4992C83.8934 12.4992 84.4153 12.5457 84.8465 12.6388C85.2189 12.7185 85.4847 12.8348 85.644 12.988C85.7897 13.127 85.8933 13.3132 85.9533 13.5453V13.5557C86.0262 13.8479 86.0623 14.2528 86.0623 14.7716V15.509C86.0623 15.5954 86.0954 15.675 86.1622 15.7479C86.2283 15.8147 86.3085 15.8477 86.4016 15.8477H88.0652C88.1589 15.8477 88.2385 15.8147 88.3047 15.7479C88.3782 15.675 88.4143 15.5954 88.4143 15.509V14.442C88.4015 13.7052 88.3047 13.0872 88.1252 12.5892C87.9329 12.0508 87.6371 11.6092 87.2383 11.2638Z" fill="#F37520"/>
<path d="M100.493 18.8832C100.4 19.0424 100.244 19.1655 100.025 19.2519C99.7787 19.3585 99.3867 19.4381 98.8489 19.4908C98.3105 19.5373 97.6 19.5606 96.7162 19.5606C95.1353 19.5606 94.012 19.5208 93.348 19.4411C93.1287 19.4215 92.953 19.3909 92.8194 19.3511L92.67 19.3119C92.4777 19.2121 92.338 19.0822 92.2516 18.923C92.1524 18.73 92.1022 18.501 92.1022 18.2351C92.1022 17.9564 92.1457 17.7139 92.2314 17.5075C92.3178 17.3354 92.4378 17.2055 92.591 17.1191C92.67 17.0726 92.79 17.0328 92.9493 16.9997C93.1153 16.9532 93.3284 16.9201 93.5875 16.8999C94.1118 16.8533 95.0422 16.8307 96.3775 16.8307C97.3409 16.8307 98.0949 16.8601 98.6395 16.9201C99.2311 16.9734 99.6666 17.053 99.9453 17.159C100.191 17.2521 100.373 17.3819 100.493 17.5479C100.606 17.7071 100.663 17.9234 100.663 18.1953C100.663 18.4746 100.606 18.7037 100.493 18.8832ZM103.024 14.1595C103.005 13.7608 102.964 13.4049 102.905 13.0938C102.779 12.5352 102.51 12.0501 102.098 11.6384H102.108C101.622 11.1466 100.961 10.811 100.124 10.6315C99.7193 10.5457 99.1944 10.4857 98.55 10.4526C97.8726 10.4061 97.1119 10.3828 96.2678 10.3828C95.1249 10.3828 94.1718 10.4324 93.4074 10.5323C92.624 10.6382 92.006 10.7975 91.554 11.01C91.0824 11.2428 90.7271 11.5717 90.4882 11.9974C90.2555 12.4157 90.1391 12.9235 90.1391 13.5213L90.1691 14.0101C90.1753 14.0964 90.212 14.1663 90.2788 14.2189C90.3388 14.279 90.4117 14.309 90.498 14.309H92.202C92.2951 14.309 92.3754 14.279 92.4409 14.2189C92.5009 14.1528 92.5309 14.0695 92.5309 13.9703V13.8306C92.5309 13.5317 92.5806 13.2959 92.6804 13.1232C92.7735 12.9633 92.9131 12.8475 93.0987 12.774C93.179 12.741 93.3248 12.7011 93.5379 12.6546L94.2447 12.5548C94.8027 12.5088 95.5206 12.4855 96.3977 12.4855C97.0616 12.4855 97.6331 12.5021 98.1115 12.5352C98.5702 12.5682 98.9384 12.6117 99.2177 12.6644H99.2275C99.5061 12.7312 99.7328 12.8138 99.9049 12.9137C100.098 13.0203 100.247 13.1434 100.354 13.2824C100.48 13.4349 100.583 13.6542 100.663 13.9402C100.736 14.2459 100.772 14.6146 100.772 15.0464V15.4648C100.679 15.3919 100.587 15.3257 100.493 15.2657C100.201 15.093 99.8755 14.9699 99.5166 14.897C99.1711 14.8437 98.6462 14.7971 97.9418 14.7573C97.2442 14.7242 96.3609 14.7077 95.2915 14.7077C94.494 14.7077 93.8331 14.7242 93.3082 14.7573C92.7698 14.7904 92.3086 14.8437 91.9227 14.9166C91.6967 14.9564 91.4915 15.0164 91.3047 15.096V15.1064C91.0132 15.2192 90.7669 15.3649 90.5673 15.5444C90.3615 15.7306 90.1893 15.9529 90.0497 16.212C89.8169 16.6971 89.7012 17.3617 89.7012 18.2051C89.7012 18.8899 89.7771 19.4381 89.9302 19.8497C90.0895 20.2686 90.3817 20.627 90.8074 20.9259C91.0058 21.079 91.2582 21.2082 91.5644 21.3148C91.8437 21.4146 92.172 21.4875 92.5505 21.5335C92.9027 21.5733 93.4044 21.607 94.0555 21.6333C94.8995 21.6535 95.67 21.6633 96.3677 21.6633C97.1253 21.6633 97.796 21.6431 98.3804 21.6039C98.9782 21.5506 99.41 21.4875 99.6758 21.4146C100.081 21.2946 100.45 21.0918 100.782 20.8064L100.772 21.1849C100.772 21.2842 100.802 21.3675 100.862 21.4342C100.942 21.5004 101.021 21.5335 101.1 21.5335H102.735C102.828 21.5335 102.908 21.5004 102.974 21.4342C103.041 21.3675 103.074 21.2878 103.074 21.1947V15.7539C103.074 15.1358 103.057 14.6048 103.024 14.1595Z" fill="#F37520"/>
</g>
<defs>
<clipPath id="clip0_1_33393">
<rect width="103" height="32" fill="white" transform="translate(0.5)"/>
</clipPath>
</defs>
</svg>
