<svg width="66" height="23" viewBox="0 0 66 23" fill="none" xmlns="http://www.w3.org/2000/svg">
<g clip-path="url(#clip0_1_33405)">
<path d="M0.53125 20.9228L1.19186 20.859C1.23518 21.0826 1.31099 21.2423 1.44095 21.3488C1.56007 21.4552 1.73335 21.4978 1.93911 21.4978C2.15571 21.4978 2.32898 21.4552 2.43728 21.3594C2.54558 21.2636 2.61055 21.1571 2.61055 21.04C2.61055 20.9654 2.5889 20.8909 2.53475 20.8377C2.49143 20.7844 2.40479 20.7312 2.28566 20.6886C2.20986 20.6566 2.02575 20.6141 1.73335 20.5395C1.36514 20.4543 1.10522 20.3372 0.964438 20.2094C0.758674 20.0284 0.650377 19.8048 0.650377 19.5386C0.650377 19.3682 0.704525 19.2085 0.801993 19.0594C0.89946 18.9104 1.04025 18.8039 1.22435 18.7187C1.40846 18.6442 1.62505 18.6016 1.88496 18.6016C2.30732 18.6016 2.63221 18.6974 2.84881 18.8784C3.0654 19.0594 3.1737 19.3043 3.18453 19.6131L2.50226 19.6344C2.46977 19.4641 2.40479 19.3363 2.31815 19.2617C2.22068 19.1872 2.0799 19.1446 1.88496 19.1446C1.69003 19.1446 1.52758 19.1872 1.41929 19.2617C1.34348 19.315 1.31099 19.3789 1.31099 19.4641C1.31099 19.5386 1.34348 19.6131 1.40846 19.6664C1.49509 19.7409 1.70086 19.8154 2.03658 19.89C2.3723 19.9645 2.61055 20.0497 2.773 20.1349C2.93545 20.2201 3.05457 20.3266 3.15204 20.4756C3.23868 20.6247 3.282 20.7951 3.282 21.008C3.282 21.1997 3.22785 21.3807 3.11955 21.5511C3.01125 21.7215 2.85964 21.8386 2.6647 21.9238C2.46977 22.0089 2.22069 22.0409 1.92828 22.0409C1.49509 22.0409 1.1702 21.9451 0.942779 21.7427C0.715355 21.583 0.574569 21.2955 0.53125 20.9228Z" fill="#00489A"/>
<path d="M4.00781 18.6797H4.65759V19.2653H4.00781V18.6797ZM4.00781 19.5954H4.65759V22.0125H4.00781V19.5954Z" fill="#00489A"/>
<path d="M7.70162 22.0122H7.05184V20.7771C7.05184 20.5109 7.04101 20.3512 7.00852 20.266C6.97603 20.1914 6.93271 20.1275 6.87857 20.0849C6.81359 20.0424 6.73778 20.0211 6.65114 20.0211C6.54284 20.0211 6.43455 20.053 6.34791 20.1169C6.26127 20.1808 6.19629 20.2553 6.1638 20.3618C6.13131 20.4576 6.12049 20.6493 6.12049 20.9155V22.0122H5.4707V19.5951H6.07717V19.9465C6.29376 19.6697 6.5645 19.5312 6.8894 19.5312C7.03018 19.5312 7.16014 19.5525 7.27926 19.6058C7.39839 19.659 7.48503 19.7229 7.55001 19.7975C7.61499 19.872 7.6583 19.9678 7.67996 20.0637C7.70162 20.1595 7.71245 20.3086 7.71245 20.4896V22.0122" fill="#00489A"/>
<path d="M8.4382 22.1691L9.17462 22.2437C9.18545 22.3395 9.21794 22.3928 9.26126 22.4353C9.32623 22.4886 9.4237 22.5099 9.55366 22.5099C9.72693 22.5099 9.85689 22.4886 9.9327 22.4353C9.98685 22.4034 10.0302 22.3502 10.0627 22.2756C10.0843 22.2224 10.0951 22.1266 10.0951 21.9775V21.6261C9.90021 21.8816 9.66196 22.0094 9.35872 22.0094C9.023 22.0094 8.76309 21.871 8.57899 21.5941C8.42737 21.3812 8.35156 21.1043 8.35156 20.7849C8.35156 20.3803 8.44903 20.0715 8.64396 19.8585C8.8389 19.6455 9.08798 19.5391 9.38038 19.5391C9.68361 19.5391 9.9327 19.6668 10.1276 19.933V19.603H10.7341V21.7752C10.7341 22.0627 10.7124 22.2756 10.6583 22.414C10.615 22.5525 10.5392 22.6696 10.4525 22.7441C10.3659 22.8187 10.2468 22.8826 10.106 22.9358C9.96519 22.9784 9.78108 22.9997 9.55366 22.9997C9.1313 22.9997 8.8389 22.9252 8.66562 22.7867C8.49235 22.6483 8.40571 22.4673 8.40571 22.2437C8.4382 22.2224 8.4382 22.2011 8.4382 22.1691ZM9.023 20.7529C9.023 21.0085 9.07715 21.2002 9.17462 21.3173C9.27209 21.4344 9.40204 21.4983 9.54283 21.4983C9.69444 21.4983 9.83523 21.4344 9.94353 21.3173C10.0518 21.2002 10.106 21.0191 10.106 20.7742C10.106 20.5187 10.0518 20.3377 9.95436 20.2205C9.85689 20.1034 9.7161 20.0395 9.56449 20.0395C9.41287 20.0395 9.28292 20.0928 9.18545 20.2205C9.07715 20.327 9.023 20.508 9.023 20.7529Z" fill="#00489A"/>
<path d="M12.1849 18.6797H11.5352V22.0125H12.1849V18.6797Z" fill="#00489A"/>
<path d="M14.4272 21.2562L15.077 21.3627C14.9903 21.597 14.8604 21.7673 14.6763 21.8951C14.4922 22.0229 14.2756 22.0761 14.0048 22.0761C13.5716 22.0761 13.2576 21.9377 13.0518 21.6609C12.8894 21.4373 12.8027 21.1604 12.8027 20.8197C12.8027 20.415 12.911 20.1062 13.1276 19.872C13.3442 19.6484 13.615 19.5312 13.9399 19.5312C14.3081 19.5312 14.6005 19.6484 14.8062 19.8826C15.0228 20.1275 15.1203 20.4896 15.1095 20.9794H13.4742C13.4742 21.171 13.5283 21.3201 13.6366 21.4266C13.7341 21.5331 13.864 21.5863 14.0157 21.5863C14.124 21.5863 14.1998 21.565 14.2756 21.5011C14.3406 21.4585 14.3947 21.3734 14.4272 21.2562ZM14.4597 20.6067C14.4597 20.415 14.4055 20.2766 14.3081 20.1808C14.2106 20.0849 14.1023 20.0317 13.9723 20.0317C13.8316 20.0317 13.7124 20.0849 13.615 20.1808C13.5175 20.2873 13.4742 20.4257 13.4742 20.6067H14.4597Z" fill="#00489A"/>
<path d="M17.2422 22.0125V18.6797H19.7547V19.244H17.9353V19.9788H19.6247V20.5431H17.9353V21.4588H19.8197V22.0125H17.2422Z" fill="#00489A"/>
<path d="M22.1587 22.008V21.646C22.0721 21.7738 21.953 21.8803 21.8013 21.9548C21.6497 22.0293 21.4981 22.0719 21.3357 22.0719C21.1732 22.0719 21.0216 22.04 20.8916 21.9654C20.7617 21.8909 20.6642 21.7951 20.6101 21.6673C20.5559 21.5395 20.5234 21.3585 20.5234 21.1349V19.6016H21.1732V20.709C21.1732 21.0497 21.184 21.252 21.2057 21.3372C21.2274 21.4117 21.2707 21.4756 21.3357 21.5182C21.4006 21.5608 21.4764 21.5821 21.5739 21.5821C21.6822 21.5821 21.7797 21.5502 21.8771 21.4969C21.9638 21.433 22.0288 21.3585 22.0613 21.2733C22.0937 21.1881 22.1046 20.9645 22.1046 20.6238V19.6016H22.7544V22.008H22.1587Z" fill="#00489A"/>
<path d="M24.1967 22.0094H23.5469V19.5923H24.1533V19.933C24.2616 19.7733 24.3483 19.6668 24.4349 19.6136C24.5216 19.5604 24.6082 19.5391 24.7165 19.5391C24.8681 19.5391 25.0089 19.5817 25.1497 19.6562L24.9547 20.2099C24.8464 20.1354 24.7381 20.1034 24.6515 20.1034C24.5649 20.1034 24.4782 20.1247 24.4241 20.1779C24.3591 20.2312 24.305 20.3164 24.2725 20.4441C24.24 20.5719 24.2183 20.8488 24.2183 21.2534V22.0094" fill="#00489A"/>
<path d="M25.3984 20.7742C25.3984 20.5613 25.4526 20.359 25.5609 20.1567C25.6692 19.9543 25.8208 19.8053 26.0157 19.6988C26.2107 19.5923 26.4273 19.5391 26.6655 19.5391C27.0337 19.5391 27.3478 19.6562 27.5752 19.8905C27.8135 20.1354 27.9326 20.4335 27.9326 20.7955C27.9326 21.1682 27.8135 21.4664 27.5752 21.7113C27.337 21.9562 27.0337 22.0733 26.6655 22.0733C26.4381 22.0733 26.2215 22.0201 26.0157 21.9242C25.81 21.8284 25.6584 21.6793 25.5501 21.4877C25.4526 21.2853 25.3984 21.0511 25.3984 20.7742ZM26.0699 20.8062C26.0699 21.0511 26.124 21.2321 26.2432 21.3599C26.3623 21.4877 26.5031 21.5516 26.6763 21.5516C26.8496 21.5516 26.9904 21.4877 27.0987 21.3599C27.2178 21.2321 27.272 21.0511 27.272 20.8062C27.272 20.5719 27.2178 20.3909 27.0987 20.2631C26.9796 20.1354 26.8388 20.0715 26.6763 20.0715C26.5031 20.0715 26.3623 20.1354 26.2432 20.2631C26.124 20.3803 26.0699 20.5613 26.0699 20.8062Z" fill="#00489A"/>
<path d="M30.0664 22.0125V18.6797H31.1602C31.5826 18.6797 31.8425 18.701 31.9724 18.7329C32.1674 18.7862 32.3298 18.8926 32.4598 19.063C32.5897 19.2334 32.6547 19.4463 32.6547 19.7125C32.6547 19.9149 32.6222 20.0852 32.5464 20.2343C32.4706 20.3727 32.3731 20.4792 32.2648 20.5644C32.1457 20.6389 32.0266 20.6922 31.9075 20.7241C31.745 20.7561 31.5068 20.7774 31.1927 20.7774H30.7487V22.0125H30.0664ZM30.7487 19.244V20.1917H31.1277C31.3985 20.1917 31.5717 20.1704 31.6692 20.1385C31.7558 20.0959 31.8316 20.0426 31.8858 19.9681C31.9399 19.8936 31.9616 19.8084 31.9616 19.7125C31.9616 19.5848 31.9291 19.4889 31.8533 19.4144C31.7775 19.3399 31.6909 19.2866 31.5826 19.2653C31.4959 19.244 31.3335 19.244 31.0844 19.244H30.7487Z" fill="#00489A"/>
<path d="M33.8334 20.3299L33.2486 20.2234C33.3136 19.9891 33.4327 19.8187 33.5843 19.7016C33.7467 19.5845 33.985 19.5312 34.3099 19.5312C34.6023 19.5312 34.8189 19.5632 34.9597 19.6271C35.1005 19.691 35.1979 19.7762 35.2629 19.8826C35.317 19.9891 35.3495 20.1808 35.3495 20.4576L35.3387 21.203C35.3387 21.416 35.3495 21.5757 35.3712 21.6715C35.3929 21.7673 35.4253 21.8845 35.4903 21.991H34.8405C34.8189 21.9484 34.808 21.8845 34.7756 21.8099C34.7647 21.7673 34.7539 21.746 34.7539 21.7354C34.6456 21.8419 34.5265 21.9271 34.3965 21.9803C34.2666 22.0335 34.1366 22.0655 33.9958 22.0655C33.7467 22.0655 33.541 22.0016 33.4002 21.8632C33.2594 21.7248 33.1836 21.5544 33.1836 21.3521C33.1836 21.2136 33.2161 21.0965 33.2811 20.99C33.346 20.8836 33.4435 20.7984 33.5626 20.7451C33.6818 20.6919 33.855 20.6386 34.0825 20.5961C34.3857 20.5428 34.5915 20.4896 34.7106 20.4363V20.3724C34.7106 20.2447 34.6781 20.1595 34.6131 20.1062C34.5481 20.053 34.429 20.0317 34.2557 20.0317C34.1366 20.0317 34.05 20.053 33.985 20.0956C33.9308 20.1382 33.8767 20.2234 33.8334 20.3299ZM34.7106 20.8516C34.6239 20.8836 34.494 20.9155 34.3099 20.9474C34.1258 20.9794 34.0175 21.022 33.9525 21.0646C33.8659 21.1285 33.8225 21.203 33.8225 21.2882C33.8225 21.3734 33.855 21.4585 33.92 21.5224C33.985 21.5863 34.0716 21.6183 34.1799 21.6183C34.2991 21.6183 34.4074 21.5757 34.5156 21.5011C34.5915 21.4479 34.6456 21.3734 34.6673 21.2882C34.6889 21.2349 34.6889 21.1285 34.6889 20.9794V20.8516H34.7106Z" fill="#00489A"/>
<path d="M35.8164 19.5938H36.5095L37.0943 21.3081L37.6683 19.5938H38.3397L37.4733 21.915L37.3109 22.341C37.2568 22.4794 37.2026 22.5859 37.1485 22.6604C37.0943 22.7349 37.0402 22.7988 36.9752 22.8414C36.9102 22.884 36.8236 22.9266 36.7261 22.9479C36.6286 22.9692 36.5203 22.9905 36.3904 22.9905C36.2604 22.9905 36.1413 22.9798 36.0222 22.9479L35.9572 22.4474C36.0547 22.4687 36.1521 22.4794 36.2388 22.4794C36.3904 22.4794 36.4987 22.4368 36.5745 22.3516C36.6503 22.2664 36.7044 22.1493 36.7369 22.0109L35.8164 19.5938Z" fill="#00489A"/>
<path d="M38.8585 19.5951H39.4541V19.9252C39.6707 19.6697 39.9306 19.5312 40.223 19.5312C40.3855 19.5312 40.5154 19.5632 40.6346 19.6271C40.7537 19.691 40.8403 19.7868 40.9161 19.9146C41.0244 19.7868 41.1436 19.691 41.2627 19.6271C41.3926 19.5632 41.5226 19.5312 41.6634 19.5312C41.8475 19.5312 41.9991 19.5632 42.1182 19.6377C42.2374 19.7123 42.3348 19.8187 42.3998 19.9572C42.4431 20.0637 42.4648 20.2234 42.4648 20.4576V22.0122H41.815V20.628C41.815 20.3831 41.7933 20.234 41.75 20.1595C41.685 20.0637 41.5984 20.0211 41.4684 20.0211C41.3818 20.0211 41.2952 20.0424 41.2085 20.1062C41.1327 20.1595 41.0677 20.2447 41.0353 20.3511C41.0028 20.4576 40.9811 20.628 40.9811 20.8516V22.0122H40.3313V20.6919C40.3313 20.4576 40.3205 20.2979 40.2988 20.234C40.2772 20.1595 40.2447 20.1169 40.1905 20.0849C40.1364 20.053 40.0714 20.0317 39.9956 20.0317C39.8981 20.0317 39.8115 20.053 39.7249 20.1062C39.6491 20.1595 39.5841 20.234 39.5516 20.3405C39.5191 20.4363 39.4974 20.6067 39.4974 20.841V22.0122H38.8477V19.5951" fill="#00489A"/>
<path d="M44.6948 21.2562L45.3446 21.3627C45.2579 21.597 45.128 21.7673 44.9439 21.8951C44.7598 22.0229 44.5432 22.0761 44.2724 22.0761C43.8392 22.0761 43.5252 21.9377 43.3194 21.6609C43.1569 21.4373 43.0703 21.1604 43.0703 20.8197C43.0703 20.415 43.1786 20.1062 43.3952 19.872C43.6118 19.6484 43.8825 19.5312 44.2074 19.5312C44.5756 19.5312 44.8681 19.6484 45.0738 19.8826C45.2904 20.1275 45.3879 20.4896 45.3771 20.9794H43.7418C43.7418 21.171 43.7959 21.3201 43.9042 21.4266C44.0017 21.5331 44.1316 21.5863 44.2832 21.5863C44.3915 21.5863 44.4782 21.565 44.5432 21.5011C44.6081 21.4585 44.6623 21.3734 44.6948 21.2562ZM44.7273 20.6067C44.7273 20.415 44.6731 20.2766 44.5756 20.1808C44.4782 20.0849 44.3699 20.0317 44.2399 20.0317C44.0991 20.0317 43.98 20.0849 43.8825 20.1808C43.7851 20.2873 43.7418 20.4257 43.7418 20.6067H44.7273Z" fill="#00489A"/>
<path d="M48.2817 22.0122H47.6319V20.7771C47.6319 20.5109 47.6211 20.3512 47.5886 20.266C47.5561 20.1914 47.5128 20.1275 47.4586 20.0849C47.4045 20.0424 47.3178 20.0211 47.2312 20.0211C47.1229 20.0211 47.0146 20.053 46.928 20.1169C46.8413 20.1808 46.7764 20.2553 46.7439 20.3618C46.7114 20.4576 46.7006 20.6493 46.7006 20.9155V22.0122H46.0508V19.5951H46.6572V19.9465C46.8738 19.6697 47.1446 19.5312 47.4695 19.5312C47.6103 19.5312 47.7402 19.5525 47.8593 19.6058C47.9785 19.659 48.0651 19.7229 48.1301 19.7975C48.1951 19.872 48.2384 19.9678 48.26 20.0637C48.2817 20.1595 48.2925 20.3086 48.2925 20.4896V22.0122" fill="#00489A"/>
<path d="M50.2095 19.5962V20.1073H49.7655V21.0869C49.7655 21.2892 49.7655 21.4064 49.7763 21.4383C49.7872 21.4702 49.798 21.4915 49.8305 21.5235C49.863 21.5448 49.8955 21.5554 49.9388 21.5554C49.9929 21.5554 50.0796 21.5341 50.1987 21.4915L50.2528 21.9814C50.1012 22.0452 49.928 22.0772 49.7439 22.0772C49.6247 22.0772 49.5164 22.0559 49.4298 22.0239C49.3323 21.9813 49.2673 21.9281 49.224 21.8749C49.1807 21.811 49.1482 21.7258 49.1374 21.63C49.1266 21.5554 49.1157 21.4064 49.1157 21.1827V20.1286H48.8125V19.6175H49.1049V19.1383L49.7547 18.7656V19.6281H50.2095" fill="#00489A"/>
<path d="M50.5762 21.3308L51.226 21.2349C51.2476 21.3627 51.3126 21.4585 51.3992 21.5118C51.4859 21.5757 51.605 21.6076 51.7566 21.6076C51.9299 21.6076 52.049 21.5757 52.1357 21.5118C52.1898 21.4692 52.2223 21.416 52.2223 21.3414C52.2223 21.2882 52.2115 21.2562 52.179 21.2243C52.1465 21.1923 52.0707 21.1711 51.9624 21.1391C51.4317 21.022 51.096 20.9155 50.9552 20.8197C50.7603 20.6919 50.6628 20.5109 50.6628 20.2766C50.6628 20.0637 50.7494 19.8933 50.9119 19.7442C51.0852 19.6058 51.3451 19.5312 51.7025 19.5312C52.0382 19.5312 52.2873 19.5845 52.4605 19.691C52.623 19.7975 52.7421 19.9572 52.8071 20.1701L52.1898 20.2873C52.1681 20.1914 52.114 20.1169 52.0382 20.0743C51.9624 20.0211 51.8541 19.9998 51.7241 19.9998C51.5508 19.9998 51.4317 20.0211 51.3559 20.0743C51.3018 20.1062 51.2801 20.1488 51.2801 20.2021C51.2801 20.2447 51.3018 20.2873 51.3451 20.3192C51.3992 20.3618 51.605 20.4257 51.9515 20.5002C52.2981 20.5748 52.5364 20.6706 52.6771 20.7877C52.8179 20.9049 52.8829 21.0646 52.8829 21.2669C52.8829 21.4905 52.7854 21.6822 52.6013 21.8419C52.4064 22.0016 52.1357 22.0868 51.7674 22.0868C51.4317 22.0868 51.1718 22.0229 50.9769 21.8845C50.7603 21.746 50.6303 21.565 50.5762 21.3308Z" fill="#00489A"/>
<path d="M58.1028 22.0125H57.3663L57.0739 21.2565H55.7094L55.417 22.0125H54.6914L56.0018 18.6797H56.7274L58.1028 22.0125ZM56.8357 20.7028L56.3592 19.4676L55.9043 20.7028H56.8357Z" fill="#00489A"/>
<path d="M59.2181 22.0094H58.5684V19.5923H59.1748V19.933C59.2831 19.7733 59.3697 19.6668 59.4564 19.6136C59.543 19.5604 59.6297 19.5391 59.738 19.5391C59.8896 19.5391 60.0304 19.5817 60.1711 19.6562L59.9762 20.2099C59.8679 20.1354 59.7596 20.1034 59.673 20.1034C59.5863 20.1034 59.4997 20.1247 59.4456 20.1779C59.3806 20.2312 59.3264 20.3164 59.2939 20.4442C59.2615 20.5719 59.2398 20.8488 59.2398 21.2534V22.0094" fill="#00489A"/>
<path d="M62.0131 21.2562L62.6629 21.3627C62.5763 21.597 62.4463 21.7673 62.2622 21.8951C62.0781 22.0229 61.8615 22.0761 61.5908 22.0761C61.1576 22.0761 60.8435 21.9377 60.6378 21.6609C60.4753 21.4373 60.3887 21.1604 60.3887 20.8197C60.3887 20.415 60.497 20.1062 60.7136 19.872C60.9302 19.6484 61.2009 19.5312 61.5258 19.5312C61.894 19.5312 62.1864 19.6484 62.3922 19.8826C62.6088 20.1275 62.7062 20.4896 62.6954 20.9794H61.0601C61.0601 21.171 61.1143 21.3201 61.2226 21.4266C61.32 21.5331 61.45 21.5863 61.6016 21.5863C61.7099 21.5863 61.7965 21.565 61.8615 21.5011C61.9265 21.4585 61.9806 21.3734 62.0131 21.2562ZM62.0456 20.6067C62.0456 20.415 61.9915 20.2766 61.894 20.1808C61.7965 20.0849 61.6882 20.0317 61.5583 20.0317C61.4175 20.0317 61.2984 20.0849 61.2009 20.1808C61.1034 20.2873 61.0601 20.4257 61.0601 20.6067H62.0456Z" fill="#00489A"/>
<path d="M63.8431 20.3299L63.2583 20.2234C63.3233 19.9891 63.4424 19.8187 63.5941 19.7016C63.7565 19.5845 63.9948 19.5312 64.3197 19.5312C64.6121 19.5312 64.8287 19.5632 64.9694 19.6271C65.1102 19.691 65.2077 19.7762 65.2727 19.8826C65.3268 19.9891 65.3593 20.1808 65.3593 20.4576L65.3485 21.203C65.3485 21.416 65.3593 21.5757 65.381 21.6715C65.4026 21.7673 65.4351 21.8845 65.5001 21.991H64.8503C64.8287 21.9484 64.8178 21.8845 64.7853 21.8099C64.7745 21.7673 64.7637 21.746 64.7637 21.7354C64.6554 21.8419 64.5362 21.9271 64.4063 21.9803C64.2763 22.0335 64.1464 22.0655 64.0056 22.0655C63.7565 22.0655 63.5507 22.0016 63.41 21.8632C63.2692 21.7248 63.1934 21.5544 63.1934 21.3521C63.1934 21.2136 63.2259 21.0965 63.2908 20.99C63.3558 20.8836 63.4533 20.7984 63.5724 20.7451C63.6915 20.6919 63.8648 20.6386 64.0922 20.5961C64.3955 20.5428 64.6012 20.4896 64.7204 20.4363V20.3724C64.7204 20.2447 64.6879 20.1595 64.6229 20.1062C64.5579 20.053 64.4388 20.0317 64.2655 20.0317C64.1464 20.0317 64.0597 20.053 63.9948 20.0956C63.9406 20.1382 63.8865 20.2234 63.8431 20.3299ZM64.7204 20.8516C64.6337 20.8836 64.5038 20.9155 64.3197 20.9474C64.1355 20.9794 64.0272 21.022 63.9623 21.0646C63.8756 21.1285 63.8323 21.203 63.8323 21.2882C63.8323 21.3734 63.8648 21.4585 63.9298 21.5224C63.9948 21.5863 64.0814 21.6183 64.1897 21.6183C64.3088 21.6183 64.4171 21.5757 64.5254 21.5011C64.6012 21.4479 64.6554 21.3734 64.677 21.2882C64.6987 21.2349 64.6987 21.1285 64.6987 20.9794V20.8516H64.7204Z" fill="#00489A"/>
<path d="M14.9468 5.56473H10.5067C10.5067 4.8513 10.42 4.37214 10.2467 4.11659C9.98682 3.75455 9.2504 3.57353 8.05914 3.57353C6.90036 3.57353 6.13145 3.68001 5.75241 3.88233C5.37337 4.09529 5.18926 4.55316 5.18926 5.24528C5.18926 5.88417 5.35171 6.29944 5.68743 6.50176C5.92568 6.64018 6.23975 6.72537 6.62962 6.75731L7.52848 6.8212C9.44534 6.94898 10.6474 7.03416 11.1239 7.0874C12.6401 7.23647 13.7447 7.63046 14.427 8.27999C14.9685 8.78045 15.2826 9.44063 15.3908 10.2499C15.445 10.729 15.4775 11.2827 15.4775 11.8897C15.4775 13.2952 15.3367 14.3281 15.066 14.9776C14.5678 16.1702 13.4632 16.9262 11.7304 17.2457C11.0048 17.3735 9.90019 17.448 8.40569 17.448C5.91486 17.448 4.1821 17.2989 3.20743 17.0114C2.00533 16.6494 1.21476 15.9253 0.824891 14.8286C0.608297 14.2216 0.5 13.2101 0.5 11.7832H4.94018C4.94018 11.9429 4.94018 12.0601 4.94018 12.1452C4.94018 12.9013 5.1676 13.3911 5.60079 13.604C5.90403 13.7531 6.28306 13.8276 6.71625 13.8383H8.35154C9.18543 13.8383 9.71608 13.7957 9.94351 13.7105C10.355 13.5508 10.6149 13.2952 10.7449 12.9438C10.8099 12.7309 10.8424 12.4434 10.8424 12.1027C10.8424 11.336 10.5608 10.8675 9.98682 10.6971C9.77023 10.6332 8.78473 10.5374 7.00866 10.4203C5.58996 10.3244 4.60446 10.2286 4.05214 10.1328C2.60096 9.86655 1.62629 9.31285 1.13895 8.4823C0.716595 7.76888 0.5 6.69342 0.5 5.25593C0.5 4.15918 0.619128 3.28603 0.846552 2.62585C1.07398 1.96567 1.45302 1.46521 1.96201 1.12447C2.70926 0.602716 3.67311 0.283274 4.83188 0.198089C5.80656 0.112905 6.8787 0.0703125 8.06997 0.0703125C9.93268 0.0703125 11.2647 0.176793 12.0553 0.389755C13.9938 0.900863 14.9577 2.32771 14.9577 4.68093C14.9901 4.8939 14.9793 5.1814 14.9468 5.56473Z" fill="#00489A"/>
<path d="M34.4941 17.46V0.0078125H41.4576H42.5514H43.3961C44.6199 0.0078125 45.5513 0.103646 46.1902 0.305959C47.6522 0.753179 48.6377 1.67956 49.1359 3.07446C49.3958 3.80918 49.5258 4.90593 49.5258 6.38602C49.5258 8.1536 49.385 9.43137 49.0926 10.2087C48.5186 11.742 47.349 12.6258 45.5729 12.8494C45.3672 12.8813 44.4791 12.9133 42.9088 12.9346L42.1182 12.9559H39.27V17.46H34.4941ZM39.27 8.89896H42.2482C43.1904 8.86702 43.7644 8.79248 43.9701 8.686C44.2517 8.53693 44.4466 8.22814 44.5333 7.77027C44.5874 7.46147 44.6199 7.01425 44.6199 6.40731C44.6199 5.6726 44.5658 5.1189 44.4358 4.76751C44.2625 4.26705 43.851 3.95825 43.2012 3.85177C43.0713 3.83048 42.768 3.83048 42.2699 3.83048H39.2484V8.89896H39.27Z" fill="#00489A"/>
<path d="M59.7274 14.4388H53.3379L52.4824 17.4522H47.5332L52.8722 0H60.074L65.478 17.4522H60.6371L59.7274 14.4388ZM58.7744 11.0421L56.5327 3.48192L54.3559 11.0421H58.7744Z" fill="#00489A"/>
<path d="M27.8981 2.45624C29.8691 2.45624 31.6235 3.35068 32.7823 4.74557L33.8111 2.57337C32.1975 1.08263 30.0099 0.15625 27.5949 0.15625C23.8262 0.15625 20.6097 2.39235 19.2885 5.55483H17.285L16.0938 8.05713H18.682C18.6604 8.29139 18.6496 8.52565 18.6496 8.75991C18.6496 9.0474 18.6712 9.32425 18.6929 9.61175H17.3933L16.202 12.1141H19.3427C20.6964 15.202 23.8803 17.3636 27.5841 17.3636C29.4468 17.3636 31.1795 16.8099 32.6199 15.8728V12.8062C31.4611 14.1052 29.7717 14.9145 27.8873 14.9145C25.6889 14.9145 23.7504 13.7965 22.6132 12.1034H29.1977L30.3781 9.6011H21.6602C21.6169 9.30296 21.5844 8.99416 21.5844 8.68537C21.5844 8.47241 21.5952 8.25945 21.6169 8.05713H31.1254L32.3167 5.55483H22.4508C23.5446 3.70206 25.5697 2.45624 27.8981 2.45624Z" fill="#FDC300"/>
<path d="M27.8992 2.535C29.7727 2.535 31.538 3.3549 32.7292 4.80304L32.8051 4.89887L32.8592 4.79239L33.888 2.62018L33.9097 2.56694L33.8664 2.52435C32.1769 0.948432 29.946 0.0859375 27.596 0.0859375C25.7549 0.0859375 23.9897 0.618341 22.4843 1.61926C21.0115 2.58824 19.8852 3.95119 19.2246 5.53776L19.3004 5.49516H17.2861H17.2319L17.2103 5.53776L16.019 8.04006L15.9648 8.14654H16.084H18.6723L18.5965 8.06135C18.5748 8.31691 18.564 8.55116 18.564 8.76412C18.564 9.04098 18.5748 9.32847 18.6073 9.62662L18.6831 9.54143H17.3835H17.3402L17.3186 9.58403L16.1273 12.0863L16.0731 12.1928H16.1923H19.3329L19.2571 12.1502C20.6758 15.3659 23.9355 17.4423 27.5743 17.4423C29.3937 17.4423 31.1481 16.9206 32.6534 15.9409L32.6859 15.9196V15.877V12.8104V12.6081L32.556 12.7572C31.3755 14.0775 29.6753 14.8442 27.8884 14.8442C25.7874 14.8442 23.838 13.8113 22.6793 12.0757L22.6143 12.1928H29.1988H29.2421L29.2637 12.1502L30.4442 9.64791L30.4983 9.54143H30.4009H21.6721L21.7479 9.60532C21.7046 9.30718 21.6829 8.99838 21.6829 8.68959C21.6829 8.48727 21.6938 8.27431 21.7154 8.072L21.6396 8.13589H31.1481H31.2023L31.2239 8.0933L32.4044 5.591L32.4585 5.48452H32.3394H22.4518L22.5168 5.60164C23.6323 3.70628 25.6899 2.535 27.8992 2.535ZM22.4518 5.63359H32.3285L32.2636 5.52711L31.0723 8.02941L31.1373 7.98681H21.6288H21.5638L21.553 8.0507C21.5313 8.26366 21.5205 8.47663 21.5205 8.68959C21.5205 8.99838 21.5421 9.30718 21.5963 9.62662L21.6071 9.69051H21.6721H30.4009L30.3359 9.58403L29.1554 12.0863L29.2204 12.0437H22.636H22.4952L22.571 12.1609C23.7514 13.9391 25.7549 15.0039 27.8992 15.0039C29.7294 15.0039 31.473 14.2266 32.6859 12.8743L32.556 12.821V15.8877L32.5885 15.8238C31.1156 16.7928 29.3829 17.3039 27.596 17.3039C24.0222 17.3039 20.8166 15.2595 19.4195 12.097L19.3979 12.0544H19.3545H16.2139L16.2897 12.1609L17.4702 9.65856L17.4052 9.70115H18.7048H18.7914L18.7806 9.61597C18.7481 9.33912 18.7373 9.05162 18.7373 8.77477C18.7373 8.56181 18.7481 8.3382 18.7697 8.08265L18.7806 7.99746H18.6939H16.0948L16.1598 8.10394L17.351 5.60164L17.2861 5.64424H19.2896H19.3437L19.3654 5.60164C20.0152 4.03638 21.1306 2.70536 22.571 1.74704C24.0546 0.767414 25.7874 0.245659 27.596 0.245659C29.9027 0.245659 32.1011 1.09751 33.7689 2.64148L33.7472 2.55629L32.7184 4.7285L32.8484 4.7072C31.6354 3.23777 29.8269 2.38592 27.8992 2.38592C25.6358 2.38592 23.524 3.58916 22.3869 5.52711L22.3219 5.63359H22.4518Z" fill="#00489A"/>
</g>
<defs>
<clipPath id="clip0_1_33405">
<rect width="65" height="23" fill="white" transform="translate(0.5)"/>
</clipPath>
</defs>
</svg>
