<svg width="32" height="32" viewBox="0 0 32 32" fill="none" xmlns="http://www.w3.org/2000/svg">
<g clip-path="url(#clip0_1_33352)">
<path d="M16 0C7.16337 0 0 7.16337 0 16C0 24.8366 7.16337 32 16 32C24.8366 32 32 24.8366 32 16C32 7.16337 24.8366 0 16 0Z" fill="#40B3E0"/>
<path d="M23.7858 9.20142L20.9279 23.61C20.9279 23.61 20.5283 24.6093 19.4292 24.1297L12.8344 19.0737L10.4364 17.9147L6.39967 16.5557C6.39967 16.5557 5.78017 16.3359 5.72017 15.8563C5.66017 15.3767 6.41967 15.1169 6.41967 15.1169L22.4667 8.82192C22.4667 8.82192 23.7857 8.24242 23.7857 9.20167" fill="white"/>
<path d="M12.3268 23.449C12.3268 23.449 12.1343 23.431 11.8943 22.6715C11.6547 21.9121 10.4355 17.9154 10.4355 17.9154L20.1278 11.7604C20.1278 11.7604 20.6874 11.4206 20.6674 11.7604C20.6674 11.7604 20.7673 11.8204 20.4674 12.1001C20.1678 12.38 12.8537 18.9546 12.8537 18.9546" fill="#D2E5F1"/>
<path d="M15.3635 21.0128L12.7551 23.391C12.7551 23.391 12.5511 23.5457 12.3281 23.4487L12.8276 19.0312" fill="#B5CFE4"/>
</g>
<defs>
<clipPath id="clip0_1_33352">
<rect width="32" height="32" fill="white"/>
</clipPath>
</defs>
</svg>
