<svg width="33" height="32" viewBox="0 0 33 32" fill="none" xmlns="http://www.w3.org/2000/svg">
<g id="logos:whatsapp" clip-path="url(#clip0_1_28834)">
<path id="Vector" d="M8.96038 27.4088L9.48333 27.6674C11.6626 28.9601 14.1031 29.5634 16.5438 29.5634C24.2144 29.5634 30.4902 23.3581 30.4902 15.7739C30.4902 12.1542 29.0084 8.62061 26.3935 6.03503C23.7785 3.44946 20.2918 1.98438 16.5438 1.98438C8.87328 1.98438 2.59727 8.18966 2.68449 15.8601C2.68449 18.4456 3.46898 20.9451 4.77641 23.0996L5.12505 23.6167L3.73051 28.7017L8.96038 27.4088Z" fill="#00E676"/>
<path id="Vector_2" d="M27.8738 4.65396C24.9102 1.63756 20.8134 0 16.6295 0C7.73872 0 0.591127 7.1533 0.678223 15.8579C0.678223 18.6158 1.46271 21.2877 2.77027 23.7008L0.503906 31.8883L8.95893 29.7337C11.3124 31.0265 13.9273 31.6298 16.5424 31.6298C25.346 31.6298 32.4936 24.4764 32.4936 15.7719C32.4936 11.5488 30.8374 7.58425 27.8739 4.65396H27.8738ZM16.6295 28.9581C14.276 28.9581 11.9226 28.355 9.91774 27.1484L9.39479 26.8898L4.33924 28.1825L5.64667 23.2701L5.29804 22.7529C1.46271 16.6338 3.29322 8.53226 9.5691 4.74008C15.845 0.948016 23.9514 2.75793 27.7867 8.96321C31.6219 15.1685 29.7914 23.1837 23.5157 26.9759C21.5107 28.2686 19.0702 28.958 16.6295 28.958V28.9581ZM24.3 19.3918L23.3412 18.9608C23.3412 18.9608 21.9467 18.3575 21.075 17.9265C20.9878 17.9265 20.9007 17.8403 20.8134 17.8403C20.5519 17.8403 20.3776 17.9265 20.2033 18.0128C20.2033 18.0128 20.1162 18.0989 18.8958 19.4779C18.8086 19.6502 18.6343 19.7365 18.46 19.7365H18.3728C18.2857 19.7365 18.1113 19.6502 18.0241 19.5641L17.5883 19.3918C16.6295 18.9608 15.7579 18.4436 15.0605 17.7542C14.8862 17.5818 14.6246 17.4095 14.4503 17.2371C13.8402 16.6338 13.23 15.9443 12.7943 15.1686L12.707 14.9963C12.6199 14.91 12.6199 14.8239 12.5327 14.6516C12.5327 14.4792 12.5327 14.3068 12.6199 14.2206C12.6199 14.2206 12.9686 13.7897 13.23 13.5312C13.4044 13.3587 13.4915 13.1002 13.6658 12.9279C13.8402 12.6693 13.9274 12.3246 13.8402 12.066C13.7531 11.635 12.707 9.30805 12.4456 8.79098C12.2712 8.53239 12.097 8.44627 11.8355 8.36003H10.8767C10.7022 8.36003 10.528 8.44627 10.3536 8.44627L10.2664 8.53239C10.0921 8.61863 9.91774 8.79098 9.74342 8.8771C9.5691 9.04958 9.48188 9.22181 9.30757 9.39429C8.6974 10.1699 8.34876 11.118 8.34876 12.066C8.34876 12.7554 8.52308 13.4449 8.78462 14.0482L8.87184 14.3068C9.65632 15.9443 10.7022 17.4095 12.097 18.7022L12.4456 19.0469C12.707 19.3055 12.9686 19.4779 13.1429 19.7363C14.9734 21.2878 17.0653 22.4082 19.4188 23.0115C19.6803 23.0976 20.029 23.0976 20.2905 23.1838H21.1621C21.5979 23.1838 22.1209 23.0115 22.4696 22.8391C22.731 22.6667 22.9054 22.6667 23.0797 22.4944L23.2541 22.3219C23.4284 22.1496 23.6028 22.0634 23.7771 21.8911C23.9514 21.7187 24.1257 21.5464 24.2129 21.3739C24.3872 21.0292 24.4743 20.5982 24.5616 20.1674V19.5641C24.5616 19.5641 24.4743 19.4779 24.3 19.3918Z" fill="white"/>
</g>
<defs>
<clipPath id="clip0_1_28834">
<rect width="32" height="32" fill="white" transform="translate(0.5)"/>
</clipPath>
</defs>
</svg>
